<svg id="Capa_1" enable-background="new 0 0 512 512" height="512" viewBox="0 0 512 512" width="512" xmlns="http://www.w3.org/2000/svg"><g><g><g><path d="m453.787 139.36c-11.867-11.898-27.648-18.452-44.435-18.452-.001 0 0 0-.001 0-16.786 0-32.568 6.554-44.428 18.442l-83.277 83.277c-3.905 3.905-3.905 10.237 0 14.143 3.906 3.904 10.236 3.904 14.143 0l83.286-83.286c8.089-8.11 18.842-12.576 30.276-12.576 11.436 0 22.188 4.467 30.275 12.576 16.715 16.757 16.715 44.023 0 60.782l-30.406 30.485-13.638-13.673c-1.876-1.882-4.424-2.938-7.08-2.938s-5.204 1.057-7.08 2.938l-35.067 35.158-57.059 33.257c-.759.442-1.459.986-2.077 1.611l-64.759 64.927c-3.894 3.902-3.894 10.221 0 14.123l4.827 4.84-43.365 43.479c-1.947 1.951-2.92 4.508-2.92 7.063-4.668 1.98-8.965 4.853-12.612 8.509-15.479 15.519-15.479 40.768-.001 56.285 7.506 7.525 17.487 11.671 28.105 11.671h.001c10.618 0 20.601-4.145 28.106-11.67 3.645-3.654 6.508-7.959 8.481-12.635 2.646-.008 5.183-1.063 7.052-2.938l43.328-43.441 4.791 4.803c1.876 1.882 4.424 2.938 7.08 2.938s5.204-1.057 7.08-2.938l64.756-64.924c.668-.663 1.246-1.422 1.703-2.246l33.078-57.046 35.068-35.159c3.894-3.903 3.894-10.221 0-14.123l-13.675-13.71 30.442-30.521c24.484-24.547 24.484-64.486.002-89.031zm-220.735 324.178c-2.914-2.74-7.197-3.486-10.88-1.867-3.779 1.664-6.147 5.479-5.961 9.605.253 5.56-1.851 11.001-5.769 14.93-3.727 3.736-8.68 5.794-13.946 5.794s-10.219-2.058-13.945-5.795c-7.71-7.729-7.71-20.307 0-28.036 3.747-3.757 8.658-5.795 13.915-5.795.311 0 .622.008.936.021 4.128.206 7.935-2.174 9.603-5.946 1.632-3.691.882-7.993-1.88-10.913l36.287-36.382 27.929 28.002zm117.87-176.814 30.549 30.628-23.462 40.462-47.444-47.568zm-55.587 138.173-51.67-51.805 50.668-50.8 51.67 51.805zm98.647-123.323-27.313-27.384 21.834-21.89 27.313 27.383z"/><path d="m231.833 286.536c-3.917-3.893-10.25-3.87-14.142.048l-90.274 90.891c-7.479 7.498-17.421 11.627-27.994 11.627s-20.515-4.129-27.994-11.627c-15.455-15.496-15.455-40.71 0-56.206l53.88-54.02 13.638 13.674c1.876 1.882 4.424 2.938 7.08 2.938s5.204-1.057 7.08-2.938l35.067-35.158 57.059-33.257c.758-.442 1.46-.986 2.077-1.611l64.759-64.927c3.894-3.902 3.894-10.221 0-14.123l-4.828-4.84 43.366-43.478c1.947-1.951 2.92-4.508 2.92-7.063 4.668-1.98 8.965-4.853 12.612-8.509v-.001c15.478-15.518 15.478-40.767.001-56.284-7.505-7.526-17.487-11.671-28.104-11.672-.001 0-.002 0-.002 0-10.619 0-20.601 4.145-28.107 11.67-3.646 3.654-6.508 7.958-8.48 12.635-2.646.008-5.183 1.063-7.052 2.938l-43.328 43.441-4.791-4.803c-1.876-1.882-4.424-2.938-7.08-2.938s-5.204 1.057-7.08 2.938l-64.756 64.924c-.668.663-1.246 1.422-1.703 2.246l-33.078 57.046-35.068 35.159c-3.894 3.903-3.894 10.221 0 14.123l13.675 13.71-53.917 54.057c-23.224 23.284-23.223 61.169.001 84.452 11.258 11.288 26.228 17.504 42.152 17.504h.001c15.925 0 30.896-6.217 42.169-17.519l90.289-90.905c3.892-3.918 3.871-10.25-.048-14.142zm-48.225-61.26-30.549-30.628 23.462-40.462 47.444 47.568zm81.582-140.432 36.288-36.382c2.915 2.742 7.2 3.487 10.88 1.867 3.779-1.664 6.147-5.479 5.961-9.605-.253-5.56 1.85-11.001 5.768-14.929 3.728-3.737 8.681-5.795 13.948-5.795 5.266 0 10.218 2.058 13.944 5.794 7.71 7.73 7.71 20.308 0 28.038v-.001c-3.969 3.979-9.226 6.027-14.851 5.773-4.085-.21-7.934 2.173-9.603 5.946-1.632 3.691-.882 7.993 1.88 10.913l-36.288 36.382-6.614-6.631zm-25.995 2.259 51.67 51.805-50.668 50.8-51.67-51.805zm-98.647 123.323 27.313 27.384-21.834 21.89-27.313-27.383z"/></g><g><path d="m256.881 271.529c-4.195 0-7.98-2.692-9.407-6.626-1.399-3.859-.196-8.345 2.938-10.995 3.283-2.776 8.092-3.123 11.745-.864 3.505 2.167 5.322 6.414 4.523 10.446-.915 4.624-5.09 8.039-9.799 8.039z"/></g></g></g></svg>