<?xml version="1.0" encoding="iso-8859-1"?>
<!-- Generator: Adobe Illustrator 16.0.0, SVG Export Plug-In . SVG Version: 6.00 Build 0)  -->
<!DOCTYPE svg PUBLIC "-//W3C//DTD SVG 1.1//EN" "http://www.w3.org/Graphics/SVG/1.1/DTD/svg11.dtd">
<svg version="1.1" id="Capa_1" xmlns="http://www.w3.org/2000/svg" xmlns:xlink="http://www.w3.org/1999/xlink" x="0px" y="0px"
	 width="422.826px" height="422.825px" viewBox="0 0 422.826 422.825" style="enable-background:new 0 0 422.826 422.825;"
	 xml:space="preserve">
<g>
	<g>
		<path d="M191.928,382.997c1.798,1.626,44.619,39.828,107.579,39.828c6.11,0,12.288-0.373,18.417-1.109
			c68.43-8.271,93.512-52.135,102.367-77.532c5.059-14.431-4.609-29.96-16.83-35.42l-80.325-35.697
			c-3.863-1.711-8.482-2.61-13.34-2.61c-9.936,0-19.89,3.682-25.981,9.601l-25.302,24.519c-3.777,3.644-10.462,6.101-16.639,6.101
			c-2.649,0-4.992-0.468-6.742-1.348c-17.069-8.568-43.931-25.666-74.875-58.475c-27.473-29.166-40.507-49.123-46.598-60.732
			c-3.414-6.493,0.153-17.757,5.489-23.122l22.52-22.5c9.362-9.352,13.579-26.574,9.601-39.206l-25.322-80.411
			C122.102,12.651,109.097,0,93.931,0C72.96,0.708,43.489,8.214,22.308,40c-32.742,49.142-30.782,143.763,29.51,210.93
			C107.73,313.239,191.22,382.442,191.928,382.997z M34.242,47.966c17.795-26.708,42.715-33.029,60.492-33.631
			c7.249,0.028,15.367,8.003,17.538,14.86l25.322,80.411c2.371,7.574-0.45,19.135-6.072,24.748l-22.52,22.51
			c-9.189,9.209-14.621,27.454-8.051,39.933c6.541,12.422,20.301,33.583,48.854,63.887c32.369,34.329,60.76,52.374,78.873,61.458
			c3.72,1.874,8.271,2.859,13.205,2.859c9.955,0,20.148-3.873,26.594-10.117l25.302-24.519c3.434-3.337,9.859-5.574,15.989-5.574
			c2.859,0,5.45,0.487,7.525,1.396l80.306,35.697c6.13,2.725,11.446,10.997,9.133,17.566c-7.756,22.261-29.845,60.702-90.548,68.037
			c-5.546,0.669-11.149,1.004-16.696,1.004c-56.887,0-96.467-34.788-98.207-36.328c-0.822-0.679-83.395-69.061-138.809-130.806
			C8.557,181.267,4.34,92.842,34.242,47.966z"/>
		<path d="M263.494,256.084c1.961,1.97,4.581,3.051,7.373,3.051c2.782,0,5.546-1.014,8.214-3.013l57.576-43.079
			c3.844-2.869,6.072-7.047,6.072-11.475c0-4.417-2.199-8.606-6.034-11.484l-57.375-43.069c-2.668-2.008-5.432-3.022-8.214-3.022
			c-5.413,0-10.892,4.322-10.892,12.584v8.74c0,1.32-1.081,2.391-2.391,2.391h-73.269c-9.228,0-16.734,7.507-16.734,16.734v33.363
			c0,9.229,7.507,16.734,16.734,16.734h73.269c0.631,0,1.195,0.24,1.645,0.68c0.43,0.439,0.65,1.014,0.65,1.654l-0.077,9.582
			C260.003,251.465,261.887,254.448,263.494,256.084z M184.564,220.195c-1.329,0-2.391-1.07-2.391-2.391v-33.363
			c0-1.319,1.062-2.391,2.391-2.391h73.268c9.229,0,16.734-7.506,16.734-16.734c0,0,0-0.879,0-1.979c0-1.09,3.424,0.593,7.65,3.768
			l38.23,28.697c4.227,3.175,4.218,8.31-0.009,11.465l-38.346,28.688c-4.227,3.165-7.65,4.676-7.641,3.385l0.019-2.343
			c0.039-4.485-1.663-8.702-4.8-11.876c-3.155-3.186-7.363-4.936-11.839-4.936h-73.268V220.195z"/>
	</g>
</g>
<g>
</g>
<g>
</g>
<g>
</g>
<g>
</g>
<g>
</g>
<g>
</g>
<g>
</g>
<g>
</g>
<g>
</g>
<g>
</g>
<g>
</g>
<g>
</g>
<g>
</g>
<g>
</g>
<g>
</g>
</svg>
