<svg height="438pt" viewBox="0 -18 438.85714 438" width="438pt" xmlns="http://www.w3.org/2000/svg"><path d="m393.144531.429688h-347.429687c-25.207032 0-45.714844 20.507812-45.714844 45.714843v239.628907c0 24.152343 20.507812 43.796874 45.714844 43.796874h114.976562l-20.726562 54.859376h-21.109375c-5.050781 0-9.140625 4.09375-9.140625 9.140624 0 5.050782 4.089844 9.144532 9.140625 9.144532h201.144531c5.054688 0 9.144531-4.09375 9.144531-9.144532 0-5.046874-4.089843-9.140624-9.144531-9.140624h-21.105469l-20.726562-54.859376h114.976562c25.203125 0 45.710938-19.644531 45.710938-43.796874v-239.628907c0-25.207031-20.507813-45.714843-45.710938-45.714843zm-113.804687 384h-119.820313l20.722657-54.859376h78.375zm141.230468-98.65625c0 14.066406-12.300781 25.511718-27.425781 25.511718h-347.429687c-15.125 0-27.429688-11.445312-27.429688-25.511718v-29.34375h402.285156zm0-47.628907h-402.285156v-192c0-15.125 12.304688-27.429687 27.429688-27.429687h347.429687c15.125 0 27.425781 12.304687 27.425781 27.429687zm0 0"/><path d="m201.144531 293h36.570313c5.054687 0 9.140625-4.09375 9.140625-9.144531 0-5.046875-4.085938-9.140625-9.140625-9.140625h-36.570313c-5.054687 0-9.144531 4.09375-9.144531 9.140625 0 5.050781 4.089844 9.144531 9.144531 9.144531zm0 0"/></svg>