<svg id="Capa_1" data-name="Capa 1" xmlns="http://www.w3.org/2000/svg" viewBox="0 0 125 125"><defs><style>.cls-1{fill:#dc5555;}</style></defs><title>iconos</title><path class="cls-1" d="M76.56,90H48.5a3.29,3.29,0,0,0-3.34,3.52,3.24,3.24,0,0,0,3.23,3H76.46A3.29,3.29,0,0,0,79.8,93,3.25,3.25,0,0,0,76.56,90Z"/><path class="cls-1" d="M76.56,79.71H48.5a3.29,3.29,0,0,0-3.34,3.52,3.24,3.24,0,0,0,3.23,3H76.46a3.25,3.25,0,1,0,.1-6.5Z"/><path class="cls-1" d="M103.73,39.18H93.37V20.27A3.26,3.26,0,0,0,90.11,17H34.69a3.26,3.26,0,0,0-3.26,3.26V39.18H21.07a7.62,7.62,0,0,0-7.61,7.62V79.56a7.61,7.61,0,0,0,7.61,7.61H31.43v17.57A3.26,3.26,0,0,0,34.69,108H90.11a3.26,3.26,0,0,0,3.26-3.27V87.17h10.36a7.61,7.61,0,0,0,7.61-7.61V46.8A7.62,7.62,0,0,0,103.73,39.18ZM38.12,23.51H86.87V39.18H38.12Zm49,78h-49V74.74h49ZM90.15,58.3H82a3.29,3.29,0,0,1-3.35-3.52,3.26,3.26,0,0,1,3.24-3H90a3.29,3.29,0,0,1,3.34,3.52A3.24,3.24,0,0,1,90.15,58.3Z"/></svg>