<svg id="Capa_1" data-name="Capa 1" xmlns="http://www.w3.org/2000/svg" viewBox="0 0 125 125"><defs><style>.cls-1{fill:#dc5555;}</style></defs><title>iconos</title><path class="cls-1" d="M53.78,54.94a2,2,0,0,1,0,4H45.25v2.68a17.06,17.06,0,0,0,34.12,0V58.94H70.84a2,2,0,0,1,0-4h8.53V49.12H70.84a2,2,0,0,1,0-4h8.53v-4a17.06,17.06,0,1,0-34.12,0v4h8.53a2,2,0,0,1,0,4H45.25v5.82Z"/><path class="cls-1" d="M63.16,83.86a2.5,2.5,0,0,1,2.5,2.5v1.52c7.69-.61,13.88-3.35,18.42-8.16,8.75-9.28,8.06-22.79,8-23.37a2.5,2.5,0,0,0-5,.3c0,.12.61,11.92-6.66,19.64C76.24,80.74,70.14,83,62.31,83S48.4,80.75,44.2,76.31C37,68.67,37.5,56.85,37.51,56.65a2.5,2.5,0,0,0-5-.3c0,.58-.72,14.09,8,23.37,4.87,5.17,11.64,7.94,20.12,8.25V86.36A2.5,2.5,0,0,1,63.16,83.86Z"/><path class="cls-1" d="M81.93,97.51H65.66V100a2.5,2.5,0,0,1-2.5,2.5H81.93a2.5,2.5,0,0,0,0-5Z"/><path class="cls-1" d="M60.66,100v-2.5h-18a2.5,2.5,0,1,0,0,5H63.16A2.5,2.5,0,0,1,60.66,100Z"/><path class="cls-1" d="M65.66,87.88c-1.08.08-2.2.13-3.35.13-.56,0-1.1,0-1.65,0v9.54h5Z"/><path class="cls-1" d="M65.66,87.88V86.36a2.5,2.5,0,1,0-5,0V88c.55,0,1.09,0,1.65,0C63.46,88,64.58,88,65.66,87.88Z"/><path class="cls-1" d="M65.66,100v-2.5h-5V100a2.5,2.5,0,1,0,5,0Z"/></svg>