<svg id="Capa_1" data-name="Capa 1" xmlns="http://www.w3.org/2000/svg" viewBox="0 0 125 125"><defs><style>.cls-1{fill:#dc5555;}.cls-2{fill:#fff;}</style></defs><title>iconos</title><path class="cls-1" d="M107.76,37.63a10.39,10.39,0,0,0-7.58-3.17H84.55v-.18a8,8,0,0,0-2.47-5.85A8.46,8.46,0,0,0,76.14,26H48.69a8.52,8.52,0,0,0-6,2.42,8.15,8.15,0,0,0-2.47,5.85v.18H25.62A10.4,10.4,0,0,0,18,37.63a10.76,10.76,0,0,0-3.2,7.53V90.31A10.2,10.2,0,0,0,18,97.83,10.89,10.89,0,0,0,25.62,101h74.56a10.36,10.36,0,0,0,7.58-3.18,10.72,10.72,0,0,0,3.2-7.52V45.16A10.23,10.23,0,0,0,107.76,37.63Z"/><path class="cls-2" d="M62.68,45.56a22.47,22.47,0,0,0-15.86,6.57A22.21,22.21,0,0,0,40.25,68a22.49,22.49,0,0,0,6.57,15.87,22.24,22.24,0,0,0,15.86,6.56,22.43,22.43,0,1,0,0-44.86Zm12.4,34.93a17.62,17.62,0,0,1-24.8,0,17.46,17.46,0,0,1-5.1-12.41,17.83,17.83,0,0,1,5.1-12.4,17.43,17.43,0,0,1,12.4-5.1,17.8,17.8,0,0,1,12.4,5.1,17.46,17.46,0,0,1,5.11,12.4A17.1,17.1,0,0,1,75.08,80.49Z"/><circle class="cls-2" cx="95.14" cy="49.94" r="4.47"/></svg>