<svg id="Capa_1" data-name="Capa 1" xmlns="http://www.w3.org/2000/svg" viewBox="0 0 125 125"><defs><style>.cls-1{fill:none;}.cls-2{fill:#dc5555;}</style></defs><title>iconos</title><path class="cls-1" d="M27.45,81.31H97.09a7.37,7.37,0,0,0,7.37-7.37V38a7.38,7.38,0,0,0-7.37-7.38H27.45A7.38,7.38,0,0,0,20.08,38V73.94A7.37,7.37,0,0,0,27.45,81.31ZM74,53.34l19.36,8.35a.49.49,0,0,1,0,.9L87.86,65a.49.49,0,0,0-.15.8l5,5a.48.48,0,0,1,0,.71L89.81,74a.49.49,0,0,1-.68,0l-5-5.35a.5.5,0,0,0-.83.17l-2,5.65a.49.49,0,0,1-.92,0L72.5,54.81A1.14,1.14,0,0,1,74,53.34Z"/><path class="cls-2" d="M27.45,87.31H97.09a13.38,13.38,0,0,0,13.37-13.37V38A13.38,13.38,0,0,0,97.09,24.65H27.45A13.39,13.39,0,0,0,14.08,38V73.94A13.38,13.38,0,0,0,27.45,87.31ZM20.08,38a7.38,7.38,0,0,1,7.37-7.38H97.09A7.38,7.38,0,0,1,104.46,38V73.94a7.37,7.37,0,0,1-7.37,7.37H27.45a7.37,7.37,0,0,1-7.37-7.37Z"/><path class="cls-2" d="M111.44,87.91H14a2.32,2.32,0,0,0-2.32,2.32A5.78,5.78,0,0,0,17.46,96H108a5.78,5.78,0,0,0,5.77-5.78A2.32,2.32,0,0,0,111.44,87.91ZM73.29,93.76H53.5a1.8,1.8,0,1,1,0-3.6H73.29a1.8,1.8,0,0,1,0,3.6Z"/><path class="cls-2" d="M80.42,74.42a.49.49,0,0,0,.92,0l2-5.65a.5.5,0,0,1,.83-.17l5,5.35a.49.49,0,0,0,.68,0l2.84-2.49a.48.48,0,0,0,0-.71l-5-5a.49.49,0,0,1,.15-.8l5.5-2.4a.49.49,0,0,0,0-.9L74,53.34a1.14,1.14,0,0,0-1.5,1.47Z"/></svg>