<svg id="Capa_1" data-name="Capa 1" xmlns="http://www.w3.org/2000/svg" viewBox="0 0 125 125"><defs><style>.cls-1{fill:#dc5555;}</style></defs><title>iconos</title><path class="cls-1" d="M86.24,37.14H75.49A1.82,1.82,0,0,0,73.67,39V49.71a1.82,1.82,0,0,0,1.82,1.83h3.18v3.11A5.47,5.47,0,0,1,76,59.35L64.28,66.43V35.27h6.94a1.79,1.79,0,0,0,.93-.24,1.87,1.87,0,0,0,.62-2.56L63.82,17.86a1.78,1.78,0,0,0-3,0L51.85,32.47A1.86,1.86,0,0,0,52.47,35a1.77,1.77,0,0,0,.93.24h7.12V77.81l-9.76-5.54A5.5,5.5,0,0,1,48,67.48V64.65a9.42,9.42,0,0,0,7.1-12A9.1,9.1,0,0,0,49,46.49a9.4,9.4,0,1,0-4.73,18.16v3a9,9,0,0,0,4.65,7.9L60.52,82v4.4a9.42,9.42,0,0,0-7.1,12,9.1,9.1,0,0,0,6.12,6.15,9.4,9.4,0,1,0,4.74-18.16V70.83L78,62.54a9.19,9.19,0,0,0,4.41-7.83V51.54h3.81a1.82,1.82,0,0,0,1.82-1.83V39A1.82,1.82,0,0,0,86.24,37.14ZM46.09,60.93a5.48,5.48,0,1,1,5.48-5.48A5.49,5.49,0,0,1,46.09,60.93Zm10.6-29.42,5.83-9.34,5.84,9.34Zm27.62,16.9H76.8V40.9h7.51Z"/></svg>