<svg id="Capa_1" data-name="Capa 1" xmlns="http://www.w3.org/2000/svg" viewBox="0 0 125 125"><defs><style>.cls-1{fill:#dc5555;}</style></defs><title>iconos</title><path class="cls-1" d="M107.36,94.73H17.26A4.26,4.26,0,0,1,13,90.48V27.26A4.25,4.25,0,0,1,17.26,23h90.1a4.25,4.25,0,0,1,4.25,4.25V90.48A4.26,4.26,0,0,1,107.36,94.73ZM17.26,27a.25.25,0,0,0-.25.25V90.48a.25.25,0,0,0,.25.25h90.1a.25.25,0,0,0,.25-.25V27.26a.25.25,0,0,0-.25-.25Z"/><rect class="cls-1" x="13.94" y="78.76" width="96.75" height="15.05" rx="3.44"/><path class="cls-1" d="M89.18,113a2,2,0,0,1-.89-.21c-.12-.07-12.68-6.24-27.05-6.24a53.29,53.29,0,0,0-24.78,6.16,2,2,0,0,1-2.05-3.43,56.24,56.24,0,0,1,26.83-6.73,71.39,71.39,0,0,1,28.84,6.66,2,2,0,0,1-.9,3.79Z"/><path class="cls-1" d="M62.31,106.56a2,2,0,0,1-2-2V92.73a2,2,0,0,1,4,0v11.83A2,2,0,0,1,62.31,106.56Z"/></svg>