<?xml version="1.0" standalone="no"?>
<!DOCTYPE svg PUBLIC "-//W3C//DTD SVG 1.1//EN" "http://www.w3.org/Graphics/SVG/1.1/DTD/svg11.dtd" >
<svg>
<metadata>
Created by FontForge 20120731 at Mon Jul  1 06:32:08 2019
 By www
Copyright (c) 2016 by LatinoType. All rights reserved.
</metadata>
<defs>
<font id="BrandingW00-Bold" horiz-adv-x="0" >
  <font-face 
    font-family="BrandingW00-Bold"
    font-weight="700"
    font-stretch="normal"
    units-per-em="1000"
    panose-1="1 0 0 0 0 0 0 0 0 0"
    ascent="800"
    descent="-200"
    x-height="470"
    cap-height="647"
    bbox="-733 -242 1351 900"
    underline-thickness="50"
    underline-position="-75"
    unicode-range="U+0020-FB02"
  />
<missing-glyph horiz-adv-x="389" 
d="M194 90l-168 169l168 168l169 -168z" />
    <glyph glyph-name="uniFB01" unicode="fi" horiz-adv-x="584" 
d="M530 456v-456q-34 -6 -73 -6q-35 0 -76 6v353l-142 1v-354q-29 -6 -73 -6t-76 6v354h-61q-5 27 -5 50q0 25 5 53h61q2 39 15 77t40.5 67.5t70.5 47.5t102 18q39 0 82 -10t79 -35q-3 -29 -18.5 -60t-33.5 -43q-22 13 -43.5 20t-53.5 7q-91 0 -91 -86v-3z" />
    <glyph glyph-name="uniFB02" unicode="fl" horiz-adv-x="604" 
d="M348 667q110 0 202 -38v-629q-36 -6 -74 -6q-36 0 -77 6l-1 538q-33 5 -62 5q-94 0 -97 -82h88q7 -31 7 -58q0 -26 -7 -56h-88v-347q-28 -6 -72 -6q-45 0 -76 6v347h-61q-6 26 -6 56q0 31 6 59h61q5 100 72.5 152.5t184.5 52.5z" />
    <glyph glyph-name=".notdef" horiz-adv-x="389" 
d="M194 90l-168 169l168 168l169 -168z" />
    <glyph glyph-name=".null" 
 />
    <glyph glyph-name="nonmarkingreturn" horiz-adv-x="333" 
 />
    <glyph glyph-name="space" unicode=" " horiz-adv-x="205" 
 />
    <glyph glyph-name="exclam" unicode="!" horiz-adv-x="266" 
d="M132 193q-19 0 -42 5q-34 263 -34 440q36 15 75 15q41 0 80 -15q-1 -177 -35 -439q-21 -6 -44 -6zM132 -29q-33 0 -58 25t-25 59t25 58.5t58 24.5q34 0 59 -24.5t25 -58.5t-25 -59t-59 -25z" />
    <glyph glyph-name="quotedbl" unicode="&#x22;" horiz-adv-x="341" 
d="M98 436l-34 3l-29 219q24 10 60 10q33 0 60 -9l-29 -219q-12 -4 -28 -4zM249 436l-35 3l-28 219q24 10 60 10q33 0 60 -9l-29 -219q-12 -4 -28 -4z" />
    <glyph glyph-name="numbersign" unicode="#" horiz-adv-x="685" 
d="M617 343h-74l-40 -120h88q-1 -28 -11.5 -58.5t-28.5 -56.5h-86l-51 -155q-65 -12 -117 0l51 155h-127l-51 -155q-64 -12 -117 0l51 155h-78q2 68 40 115h76l40 120h-89q0 30 10.5 60.5t28.5 54.5h88l52 157q60 9 117 0l-52 -157h127l52 157q60 9 117 0l-52 -157h76
q-2 -60 -40 -115zM386 223l40 120h-127l-40 -120h127z" />
    <glyph glyph-name="dollar" unicode="$" horiz-adv-x="506" 
d="M476 221q0 -84 -42.5 -133t-119.5 -62v-87q-33 -7 -61 -7t-60 7v85q-44 6 -91.5 22t-81.5 44q4 34 22.5 63t45.5 44q28 -22 72.5 -38t91.5 -16q92 0 92 57q0 29 -26.5 43t-89.5 19q-51 5 -96.5 24.5t-70 57.5t-24.5 86q-1 69 40.5 116t115.5 63v95q27 7 61 7q29 0 60 -7
v-91q47 -5 85.5 -19t60.5 -30q-5 -28 -18 -59.5t-31 -50.5q-28 18 -69 29t-88 11q-42 0 -64.5 -12.5t-22.5 -35.5q0 -30 31.5 -41t91.5 -18q92 -11 139 -51.5t47 -114.5z" />
    <glyph glyph-name="percent" unicode="%" horiz-adv-x="762" 
d="M97 -47l446 687q53 11 102 0l-445 -687q-54 -7 -103 0zM185 338q-74 0 -116 43t-42 111t42 110.5t116 42.5q27 0 54.5 -7.5t50 -26t37 -48.5t14.5 -71q0 -68 -42 -111t-114 -43zM185 418q31 0 47 20.5t16 53.5t-16 53.5t-47 20.5q-32 0 -48.5 -20.5t-16.5 -53.5
t16.5 -53.5t48.5 -20.5zM577 -18q-74 0 -116 42.5t-42 111.5q0 68 42 110.5t116 42.5q73 0 115 -42.5t42 -110.5q0 -69 -42 -111.5t-115 -42.5zM577 62q31 0 47 20.5t16 53.5t-16 53t-47 20t-47.5 -20t-16.5 -53t16.5 -53.5t47.5 -20.5z" />
    <glyph glyph-name="ampersand" unicode="&#x26;" horiz-adv-x="626" 
d="M610 334q0 -33 -10 -57h-87v-225q-37 -29 -95 -47.5t-127 -18.5q-77 0 -133.5 22.5t-88 64.5t-31.5 105q0 29 9.5 61.5t34.5 59t60 41.5q-37 22 -57 57.5t-20 80.5q0 28 10 58.5t34.5 57t66 44.5t100.5 18q63 0 110 -15t76 -39q-3 -33 -20.5 -62.5t-42.5 -46.5
q-52 31 -109 31q-35 0 -56.5 -17.5t-21.5 -49.5q0 -66 95 -66h292q11 -21 11 -57zM378 132v145h-80q-103 -2 -103 -81q0 -36 26 -57.5t71 -21.5q49 0 86 15z" />
    <glyph glyph-name="quotesingle" unicode="'" horiz-adv-x="190" 
d="M98 436l-35 3l-28 219q24 10 60 10q33 0 59 -9l-28 -219q-12 -4 -28 -4z" />
    <glyph glyph-name="parenleft" unicode="(" horiz-adv-x="286" 
d="M155 -195q-119 206 -120 448q1 242 120 448q24 3 59.5 -9.5t46.5 -30.5q-89 -187 -90 -408q1 -221 90 -408q-18 -20 -49 -31t-57 -9z" />
    <glyph glyph-name="parenright" unicode=")" horiz-adv-x="287" 
d="M132 -195q-19 -1 -41 4.5t-38.5 15.5t-25.5 20q89 187 90 408q-1 218 -92 406q16 21 48.5 33t59.5 9q118 -205 119 -448q-1 -242 -120 -448z" />
    <glyph glyph-name="asterisk" unicode="*" horiz-adv-x="376" 
d="M252 549v-3l82 -34q-8 -60 -63 -88l-58 68l-7 -2l-7 -89q-61 -12 -103 33l47 77l-5 6l-89 -21q-29 53 0 108l90 -22l4 5l-48 79q41 46 103 34l7 -92l7 -1l59 68q55 -24 64 -87l-83 -34v-5z" />
    <glyph glyph-name="plus" unicode="+" horiz-adv-x="500" 
d="M464 290q11 -49 0 -98h-165v-165q-22 -6 -49 -6t-49 6v165h-165q-11 49 0 98h165v165q49 11 98 0v-165h165z" />
    <glyph glyph-name="comma" unicode="," horiz-adv-x="232" 
d="M82 -181q-15 0 -33.5 10.5t-24.5 23.5q32 63 32 151q0 54 -16 95q15 8 37.5 12.5t43.5 4.5q32 0 56 -11q10 -23 10 -72q0 -29 -11.5 -69t-38 -80.5t-55.5 -64.5z" />
    <glyph glyph-name="hyphen" unicode="-" horiz-adv-x="380" 
d="M60 198q-8 20 -8 52t8 55h260q7 -22 7 -54q0 -31 -7 -53h-260z" />
    <glyph glyph-name="period" unicode="." horiz-adv-x="257" 
d="M128 -19q-27 0 -51 16.5t-33.5 38.5t-9.5 40t9.5 40t33 38.5t51.5 16.5q38 0 66.5 -28.5t28.5 -66.5q0 -18 -9.5 -40t-33.5 -38.5t-52 -16.5z" />
    <glyph glyph-name="slash" unicode="/" horiz-adv-x="576" 
d="M80 -190q-27 0 -59 5l410 851q30 5 59 5q28 0 65 -5l-409 -851q-37 -5 -66 -5z" />
    <glyph glyph-name="zero" unicode="0" horiz-adv-x="638" 
d="M319 -16q-51 0 -94.5 14.5t-76 41.5t-55.5 64.5t-38.5 92t-15.5 127.5q0 74 18 136.5t53.5 108.5t88.5 71t120 25q68 0 121 -26t88.5 -72.5t53 -109t17.5 -133.5q0 -72 -18 -135t-53.5 -108.5t-89 -71t-119.5 -25.5zM319 114q125 0 125 210q0 204 -125 204t-125 -204
q0 -210 125 -210z" />
    <glyph glyph-name="one" unicode="1" horiz-adv-x="407" 
d="M273 659q34 0 59 -6v-653q-37 -6 -74 -6q-36 0 -74 6v485l-124 -51q-21 22 -36.5 56.5t-16.5 70.5l206 92q27 6 60 6z" />
    <glyph glyph-name="two" unicode="2" horiz-adv-x="553" 
d="M513 135q10 -28 10 -66q0 -39 -10 -69h-470q-7 25 -7 49q0 55 45 99q87 81 142.5 136t84 92t28.5 72q0 34 -20.5 54t-56.5 20q-29 0 -61 -13.5t-73 -51.5q-69 20 -98 91q25 38 66.5 66.5t87 39.5t83.5 11q48 0 90 -14t73 -41.5t48 -67.5t17 -90q0 -64 -47.5 -135
t-167.5 -168l-26 -18l31 3z" />
    <glyph glyph-name="three" unicode="3" horiz-adv-x="549" 
d="M51 648h438q7 -69 -30 -112l-111 -125q27 -5 56 -18t52.5 -34.5t38 -56.5t14.5 -81q0 -45 -14 -89t-47 -77.5t-83.5 -53t-117.5 -19.5q-37 0 -81 10t-81 31t-58 44q10 35 33.5 63.5t56.5 46.5q64 -62 130 -62q49 0 79 26t30 74q0 49 -31.5 74t-102.5 25h-70q-3 9 -3 17
q0 22 19 44l114 139h-231q-10 40 -10 70q2 36 10 64z" />
    <glyph glyph-name="four" unicode="4" horiz-adv-x="562" 
d="M544 183q0 -36 -7 -68h-78v-115q-33 -6 -67 -6q-35 0 -73 6v115h-278q-23 37 -23 79.5t23 98.5l162 378q80 -6 143 -45l-141 -338q-11 -22 -11 -40h125v155q38 6 73 6q34 0 67 -6v-155h79q6 -31 6 -65z" />
    <glyph glyph-name="five" unicode="5" horiz-adv-x="547" 
d="M244 -17q-35 0 -76.5 7.5t-76.5 24.5t-53 33q7 36 25.5 66.5t44.5 49.5q31 -25 69 -37.5t73 -12.5q42 0 68 15t34.5 37.5t8.5 43.5q0 40 -27.5 63.5t-80.5 23.5q-34 0 -86 -10.5t-69 -10.5q-28 0 -37 7v365h409q7 -32 7 -69q0 -32 -6 -64h-276v-101q33 11 78 11
q121 0 181 -55t60 -155q0 -109 -71 -170.5t-199 -61.5z" />
    <glyph glyph-name="six" unicode="6" horiz-adv-x="565" 
d="M334 415q92 0 147.5 -53.5t55.5 -148.5q0 -53 -18.5 -96t-51.5 -73t-79 -46t-98 -16q-61 0 -109 18.5t-80 53.5t-48 83.5t-16 107.5q0 103 44 193.5t137.5 155.5t214.5 85q18 -17 29 -55t13 -80q-108 -15 -173 -56t-94 -111q56 38 126 38zM293 108q34 0 59 13.5t34.5 37
t9.5 46.5q0 22 -10 44t-35 34.5t-56 12.5q-61 0 -111 -34l-1 -24q0 -61 31 -95.5t79 -34.5z" />
    <glyph glyph-name="seven" unicode="7" horiz-adv-x="503" 
d="M480 642q7 -15 7 -42q0 -24 -6.5 -52.5t-16.5 -47.5l-262 -530q-36 4 -72.5 20t-54.5 38l247 480h-297q-6 32 -6 68q0 33 6 66h455z" />
    <glyph glyph-name="eight" unicode="8" horiz-adv-x="575" 
d="M435 338q100 -61 100 -154q0 -53 -20.5 -92t-56 -63t-80.5 -35t-95 -11t-94 10t-77.5 30.5t-53 54.5t-19.5 80q0 26 10 58.5t34 63.5t54 55q-79 56 -80 141q-1 84 61.5 136.5t168.5 52.5q38 0 77.5 -8.5t77.5 -31.5t56.5 -59.5t18.5 -74.5q0 -90 -82 -153zM288 552
q-40 0 -64 -17.5t-24 -44.5q0 -21 18 -41t79 -47l27 -11q27 21 40.5 43t13.5 49q0 33 -25.5 51t-64.5 18zM289 95q48 0 75 17.5t27 53.5q0 16 -10 32.5t-35.5 31t-71.5 33.5l-34 16q-54 -50 -54 -108q0 -18 10 -36t35.5 -29t57.5 -11z" />
    <glyph glyph-name="nine" unicode="9" horiz-adv-x="568" 
d="M270 665q63 0 112 -23t81.5 -65.5t48.5 -101.5t16 -131q0 -96 -27 -166t-79 -113.5t-129.5 -63.5t-177.5 -20q-9 16 -14.5 39t-5.5 45q0 25 4 44q102 2 152 13.5t81 43t42 92.5q-25 -22 -54.5 -32t-70.5 -10q-49 0 -90.5 14t-71 41.5t-45.5 68.5t-16 92q0 50 18.5 93.5
t51.5 74.5t78 48t96 17zM169 436q0 -22 9.5 -45t34 -36.5t55.5 -13.5q63 0 112 29q-5 76 -33.5 118.5t-78.5 42.5q-20 0 -43 -8t-39.5 -31.5t-16.5 -55.5z" />
    <glyph glyph-name="colon" unicode=":" horiz-adv-x="279" 
d="M140 291q-38 0 -66 28t-28 66q0 18 9.5 40t33 38.5t51.5 16.5q38 0 66 -28.5t28 -66.5q0 -18 -9.5 -40t-33 -38t-51.5 -16zM140 -22q-28 0 -51.5 16.5t-33 38.5t-9.5 40q0 38 28 66t66 28q18 0 40 -9.5t38 -33t16 -51.5q0 -38 -28 -66.5t-66 -28.5z" />
    <glyph glyph-name="semicolon" unicode=";" horiz-adv-x="277" 
d="M136 287q-38 0 -66.5 28.5t-28.5 67.5q0 18 9.5 40t33.5 38.5t52 16.5q18 0 40.5 -9.5t39 -33.5t16.5 -52q0 -18 -9.5 -40.5t-34 -39t-52.5 -16.5zM109 -181q-14 0 -32.5 10t-24.5 24q32 65 32 151q0 50 -16 95q14 8 37 12.5t44 4.5q31 0 55 -11q10 -20 10 -72
q0 -29 -11.5 -69t-38 -80.5t-55.5 -64.5z" />
    <glyph glyph-name="less" unicode="&#x3c;" horiz-adv-x="573" 
d="M174 226l358 -116q0 -67 -39 -117l-455 169q-9 39 -9 76q0 43 8 76l453 158q17 -24 27.5 -58t11.5 -68l-355 -100l-37 -9z" />
    <glyph glyph-name="equal" unicode="=" horiz-adv-x="548" 
d="M60 282q-5 27 -5 49t5 49h428q4 -21 4 -49t-4 -49h-428zM60 83q-5 27 -5 49t5 49h428q4 -21 4 -49t-4 -49h-428z" />
    <glyph glyph-name="greater" unicode="&#x3e;" horiz-adv-x="573" 
d="M536 314q8 -33 8 -76q0 -37 -9 -76l-454 -169q-40 51 -40 117l358 116l37 11l-37 9l-355 100q1 34 11.5 68t27.5 58z" />
    <glyph glyph-name="question" unicode="?" horiz-adv-x="431" 
d="M177 168q-24 0 -36 3q-26 100 -26 165h5q64 0 99 28t35 72q0 40 -25.5 64t-66.5 24q-44 0 -84 -22q-46 38 -53 108q28 20 67 31.5t80 11.5q49 0 91.5 -14t73 -40t47 -64.5t16.5 -85.5q0 -77 -46.5 -131t-122.5 -76l-16 -71q-18 -3 -38 -3zM178 -29q-33 0 -58 25t-25 59
t25 58.5t58 24.5q34 0 59 -24.5t25 -58.5t-25 -59t-59 -25z" />
    <glyph glyph-name="at" unicode="@" horiz-adv-x="892" 
d="M450 657q86 0 160 -26t128 -76t84 -122.5t30 -160.5q0 -77 -23 -127.5t-62.5 -76.5t-96.5 -26q-48 0 -76.5 15.5t-55.5 47.5q-19 -17 -45.5 -29t-74.5 -12q-85 0 -135.5 53t-50.5 145q0 44 16 82.5t45.5 67t71 44t89.5 15.5q103 0 173 -41v-227q0 -54 51 -54q57 0 57 123
q0 54 -20 104.5t-58 89t-91 60.5t-116 22q-59 0 -113 -19t-94.5 -56t-64 -92.5t-23.5 -124.5q0 -60 22 -111.5t59.5 -87.5t85.5 -55.5t97 -19.5q72 0 132 28q6 -4 14.5 -18.5t16.5 -38.5t8 -44q-30 -15 -76.5 -25.5t-94.5 -10.5q-78 0 -148.5 26.5t-123.5 76.5t-82.5 121.5
t-29.5 157.5q0 69 20.5 134t70.5 126t135.5 101.5t188.5 40.5zM357 266q0 -22 8 -45t28 -37t45 -14q38 0 65 22v164q-27 8 -51 8q-19 0 -41.5 -9t-38 -33t-15.5 -56z" />
    <glyph glyph-name="A" unicode="A" horiz-adv-x="628" 
d="M389 642l238 -635q-53 -12 -96 -12q-27 0 -55 5l-46 127h-238l-46 -127q-29 -4 -68 -4q-49 0 -79 11l240 635q30 6 77 6q43 0 73 -6zM238 251h146l-54 148l-20 62l-18 -62z" />
    <glyph glyph-name="B" unicode="B" horiz-adv-x="587" 
d="M446 328q38 -14 64.5 -38.5t36.5 -54.5t10 -57q0 -93 -68.5 -144.5t-210.5 -51.5q-117 0 -212 18v631q97 20 208 20q255 0 255 -184q0 -102 -83 -139zM285 531q-32 0 -70 -3v-145h76q48 0 70 19.5t22 57.5q0 33 -25 52t-73 19zM293 102q113 0 113 84q0 38 -27.5 59
t-79.5 21h-84v-161q38 -3 78 -3z" />
    <glyph glyph-name="C" unicode="C" horiz-adv-x="591" 
d="M363 -18q-74 0 -136 24.5t-105.5 70t-66.5 108.5t-23 136t24.5 136.5t70 109.5t108 71t134.5 25q63 0 113.5 -17t84.5 -45q-5 -34 -27.5 -67t-53.5 -50q-53 37 -113 37q-81 0 -130 -53.5t-49 -146.5q0 -90 48.5 -144.5t126.5 -54.5q33 0 65.5 9t63.5 36
q35 -20 54.5 -48.5t26.5 -71.5q-80 -65 -216 -65z" />
    <glyph glyph-name="D" unicode="D" horiz-adv-x="673" 
d="M273 655q86 0 155.5 -23.5t116.5 -66.5t71.5 -104t24.5 -133q0 -77 -26 -140.5t-74 -108t-116 -68t-149 -23.5q-114 0 -210 13v638q92 16 207 16zM284 127q91 0 142 54t51 145q0 87 -51.5 138t-145.5 51q-41 0 -64 -2v-384z" />
    <glyph glyph-name="E" unicode="E" horiz-adv-x="543" 
d="M501 133q7 -31 7 -66q0 -36 -7 -67h-434v642h424q8 -28 8 -67q0 -37 -8 -66h-275v-116h245q7 -31 7 -66q0 -34 -7 -65h-245v-129h285z" />
    <glyph glyph-name="F" unicode="F" horiz-adv-x="518" 
d="M486 507h-270v-149h241q6 -26 6 -66t-6 -66h-241v-226q-44 -7 -75 -7q-30 0 -74 7v642h419q7 -31 7 -67t-7 -68z" />
    <glyph glyph-name="G" unicode="G" horiz-adv-x="647" 
d="M352 374h251v-341q-98 -52 -230 -52q-77 0 -141 23.5t-108.5 68t-68 107.5t-23.5 139q0 75 24.5 139t70.5 110t110 70.5t139 24.5q63 0 116.5 -15.5t88.5 -39.5q-5 -38 -25.5 -72t-50.5 -52q-55 36 -131 36q-82 0 -131 -52.5t-49 -146.5t45.5 -147t133.5 -53q49 0 84 8
v108h-105q-6 29 -6 70t6 67z" />
    <glyph glyph-name="H" unicode="H" horiz-adv-x="684" 
d="M542 647q36 0 76 -6v-641q-36 -6 -73 -6q-36 0 -77 6v256h-252v-256q-36 -6 -74 -6q-36 0 -75 6v641q35 6 72 6t77 -6v-248h252v248q36 6 74 6z" />
    <glyph glyph-name="I" unicode="I" horiz-adv-x="282" 
d="M143 -6q-37 0 -76 6v641q29 6 73 6t76 -6v-641q-36 -6 -73 -6z" />
    <glyph glyph-name="J" unicode="J" horiz-adv-x="424" 
d="M154 -27q-48 0 -89 16t-62 37q2 37 22 70.5t49 49.5q33 -33 73 -33q66 0 66 68v460q35 6 74 6q36 0 76 -6v-457q0 -95 -56 -153t-153 -58z" />
    <glyph glyph-name="K" unicode="K" horiz-adv-x="635" 
d="M377 342l273 -336q-48 -8 -113 -8l-79 2l-197 246l-45 -33v-213q-36 -6 -74 -6q-36 0 -75 6v641q35 6 72 6t77 -6v-260q71 58 122 118t104 145q35 3 75 3q54 0 100 -6q-102 -170 -240 -299z" />
    <glyph glyph-name="L" unicode="L" horiz-adv-x="500" 
d="M480 134q7 -32 7 -67q0 -36 -7 -67h-413v642q44 7 74 7q31 0 75 -7v-508h264z" />
    <glyph glyph-name="M" unicode="M" horiz-adv-x="799" 
d="M657 647q38 0 76 -7v-640q-37 -6 -68 -6q-29 0 -70 6v310l5 94l-25 -73l-110 -277q-31 -4 -62 -4q-30 0 -63 4l-116 278l-23 61l4 -83v-310q-36 -6 -70 -6q-29 0 -68 6v639q30 8 75 8q39 0 81 -6l173 -396l12 -32l10 32l160 396q44 6 79 6z" />
    <glyph glyph-name="N" unicode="N" horiz-adv-x="689" 
d="M547 647q36 0 76 -6v-638q-69 -13 -143 -8l-248 365l-21 38l4 -46v-352q-39 -6 -75 -6q-31 0 -73 6v636q27 9 69 11.5t74 -1.5l247 -373l22 -39l-4 51v356q41 6 72 6z" />
    <glyph glyph-name="O" unicode="O" horiz-adv-x="736" 
d="M368 -18q-72 0 -134 24.5t-107.5 69.5t-70.5 108.5t-25 137.5q0 73 25 136.5t70.5 109t107.5 70.5t134 25t134.5 -24.5t107.5 -69.5t70 -108.5t25 -138.5q0 -72 -25 -135.5t-70.5 -109t-108 -70.5t-133.5 -25zM368 123q79 0 127 54.5t48 144.5q0 92 -48 146t-127 54
t-127 -54t-48 -146q0 -90 48 -144.5t127 -54.5z" />
    <glyph glyph-name="P" unicode="P" horiz-adv-x="588" 
d="M279 659q75 0 131 -16t90.5 -45t51 -70t16.5 -92q0 -56 -20 -101.5t-57 -76t-89.5 -46.5t-115.5 -16l-70 1v-197q-29 -6 -74 -6q-44 0 -76 6v637q102 22 213 22zM286 325q33 0 63.5 10t48 37t17.5 62q0 46 -33 72t-97 26q-36 0 -69 -3v-203z" />
    <glyph glyph-name="Q" unicode="Q" horiz-adv-x="736" 
d="M570 43q53 -23 91.5 -59.5t55.5 -79.5q-37 -43 -130 -71q-36 68 -93.5 108.5t-131.5 40.5q-71 1 -132 26t-105.5 70t-69 108t-24.5 136t25 136.5t70.5 109t107.5 70.5t134 25t134.5 -24.5t107.5 -69.5t70 -108.5t25 -138.5q0 -88 -35.5 -161t-99.5 -118zM193 322
q0 -90 48 -144.5t127 -54.5t127 54.5t48 144.5q0 92 -48 146t-127 54t-127 -54t-48 -146z" />
    <glyph glyph-name="R" unicode="R" horiz-adv-x="606" 
d="M442 254l150 -247q-44 -12 -126 -12l-38 1l-132 225h-7l-73 1v-222q-29 -6 -74 -6q-44 0 -76 6v632q44 9 105 15t111 6q52 0 102.5 -9.5t88.5 -33.5t60.5 -64t22.5 -99q0 -32 -10 -69.5t-37.5 -70.5t-66.5 -53zM216 524v-179l79 -1q55 0 82 26.5t27 67.5t-28 65t-82 24
q-39 0 -78 -3z" />
    <glyph glyph-name="S" unicode="S" horiz-adv-x="557" 
d="M275 -16q-47 0 -95 9t-88.5 28t-66.5 42q4 38 22.5 70t46.5 49q33 -27 82 -44t102 -17q51 0 75.5 15.5t24.5 42.5q0 26 -23.5 43t-105.5 38q-109 26 -156 72.5t-48 124.5q0 33 11.5 68t44.5 68.5t84.5 49.5t105.5 16q57 0 117.5 -15.5t105.5 -50.5q-2 -35 -21 -69.5
t-48 -51.5q-31 22 -73 36t-91 14q-42 0 -66.5 -14.5t-24.5 -37.5q0 -12 6 -24t32.5 -23.5t90.5 -26.5q111 -28 157 -76.5t47 -119.5q1 -64 -22.5 -106t-55 -63.5t-72.5 -34t-98 -12.5z" />
    <glyph glyph-name="T" unicode="T" horiz-adv-x="554" 
d="M542 576q0 -36 -8 -67h-182v-509q-35 -7 -75 -7q-39 0 -74 7v509h-183q-7 31 -7 66q0 36 7 67h514q8 -29 8 -66z" />
    <glyph glyph-name="U" unicode="U" horiz-adv-x="671" 
d="M337 -18q-62 0 -114 17.5t-88.5 52.5t-56 87t-19.5 118v384q36 6 74 6q37 0 76 -6v-382q0 -65 34 -101.5t95 -36.5q60 0 94 36.5t34 101.5v382q35 6 71 6t75 -6v-380q0 -65 -20 -117.5t-57 -88.5t-88 -54.5t-110 -18.5z" />
    <glyph glyph-name="V" unicode="V" horiz-adv-x="625" 
d="M503 648q28 0 65 -3t49 -8q-70 -321 -226 -635q-30 -6 -76 -6q-45 0 -81 6q-151 305 -227 635q53 12 113 12q28 0 50 -3q27 -130 67 -261t83 -244q93 250 142 505q12 2 41 2z" />
    <glyph glyph-name="W" unicode="W" horiz-adv-x="957" 
d="M833 648q28 0 64.5 -3t48.5 -8q-40 -182 -84.5 -337.5t-103.5 -297.5q-34 -7 -79 -7q-43 0 -82 7l-102 345l-13 64l-13 -65l-106 -344q-38 -7 -79 -7q-36 0 -87 7q-118 283 -183 635q57 12 117 12q27 0 48 -3q15 -112 42 -238.5t65 -247.5l16 73l106 366q35 7 76 7t76 -7
l106 -366l17 -76q75 248 110 489z" />
    <glyph glyph-name="X" unicode="X" horiz-adv-x="622" 
d="M412 319l213 -315q-49 -9 -104 -9q-41 0 -72 4l-143 223l-137 -223q-29 -4 -69 -4q-58 0 -102 9l215 321l-205 314q58 11 115 11q24 0 64 -4l132 -222l122 222q40 4 61 4q52 0 109 -10z" />
    <glyph glyph-name="Y" unicode="Y" horiz-adv-x="617" 
d="M617 639l-235 -405v-234q-34 -6 -73 -6q-35 0 -76 6v244l-236 395q58 10 106 10q40 0 68 -4l121 -214l22 -49l22 49l120 214q28 4 65 4q43 0 96 -10z" />
    <glyph glyph-name="Z" unicode="Z" horiz-adv-x="581" 
d="M549 133q7 -32 7 -66q0 -35 -7 -67h-514q-6 17 -6 40q0 20 9 43.5t23 42.5l259 356l20 28l-304 -1q-7 31 -7 66q0 36 7 67h505q6 -16 6 -41q0 -19 -9 -42t-23 -44l-253 -348l-28 -34h315z" />
    <glyph glyph-name="bracketleft" unicode="[" horiz-adv-x="318" 
d="M192 -89h98q12 -53 0 -107h-220v898h220q6 -18 6 -53.5t-6 -53.5h-98v-684z" />
    <glyph glyph-name="backslash" unicode="\" horiz-adv-x="573" 
d="M494 -190q-29 0 -66 5l-406 841q37 5 64 5q28 0 60 -5l406 -841q-32 -5 -58 -5z" />
    <glyph glyph-name="bracketright" unicode="]" horiz-adv-x="318" 
d="M28 702h220v-898h-220q-6 18 -6 53.5t6 53.5h97v684h-97q-12 54 0 107z" />
    <glyph glyph-name="asciicircum" unicode="^" horiz-adv-x="587" 
d="M146 291q-70 15 -113 66l193 334q32 6 67.5 6t67.5 -6l193 -334q-40 -51 -113 -66l-147 253z" />
    <glyph glyph-name="underscore" unicode="_" horiz-adv-x="444" 
d="M8 -126q-8 19 -8 47q0 30 8 51h430q6 -24 6 -50q0 -25 -6 -48h-430z" />
    <glyph glyph-name="grave" unicode="`" horiz-adv-x="303" 
d="M238 515l-214 106q18 82 80 115l176 -161q-5 -18 -16 -34t-26 -26z" />
    <glyph glyph-name="a" unicode="a" horiz-adv-x="521" 
d="M247 488q80 0 131 -25.5t76.5 -70.5t25.5 -112v-249q-115 -47 -240 -47q-103 0 -159 39.5t-56 116.5q0 27 10 54t35 48.5t65 34.5t97 13q60 -2 100 -14v19q0 32 -24 51t-74 19q-38 0 -73 -12.5t-56 -28.5q-24 14 -41.5 38.5t-22.5 56.5q18 16 53.5 34t76.5 26.5t76 8.5z
M174 146q0 -26 22.5 -42t63.5 -16q34 0 72 11v87q-38 11 -82 11q-36 0 -56 -13t-20 -38z" />
    <glyph glyph-name="b" unicode="b" horiz-adv-x="572" 
d="M282 488q55 0 103 -16t83.5 -47.5t55 -78t19.5 -104.5q0 -59 -19.5 -107.5t-56.5 -82t-89.5 -51t-115.5 -17.5q-58 0 -113.5 12t-96.5 34v627q30 6 74 6q45 0 75 -6v-181q35 12 81 12zM272 110q56 0 88.5 34.5t32.5 91.5q0 25 -10 54t-38.5 49.5t-72.5 20.5
q-38 0 -71 -12v-227q36 -11 71 -11z" />
    <glyph glyph-name="c" unicode="c" horiz-adv-x="474" 
d="M290 -17q-121 0 -191 67t-70 186q0 57 19.5 104.5t54 81t82 51.5t101.5 18q50 0 96 -16t69 -37q-7 -29 -28.5 -58.5t-48.5 -46.5q-37 33 -84 33q-52 0 -81.5 -36t-29.5 -92t29 -93t83 -37q24 0 46.5 7t45.5 28q57 -28 76 -98q-29 -26 -72.5 -44t-96.5 -18z" />
    <glyph glyph-name="d" unicode="d" horiz-adv-x="572" 
d="M445 663q38 0 75 -6v-627q-40 -20 -98 -33.5t-116 -13.5q-47 0 -95.5 11t-93.5 43t-66.5 85t-21.5 112q0 42 12 80t33.5 68.5t51 52.5t72 37.5t96.5 15.5q44 0 77 -9v178q38 6 74 6zM301 110q13 0 35 3t35 6v228q-28 14 -68 14q-54 0 -89 -34t-35 -91q0 -26 11.5 -56
t41.5 -50t69 -20z" />
    <glyph glyph-name="e" unicode="e" horiz-adv-x="533" 
d="M502 270q0 -40 -5 -70h-316q13 -97 117 -97q31 0 63.5 10t76.5 38q22 -17 36.5 -45t17.5 -56q-88 -67 -210 -67q-54 0 -101 17t-81 49t-52.5 79t-18.5 105q0 54 18.5 101.5t52.5 82t79.5 53t97.5 18.5q49 0 91 -15.5t72 -44t46 -69.5t16 -89zM181 284h180q0 27 -11 49
t-31 31.5t-41 10.5q-41 0 -66.5 -25t-30.5 -66z" />
    <glyph glyph-name="f" unicode="f" horiz-adv-x="362" 
d="M293 667q31 0 66 -8t63 -27q-2 -29 -19.5 -59.5t-38.5 -44.5q-27 17 -61 17q-62 0 -62 -65v-15h104q7 -33 7 -61t-7 -61h-104v-343q-29 -6 -73 -6q-45 0 -76 6v344h-62q-6 26 -6 59q0 34 6 62h62q3 98 58 150t143 52z" />
    <glyph glyph-name="g" unicode="g" horiz-adv-x="564" 
d="M294 491q64 0 122 -19.5t97 -49.5v-393q0 -42 -12.5 -84t-42.5 -74.5t-78.5 -52.5t-115.5 -20q-59 0 -109 15t-79.5 35.5t-45.5 38.5q5 29 26.5 56t54.5 38q57 -65 145 -65q27 0 53 8t40.5 28.5t14.5 49.5v17q-36 -11 -81 -11q-52 0 -98.5 15t-81.5 44.5t-55 73.5t-20 99
q0 58 21 105t57.5 79.5t85 49.5t102.5 17zM297 128q37 0 67 12v212q-34 13 -67 13q-50 0 -84.5 -32.5t-34.5 -86.5q0 -25 11 -53t40.5 -46.5t67.5 -18.5z" />
    <glyph glyph-name="h" unicode="h" horiz-adv-x="569" 
d="M305 491q38 0 76.5 -9.5t69.5 -32.5t50.5 -60t19.5 -87v-302q-37 -6 -75 -6q-36 0 -74 6v264q0 92 -88 92q-42 0 -81 -22v-334q-36 -6 -74 -6q-35 0 -76 6v655q36 6 74 6q36 0 76 -6v-184q48 20 102 20z" />
    <glyph glyph-name="i" unicode="i" horiz-adv-x="256" 
d="M129 536q-36 0 -63 27t-27 63q0 17 9 38t31.5 36t49.5 15q36 0 63 -26.5t27 -62.5t-27 -63t-63 -27zM128 -6q-36 0 -74 6v475q36 6 74 6q36 0 75 -6v-475q-36 -6 -75 -6z" />
    <glyph glyph-name="j" unicode="j" horiz-adv-x="266" 
d="M137 535q-36 0 -63 27t-27 63q0 17 9 38t31.5 36t49.5 15q36 0 63 -26.5t27 -62.5t-27 -63t-63 -27zM23 -199q-40 0 -73 10.5t-52 27.5q2 27 19.5 57.5t42.5 46.5q22 -18 47 -18q56 0 56 68v481q29 6 73 6q45 0 76 -6v-475q0 -59 -21.5 -102t-64 -69.5t-103.5 -26.5z" />
    <glyph glyph-name="k" unicode="k" horiz-adv-x="546" 
d="M351 236l205 -231q-13 -5 -45 -8.5t-64 -3.5q-49 0 -76 3l-138 157l-31 -15v-138q-34 -6 -73 -6q-35 0 -76 6v655q36 6 73 6t76 -6v-361q48 31 89.5 77.5t69.5 99.5q25 3 73 3q56 0 97 -7q-79 -140 -180 -231z" />
    <glyph glyph-name="l" unicode="l" horiz-adv-x="258" 
d="M130 -6q-37 0 -76 6v655q35 6 73 6t77 -6v-655q-34 -6 -74 -6z" />
    <glyph glyph-name="m" unicode="m" horiz-adv-x="871" 
d="M603 491q40 0 80 -9.5t71 -32.5t50 -60.5t19 -89.5v-299q-37 -6 -75 -6q-37 0 -75 6v266q0 44 -21.5 67t-62.5 23q-43 0 -80 -27l2 -30v-299q-37 -6 -75 -6t-74 6v266q0 44 -22 67t-63 23q-44 0 -77 -20v-336q-37 -6 -75 -6q-36 0 -74 6v412q23 19 64.5 39.5t89 30
t86.5 9.5q97 0 155 -45q31 20 72 32.5t85 12.5z" />
    <glyph glyph-name="n" unicode="n" horiz-adv-x="568" 
d="M291 491q57 0 101 -15t72 -42t42 -64.5t14 -81.5v-288q-37 -6 -75 -6q-37 0 -75 6v264q0 23 -8 45.5t-30 34.5t-52 12q-10 0 -33.5 -3.5t-46.5 -16.5v-336q-37 -6 -75 -6q-36 0 -74 6v412q23 21 64.5 41t89 29t86.5 9z" />
    <glyph glyph-name="o" unicode="o" horiz-adv-x="577" 
d="M288 -16q-56 0 -103.5 17.5t-82.5 50.5t-54 80.5t-19 104.5q0 56 19.5 103t54.5 81t83.5 52t103.5 18t103 -18t83 -51.5t54 -81t19 -103.5q0 -55 -19.5 -102.5t-54.5 -81t-83.5 -51.5t-103.5 -18zM289 108q51 0 80.5 35.5t29.5 93.5t-29.5 93.5t-80.5 35.5t-81 -35.5
t-30 -93.5t30 -93.5t81 -35.5z" />
    <glyph glyph-name="p" unicode="p" horiz-adv-x="570" 
d="M278 488q56 0 104.5 -15.5t84 -46.5t55 -78.5t19.5 -108.5q0 -58 -20.5 -106t-56.5 -81.5t-83.5 -51t-99.5 -17.5q-46 0 -81 9v-176q-37 -6 -75 -6q-36 0 -74 6v599q41 32 99.5 52.5t127.5 20.5zM269 113q26 0 54.5 10t48 40t19.5 72q0 41 -19.5 70.5t-49 40t-55.5 10.5
q-35 0 -67 -13v-218q26 -12 69 -12z" />
    <glyph glyph-name="q" unicode="q" horiz-adv-x="570" 
d="M299 488q68 0 126 -19.5t94 -49.5v-603q-37 -6 -74 -6t-75 6v177q-34 -9 -77 -9q-55 0 -103.5 15.5t-84.5 46.5t-56.5 77.5t-20.5 104.5q0 61 21.5 110.5t59 82.5t87 50t103.5 17zM300 113q39 0 70 11v220q-36 15 -69 15q-54 0 -88.5 -33.5t-34.5 -91.5q0 -55 35 -88
t87 -33z" />
    <glyph glyph-name="r" unicode="r" horiz-adv-x="376" 
d="M262 490q66 0 110 -14q-2 -78 -42 -129q-25 7 -57 7q-45 0 -73 -14v-340q-36 -6 -75 -6q-36 0 -74 6v417q21 19 57 37.5t77.5 27t76.5 8.5z" />
    <glyph glyph-name="s" unicode="s" horiz-adv-x="480" 
d="M235 -17q-72 0 -127 18.5t-83 41.5q6 34 21.5 60t37.5 40q76 -48 156 -48q32 0 47 10.5t15 27.5q0 14 -16 26.5t-87 25.5q-50 10 -84.5 26.5t-55 46.5t-20.5 76q0 71 59 112.5t150 41.5q51 0 103 -10t90 -34q-9 -70 -52 -104q-26 15 -64 25t-75 10q-69 0 -69 -34
q0 -13 13.5 -23.5t82.5 -23.5q93 -16 133 -51.5t40 -98.5q0 -75 -56 -118t-159 -43z" />
    <glyph glyph-name="t" unicode="t" horiz-adv-x="448" 
d="M382 140q22 -13 40 -43t22 -59q-67 -53 -154 -53q-64 0 -106 19.5t-63.5 55t-21.5 87.5v198h-81q-5 32 -5 62q0 27 5 60h81v125q39 6 76 6q38 0 72 -6v-125h166q7 -33 7 -59t-7 -63h-166v-161q0 -38 17.5 -55t51.5 -17t66 28z" />
    <glyph glyph-name="u" unicode="u" horiz-adv-x="563" 
d="M437 476q38 0 75 -6v-432q-36 -20 -98.5 -37.5t-137.5 -17.5q-44 0 -86 9t-73.5 31.5t-50 59.5t-18.5 93v294q38 6 75 6q38 0 74 -6v-261q0 -50 20 -73t71 -23q44 0 75 15v342q38 6 74 6z" />
    <glyph glyph-name="v" unicode="v" horiz-adv-x="523" 
d="M417 477q52 0 98 -11q-33 -141 -75.5 -253t-103.5 -213q-34 -7 -73 -7t-74 7q-50 78 -86 160.5t-58 160.5t-37 145q17 4 49 7.5t58 3.5q31 0 55 -3q14 -71 38.5 -165.5t50.5 -160.5l6 -23l6 23q46 115 88 326q26 3 58 3z" />
    <glyph glyph-name="w" unicode="w" horiz-adv-x="772" 
d="M671 477q47 0 93 -11q-32 -143 -71.5 -254.5t-97.5 -211.5q-34 -7 -74 -7q-37 0 -71 7q-37 62 -68 143q-20 -76 -52 -143q-34 -7 -75 -7q-40 0 -72 7q-50 77 -92.5 179.5t-80.5 286.5q16 4 47 7.5t56 3.5l61 -3q16 -102 40.5 -199.5t44.5 -146.5l5 -21q2 15 5 22
q14 35 29 86.5t25 104.5q-16 58 -34 146q15 4 46 7.5t56 3.5l52 -3q15 -101 37 -197.5t39 -148.5l5 -25q1 13 6 25q19 53 40 146t38 200z" />
    <glyph glyph-name="x" unicode="x" horiz-adv-x="529" 
d="M354 236l174 -234q-5 -3 -34 -5.5t-60 -2.5q-46 0 -74 4l-100 146l-92 -146q-34 -4 -70 -4q-61 0 -92 8l167 235l-164 228q12 5 46.5 9t68.5 4q28 0 49 -3l94 -145l89 145q27 3 54 3q22 0 56 -3.5t50 -9.5z" />
    <glyph glyph-name="y" unicode="y" horiz-adv-x="531" 
d="M423 477q50 0 96 -12q-31 -229 -122 -397.5t-249 -281.5q-32 11 -55.5 40t-33.5 63q90 71 130 126q-68 106 -108.5 211t-69.5 240q18 4 50 7.5t59 3.5q31 0 56 -3q12 -75 36.5 -162.5t55.5 -160.5l10 -27q3 16 8 27q53 123 78 323q29 3 59 3z" />
    <glyph glyph-name="z" unicode="z" horiz-adv-x="479" 
d="M446 120q10 -26 10 -59t-10 -61h-412q-6 17 -6 35q0 44 29 79l181 206l27 30h-225q-8 26 -8 62q0 32 8 58h396q5 -15 5 -34q0 -25 -8 -48.5t-20 -38.5l-167 -203l-24 -26h224z" />
    <glyph glyph-name="braceleft" unicode="{" horiz-adv-x="361" 
d="M300 -89h35q10 -53 0 -107h-80q-28 0 -54.5 8t-49 30t-31.5 55t-9 62v170q0 33 -15 48.5t-47 15.5h-35q-10 30 -10 62q0 42 10 65h49q25 0 36.5 14t11.5 43v170q0 29 8 58.5t25.5 51t45.5 33.5t65 12h80q10 -53 0 -107h-35q-32 0 -47 -11.5t-15 -36.5v-184
q0 -34 -14.5 -62.5t-43.5 -47.5q29 -19 43.5 -47.5t14.5 -62.5v-184q0 -25 15 -36.5t47 -11.5z" />
    <glyph glyph-name="bar" unicode="|" horiz-adv-x="238" 
d="M69 -183v888q21 6 50 6t50 -6v-888q-19 -8 -49.5 -8t-50.5 8z" />
    <glyph glyph-name="braceright" unicode="}" horiz-adv-x="361" 
d="M347 320q5 -11 8 -30t3 -35q0 -29 -11 -62h-35q-32 0 -47 -15.5t-15 -48.5v-170q0 -29 -8 -58.5t-25.5 -51t-45.5 -33.5t-65 -12h-79q-10 54 0 107h35q32 0 47 11.5t15 36.5v184q0 73 58 110q-58 37 -58 110v184q0 25 -15 36.5t-47 11.5h-35q-10 54 0 107h79
q28 0 54.5 -8t49 -30t31.5 -55t9 -62v-170q0 -29 11.5 -43t36.5 -14h49z" />
    <glyph glyph-name="asciitilde" unicode="~" horiz-adv-x="556" 
d="M147 149q-23 1 -53.5 11t-51.5 29q17 57 59 90t95 33q33 0 83.5 -18t70.5 -18q19 0 35 12t23 32q27 -1 56.5 -11.5t48.5 -29.5q-7 -26 -25.5 -54.5t-53.5 -47t-72 -18.5q-22 0 -44 5t-58.5 18t-52.5 13q-38 0 -60 -46z" />
    <glyph glyph-name="uni00A0" unicode="&#xa0;" horiz-adv-x="205" 
 />
    <glyph glyph-name="exclamdown" unicode="&#xa1;" horiz-adv-x="256" 
d="M128 342q-34 0 -58.5 24.5t-24.5 58.5t24.5 59t58.5 25q33 0 58.5 -25t25.5 -59t-25 -58.5t-59 -24.5zM130 -172q-40 0 -80 14q0 79 7 176.5t28 262.5q20 6 44 6t41 -5q15 -117 25 -224.5t10 -214.5q-36 -15 -75 -15z" />
    <glyph glyph-name="cent" unicode="&#xa2;" horiz-adv-x="502" 
d="M388 231q30 -14 51 -38.5t30 -55.5q-50 -56 -133 -69v-97q-25 -7 -60 -7t-62 7v102q-84 19 -133 81t-49 157q0 91 49.5 153.5t132.5 82.5v102q33 7 62 7t60 -7v-97q45 -7 79.5 -27t55.5 -45q-10 -27 -35 -50.5t-58 -37.5q-32 40 -85 40q-54 0 -82.5 -34t-28.5 -87
t28.5 -87.5t82.5 -34.5q25 0 48 8.5t47 33.5z" />
    <glyph glyph-name="sterling" unicode="&#xa3;" horiz-adv-x="575" 
d="M532 137q7 -32 7 -68q0 -37 -7 -69h-464q0 18 3.5 45t22.5 75t24 74.5t5 53.5v11h-83q-8 26 -8 52q0 25 8 51h67q-11 42 -11 84t17 81.5t49.5 69.5t79 47.5t101.5 17.5q114 0 193 -58q-14 -84 -72 -122q-47 38 -115 38q-48 0 -76 -25t-28 -65q0 -34 9 -68h135
q8 -26 8 -52q0 -30 -8 -51h-117v-13q0 -22 -8.5 -55t-18.5 -54h287z" />
    <glyph glyph-name="currency" unicode="&#xa4;" horiz-adv-x="624" 
d="M563 326q0 -34 -10 -69t-27 -62l54 -54q-14 -26 -39.5 -51.5t-51.5 -38.5l-55 55q-25 -14 -58 -22.5t-64 -8.5t-64 8.5t-58 22.5l-55 -55q-28 14 -52.5 38.5t-38.5 51.5l54 54q-17 27 -27 62t-10 69t10 69t27 62l-54 54q14 29 39.5 53.5t51.5 37.5l56 -56q26 14 58 22.5
t63 8.5t63 -8.5t58 -22.5l56 56q26 -13 51.5 -38.5t39.5 -52.5l-54 -54q17 -27 27 -62t10 -69zM311 216q31 0 58.5 18.5t38.5 44.5t11 47t-10.5 47t-38 44.5t-59.5 18.5q-20 0 -45 -10.5t-43 -38.5t-18 -61q0 -21 10.5 -47t37 -44.5t58.5 -18.5z" />
    <glyph glyph-name="yen" unicode="&#xa5;" horiz-adv-x="642" 
d="M522 250h-127v-54h127q4 -16 4 -35t-4 -35h-127v-126q-34 -6 -73 -6q-36 0 -77 6v126h-128q-3 18 -3 35t3 35h128v54h-128q-3 18 -3 35t3 35h104l-199 316q53 11 104 11q27 0 69 -4l111 -193l21 -41l20 41l115 193q28 4 64 4q42 0 95 -10l-198 -317h99q4 -16 4 -35
t-4 -35z" />
    <glyph glyph-name="brokenbar" unicode="&#xa6;" horiz-adv-x="235" 
d="M68 338v367q22 6 50.5 6t48.5 -6v-367q-19 -8 -49 -8t-50 8zM68 -183v353q22 6 50.5 6t48.5 -6v-353q-19 -8 -49 -8t-50 8z" />
    <glyph glyph-name="section" unicode="&#xa7;" horiz-adv-x="590" 
d="M243 104l-115 102q-27 24 -51.5 59.5t-35.5 74.5t-11 71q0 55 20.5 103t57.5 83t86.5 54t103.5 19q63 0 120.5 -22t100.5 -61q-2 -17 -11.5 -38.5t-30 -41.5t-47.5 -30q-59 53 -127 53q-24 0 -54.5 -11.5t-53 -42.5t-22.5 -70q0 -67 54 -114l104 -93q-27 -72 -88 -95z
M292 -131q-65 0 -122.5 21.5t-98.5 61.5q6 36 30 66t59 44q60 -53 129 -53q54 0 91 35t37 89q0 68 -53 115l-104 93q25 72 88 95l114 -102q52 -48 75 -102.5t23 -103.5q0 -54 -20.5 -102t-57.5 -83t-86.5 -54.5t-103.5 -19.5z" />
    <glyph glyph-name="dieresis" unicode="&#xa8;" horiz-adv-x="418" 
d="M96 541q-31 0 -53.5 22.5t-22.5 53.5t22.5 53t53.5 22t53.5 -22t22.5 -53t-22.5 -53.5t-53.5 -22.5zM321 541q-30 0 -53 22.5t-23 53.5t22.5 53t53.5 22t53.5 -22t22.5 -53t-22.5 -53.5t-53.5 -22.5z" />
    <glyph glyph-name="copyright" unicode="&#xa9;" horiz-adv-x="766" 
d="M384 -47q-73 0 -137 26.5t-111.5 75t-73.5 114t-26 139.5t26 139.5t73.5 114t111.5 75.5t137 27q72 0 136 -27t111 -75.5t73 -114t26 -139.5t-26 -139.5t-73 -114t-111 -75t-136 -26.5zM384 35q39 0 83 13.5t88 51t67 94t23 114.5t-20 109t-56 87.5t-84 56.5t-101 20
q-54 0 -102.5 -20t-84.5 -56.5t-56 -87.5t-20 -109t20 -108.5t56.5 -87.5t84.5 -57t102 -20zM397 101q-97 0 -153.5 54.5t-56.5 150.5q0 34 10.5 70.5t36 66.5t66.5 50t97 20q40 0 77.5 -13t56.5 -30q-5 -26 -24 -50.5t-39 -37.5q-31 27 -71 27q-30 0 -51 -16t-28 -40
t-7 -45q0 -34 12.5 -58.5t33 -34t40.5 -9.5q21 0 40 5.5t38 23.5q22 -11 38 -33.5t23 -50.5q-23 -21 -58.5 -35.5t-80.5 -14.5z" />
    <glyph glyph-name="ordfeminine" unicode="&#xaa;" horiz-adv-x="391" 
d="M197 672q70 0 109.5 -34.5t39.5 -106.5v-161q-80 -32 -167 -32q-65 0 -104.5 25.5t-39.5 77.5q0 48 39 74.5t102 26.5q37 -2 60 -8v11q0 19 -14.5 30t-42.5 11q-21 0 -45.5 -7t-45.5 -21q-16 10 -28.5 28t-15.5 39q30 23 72.5 35t80.5 12zM149 444q0 -16 13 -25t33 -9
q21 0 41 7v54q-21 7 -42 7t-33 -8.5t-12 -25.5z" />
    <glyph glyph-name="guillemotleft" unicode="&#xab;" horiz-adv-x="476" 
d="M187 74l-160 178l156 180q18 -3 34 -13t24 -24l-76 -141l77 -144q-7 -13 -22 -22.5t-33 -13.5zM378 74l-160 178l155 180q18 -3 34 -13t24 -24l-75 -141l76 -144q-7 -13 -21 -22.5t-33 -13.5z" />
    <glyph glyph-name="registered" unicode="&#xae;" horiz-adv-x="765" 
d="M384 769q70 0 133.5 -27t111.5 -75.5t74.5 -115t26.5 -140.5t-26.5 -140t-74.5 -114.5t-111.5 -75.5t-133.5 -27q-34 0 -77.5 9t-88.5 33t-86.5 66.5t-68.5 108.5t-27 140t27 140.5t75 115t112 75.5t134 27zM384 138q55 0 103 20.5t84 57.5t55.5 87.5t19.5 107.5
t-19.5 107.5t-55 87.5t-84 57t-103.5 20q-56 0 -104.5 -20t-84 -57t-55 -87t-19.5 -108q0 -57 19.5 -107.5t55 -87.5t84 -57.5t104.5 -20.5zM542 488q0 -40 -21 -69.5t-56 -45.5l92 -157q-25 -5 -49 -5l-46 1l-84 144l-58 2v-144q-11 -3 -33 -3q-35 0 -54 3v390
q64 14 149 14q81 0 120.5 -34.5t39.5 -95.5zM320 533v-92q21 -2 64 -2q64 0 64 50q0 47 -64 47q-31 0 -64 -3z" />
    <glyph glyph-name="macron" unicode="&#xaf;" horiz-adv-x="369" 
d="M30 569q-9 26 -9 55q0 11 3 29t6 28h311q7 -30 7 -56t-7 -56h-311z" />
    <glyph glyph-name="degree" unicode="&#xb0;" horiz-adv-x="339" 
d="M169 405q-58 0 -99.5 41.5t-41.5 99.5t41.5 99.5t99.5 41.5q57 0 99 -42t42 -99t-42 -99t-99 -42zM169 485q24 0 42.5 18.5t18.5 42.5q0 25 -18 42.5t-43 17.5q-24 0 -42 -17.5t-18 -42.5q0 -24 18 -42.5t42 -18.5z" />
    <glyph glyph-name="plusminus" unicode="&#xb1;" horiz-adv-x="529" 
d="M215 259h-165q-11 49 0 98h165v133q50 11 98 0v-133h165q6 -22 6 -49t-6 -49h-165v-134q-21 -6 -48.5 -6t-49.5 6v134zM50 63h428q6 -22 6 -48.5t-6 -48.5h-428q-11 49 0 97z" />
    <glyph glyph-name="acute" unicode="&#xb4;" horiz-adv-x="297" 
d="M64 515q-31 21 -42 63l176 158q31 -17 52 -47t28 -68z" />
    <glyph glyph-name="paragraph" unicode="&#xb6;" horiz-adv-x="638" 
d="M317 659q56 0 124 -6.5t117 -18.5v-822q-36 -6 -70 -6t-66 6v383q-54 -3 -112 -3q-64 0 -117 16t-90 46.5t-57 74.5t-20 97q0 109 74.5 171t216.5 62zM310 322q60 0 112 3v201q-54 6 -111 6q-65 0 -98.5 -27.5t-33.5 -76.5q0 -46 32 -76t99 -30zM205 130q37 7 69 7
q38 0 67 -7v-317q-28 -9 -66 -9q-40 0 -70 9v317z" />
    <glyph glyph-name="periodcentered" unicode="&#xb7;" horiz-adv-x="240" 
d="M119 258q-32 0 -56 24.5t-24 56.5t24 56.5t56 24.5q33 0 57 -24t24 -57t-24 -57t-57 -24z" />
    <glyph glyph-name="cedilla" unicode="&#xb8;" horiz-adv-x="260" 
d="M91 11h82l-18 -48q85 -15 85 -79q0 -28 -14 -52.5t-47.5 -37.5t-68.5 -13q-26 0 -56 7t-44 19q-1 20 8.5 39.5t22.5 29.5q21 -13 46 -13q14 0 25.5 7t11.5 21q0 32 -65 34z" />
    <glyph glyph-name="ordmasculine" unicode="&#xba;" horiz-adv-x="410" 
d="M204 338q-57 0 -96 23t-58.5 59.5t-19.5 84.5q0 76 49 121.5t127 45.5q47 0 89 -19.5t63.5 -59.5t21.5 -88q0 -76 -49.5 -121.5t-126.5 -45.5zM205 429q29 0 45 20t16 56t-16 56.5t-45 20.5q-28 0 -44.5 -20.5t-16.5 -56.5q0 -35 16.5 -55.5t44.5 -20.5z" />
    <glyph glyph-name="guillemotright" unicode="&#xbb;" horiz-adv-x="476" 
d="M103 74q-17 3 -33.5 13t-24.5 23l75 142l-76 144q7 14 22 23.5t33 12.5l159 -179zM293 74q-17 3 -33.5 13t-24.5 23l76 142l-77 144q8 14 23 23.5t32 12.5l160 -179z" />
    <glyph glyph-name="onequarter" unicode="&#xbc;" horiz-adv-x="804" 
d="M557 675q51 9 106 0l-472 -722q-57 -12 -107 0zM132 263v275l-73 -29q-13 14 -23.5 38t-11.5 47q8 3 27.5 11.5t64 27t81.5 18.5q28 0 46 -3v-385q-40 -4 -55 -4q-22 0 -56 4zM777 98q0 -15 -4 -47h-37v-53q-23 -4 -51 -4q-31 0 -55 4v53h-182q-28 45 0 107l114 244
q57 -3 100 -35l-86 -199q-7 -17 -6 -24h60v83q36 4 55 4q17 0 51 -4v-83h37q4 -20 4 -46z" />
    <glyph glyph-name="onehalf" unicode="&#xbd;" horiz-adv-x="806" 
d="M560 675q51 9 106 0l-472 -722q-57 -11 -107 0zM132 263v274l-73 -29q-13 14 -23.5 38t-11.5 48q8 3 27.5 11.5t64 27t81.5 18.5q31 0 47 -4v-384q-27 -4 -56 -4q-33 0 -56 4zM767 92q6 -16 6 -46q0 -26 -6 -46h-295q-4 16 -4 29q0 14 7.5 31t19.5 29l11 11t45.5 44.5
t54 55.5t23 32t6.5 24q0 16 -10.5 26t-30.5 10q-15 0 -29 -7t-33 -29q-47 10 -72 50q16 27 42 47.5t54.5 28.5t51.5 8q29 0 57 -8.5t47 -24t30 -39t11 -52.5q0 -30 -22 -69.5t-90 -96.5l-22 -12l32 3z" />
    <glyph glyph-name="threequarters" unicode="&#xbe;" horiz-adv-x="836" 
d="M596 675q53 9 107 0l-473 -722q-56 -12 -106 0zM169 341q27 0 43 13.5t16 38.5q0 50 -70 50h-44q-2 4 -2 14q0 14 9 25l63 74h-138q-6 34 -6 51q2 28 6 41h284q2 -17 -2.5 -36t-15.5 -32l-68 -74q27 -5 51 -21t35 -40t11 -51t-9 -53.5t-33 -49.5t-60 -32.5t-67 -9.5
q-35 0 -73.5 13t-65.5 40q7 22 21.5 40.5t35.5 29.5q39 -31 79 -31zM809 98q0 -26 -4 -47h-37v-53q-23 -4 -51 -4q-30 0 -54 4v53h-183q-26 45 1 107l113 244q27 -1 53.5 -9t46.5 -21l-84 -204q-7 -14 -7 -24h60v83q36 4 54 4q17 0 51 -4v-83h38q3 -22 3 -46z" />
    <glyph glyph-name="questiondown" unicode="&#xbf;" horiz-adv-x="426" 
d="M249 344q-34 0 -58.5 24.5t-24.5 57.5q0 34 24.5 59t58.5 25q33 0 58.5 -25t25.5 -59q0 -33 -25 -57.5t-59 -24.5zM255 -171q-49 0 -91.5 14t-72.5 40t-46.5 64.5t-16.5 85.5q0 77 46 131t123 76q5 26 16 70q15 4 37 4q18 0 37 -3q25 -98 26 -165h-6q-64 0 -99 -28
t-35 -72q0 -40 25.5 -64t67.5 -24q44 0 84 22q46 -40 52 -108q-27 -20 -66.5 -31.5t-80.5 -11.5z" />
    <glyph glyph-name="Agrave" unicode="&#xc0;" horiz-adv-x="628" 
d="M437 740q-5 -38 -31 -61l-237 77q0 39 16 71t45 53zM389 642l238 -635q-53 -12 -96 -12q-27 0 -55 5l-46 127h-238l-46 -127q-29 -4 -68 -4q-49 0 -79 11l240 635q30 6 77 6q43 0 73 -6zM238 251h146l-54 148l-20 62l-18 -62z" />
    <glyph glyph-name="Aacute" unicode="&#xc1;" horiz-adv-x="628" 
d="M213 679q-26 23 -31 61l208 140q59 -43 61 -124zM389 642l238 -635q-53 -12 -96 -12q-27 0 -55 5l-46 127h-238l-46 -127q-29 -4 -68 -4q-49 0 -79 11l240 635q30 6 77 6q43 0 73 -6zM238 251h146l-54 148l-20 62l-18 -62z" />
    <glyph glyph-name="Acircumflex" unicode="&#xc2;" horiz-adv-x="628" 
d="M189 691q-16 8 -28.5 26.5t-16.5 38.5l129 106q42 10 82 0l131 -102q-3 -20 -16 -39t-29 -30l-130 74zM389 642l238 -635q-53 -12 -96 -12q-27 0 -55 5l-46 127h-238l-46 -127q-29 -4 -68 -4q-49 0 -79 11l240 635q30 6 77 6q43 0 73 -6zM238 251h146l-54 148l-20 62
l-18 -62z" />
    <glyph glyph-name="Atilde" unicode="&#xc3;" horiz-adv-x="628" 
d="M205 691q-18 0 -40.5 5t-38 13.5t-22.5 16.5q11 57 48.5 90t88.5 33q32 0 77.5 -18.5t59.5 -18.5q16 0 28 12t17 32q25 0 53.5 -9t46.5 -26q-6 -35 -23.5 -62t-45.5 -44t-63 -17q-19 0 -39 5t-53 18t-46 13q-14 0 -28 -9t-20 -34zM389 642l238 -635q-53 -12 -96 -12
q-27 0 -55 5l-46 127h-238l-46 -127q-29 -4 -68 -4q-49 0 -79 11l240 635q30 6 77 6q43 0 73 -6zM238 251h146l-54 148l-20 62l-18 -62z" />
    <glyph glyph-name="Adieresis" unicode="&#xc4;" horiz-adv-x="628" 
d="M196 705q-31 0 -53.5 22t-22.5 53q0 30 22.5 52.5t53.5 22.5q30 0 52.5 -22.5t22.5 -52.5q0 -31 -22.5 -53t-52.5 -22zM430 705q-30 0 -52.5 22t-22.5 53q0 30 22.5 52.5t52.5 22.5q31 0 53.5 -22.5t22.5 -52.5q0 -31 -22.5 -53t-53.5 -22zM389 642l238 -635
q-53 -12 -96 -12q-27 0 -55 5l-46 127h-238l-46 -127q-29 -4 -68 -4q-49 0 -79 11l240 635q30 6 77 6q43 0 73 -6zM238 251h146l-54 148l-20 62l-18 -62z" />
    <glyph glyph-name="Aring" unicode="&#xc5;" horiz-adv-x="628" 
d="M314 659q-23 0 -51 12t-48.5 42.5t-20.5 66.5q0 49 35.5 84.5t84.5 35.5q35 0 65 -20.5t42 -48.5t12 -51t-12 -51.5t-42 -49t-65 -20.5zM314 822q-17 0 -29 -13t-12 -30t12 -29t29 -12t28.5 12t11.5 29t-11.5 30t-28.5 13zM389 642l238 -635q-53 -12 -96 -12q-27 0 -55 5
l-46 127h-238l-46 -127q-29 -4 -68 -4q-49 0 -79 11l240 635q30 6 77 6q43 0 73 -6zM238 251h146l-54 148l-20 62l-18 -62z" />
    <glyph glyph-name="AE" unicode="&#xc6;" horiz-adv-x="886" 
d="M844 133q7 -31 7 -66t-7 -67h-405v216h-176l-126 -216q-32 -4 -70 -4q-47 0 -82 11l363 636l486 -1q7 -31 7 -67q0 -35 -7 -66h-246v-151h217q7 -28 7 -60q0 -33 -7 -62h-217v-103h256zM333 337h107v134l2 62l-31 -62z" />
    <glyph glyph-name="Ccedilla" unicode="&#xc7;" horiz-adv-x="591" 
d="M387 -37q85 -15 85 -79q0 -28 -14 -52.5t-47.5 -37.5t-68.5 -13q-26 0 -56 7t-44 19q-1 20 8.5 39.5t22.5 29.5q21 -13 46 -13q14 0 25.5 7t11.5 21q0 32 -65 34l22 60q-129 16 -205 107.5t-76 228.5q0 73 24.5 136.5t70 109.5t108 71t134.5 25q63 0 113.5 -17t84.5 -45
q-5 -34 -27.5 -67t-53.5 -50q-53 37 -113 37q-81 0 -130 -53.5t-49 -146.5q0 -90 48.5 -144.5t126.5 -54.5q33 0 65.5 9t63.5 36q35 -20 54.5 -48.5t26.5 -71.5q-70 -58 -185 -64z" />
    <glyph glyph-name="Egrave" unicode="&#xc8;" horiz-adv-x="543" 
d="M412 740q-5 -38 -31 -61l-237 77q0 39 16 71t45 53zM501 133q7 -31 7 -66q0 -36 -7 -67h-434v642h424q8 -28 8 -67q0 -37 -8 -66h-275v-116h245q7 -31 7 -66q0 -34 -7 -65h-245v-129h285z" />
    <glyph glyph-name="Eacute" unicode="&#xc9;" horiz-adv-x="543" 
d="M188 679q-26 23 -31 61l208 140q59 -43 61 -124zM501 133q7 -31 7 -66q0 -36 -7 -67h-434v642h424q8 -28 8 -67q0 -37 -8 -66h-275v-116h245q7 -31 7 -66q0 -34 -7 -65h-245v-129h285z" />
    <glyph glyph-name="Ecircumflex" unicode="&#xca;" horiz-adv-x="543" 
d="M164 691q-16 8 -28.5 26.5t-16.5 38.5l129 106q42 10 82 0l131 -102q-3 -20 -16 -39t-29 -30l-130 74zM501 133q7 -31 7 -66q0 -36 -7 -67h-434v642h424q8 -28 8 -67q0 -37 -8 -66h-275v-116h245q7 -31 7 -66q0 -34 -7 -65h-245v-129h285z" />
    <glyph glyph-name="Edieresis" unicode="&#xcb;" horiz-adv-x="543" 
d="M171 705q-31 0 -53.5 22t-22.5 53q0 30 22.5 52.5t53.5 22.5q30 0 52.5 -22.5t22.5 -52.5q0 -31 -22.5 -53t-52.5 -22zM405 705q-30 0 -52.5 22t-22.5 53q0 30 22.5 52.5t52.5 22.5q31 0 53.5 -22.5t22.5 -52.5q0 -31 -22.5 -53t-53.5 -22zM501 133q7 -31 7 -66
q0 -36 -7 -67h-434v642h424q8 -28 8 -67q0 -37 -8 -66h-275v-116h245q7 -31 7 -66q0 -34 -7 -65h-245v-129h285z" />
    <glyph glyph-name="Igrave" unicode="&#xcc;" horiz-adv-x="282" 
d="M230 679l-237 77q1 38 17.5 70.5t44.5 52.5l205 -140q-3 -36 -30 -60zM143 -6q-37 0 -76 6v641q29 6 73 6t76 -6v-641q-36 -6 -73 -6z" />
    <glyph glyph-name="Iacute" unicode="&#xcd;" horiz-adv-x="282" 
d="M39 678q-27 24 -30 60l205 140q28 -20 44.5 -52.5t16.5 -70.5zM143 -6q-37 0 -76 6v641q29 6 73 6t76 -6v-641q-36 -6 -73 -6z" />
    <glyph glyph-name="Icircumflex" unicode="&#xce;" horiz-adv-x="282" 
d="M181 863l112 -113q-16 -42 -57 -61l-98 74l-91 -72q-19 7 -35 21.5t-21 33.5l110 117q40 7 80 0zM143 -6q-37 0 -76 6v641q29 6 73 6t76 -6v-641q-36 -6 -73 -6z" />
    <glyph glyph-name="Idieresis" unicode="&#xcf;" horiz-adv-x="282" 
d="M51 699q-31 0 -53.5 22t-22.5 53q0 30 22.5 52.5t53.5 22.5t53.5 -22.5t22.5 -52.5q0 -31 -22.5 -53t-53.5 -22zM232 699q-31 0 -53.5 22t-22.5 53q0 30 22.5 52.5t53.5 22.5t53.5 -22.5t22.5 -52.5q0 -31 -22.5 -53t-53.5 -22zM143 -6q-37 0 -76 6v641q29 6 73 6t76 -6
v-641q-36 -6 -73 -6z" />
    <glyph glyph-name="Eth" unicode="&#xd0;" horiz-adv-x="673" 
d="M273 655q86 0 155.5 -23.5t116.5 -66.5t71.5 -104t24.5 -133q0 -77 -26 -140.5t-74 -108t-116 -68t-149 -23.5q-114 0 -210 13v272h-70q-8 22 -8 49q0 26 8 53h70v264q92 16 207 16zM284 127q91 0 142 54t51 145q0 87 -51.5 138t-145.5 51q-41 0 -64 -2v-138h97
q7 -22 7 -52q0 -29 -7 -50h-97v-144z" />
    <glyph glyph-name="Ntilde" unicode="&#xd1;" horiz-adv-x="689" 
d="M241 691q-18 0 -40.5 5t-38 13.5t-22.5 16.5q11 57 48.5 90t88.5 33q32 0 77.5 -18.5t59.5 -18.5q16 0 28 12t17 32q25 0 53.5 -9t46.5 -26q-6 -35 -23.5 -62t-45.5 -44t-63 -17q-19 0 -39 5t-53 18t-46 13q-14 0 -28 -9t-20 -34zM547 647q36 0 76 -6v-638
q-69 -13 -143 -8l-248 365l-21 38l4 -46v-352q-39 -6 -75 -6q-31 0 -73 6v636q27 9 69 11.5t74 -1.5l247 -373l22 -39l-4 51v356q41 6 72 6z" />
    <glyph glyph-name="Ograve" unicode="&#xd2;" horiz-adv-x="736" 
d="M466 679l-237 77q0 39 16 71t45 53l207 -140q-5 -38 -31 -61zM368 -18q-72 0 -134 24.5t-107.5 69.5t-70.5 108.5t-25 137.5q0 73 25 136.5t70.5 109t107.5 70.5t134 25t134.5 -24.5t107.5 -69.5t70 -108.5t25 -138.5q0 -72 -25 -135.5t-70.5 -109t-108 -70.5t-133.5 -25
zM368 123q79 0 127 54.5t48 144.5q0 92 -48 146t-127 54t-127 -54t-48 -146q0 -90 48 -144.5t127 -54.5z" />
    <glyph glyph-name="Oacute" unicode="&#xd3;" horiz-adv-x="736" 
d="M273 679q-26 23 -31 61l208 140q59 -43 61 -124zM368 -18q-72 0 -134 24.5t-107.5 69.5t-70.5 108.5t-25 137.5q0 73 25 136.5t70.5 109t107.5 70.5t134 25t134.5 -24.5t107.5 -69.5t70 -108.5t25 -138.5q0 -72 -25 -135.5t-70.5 -109t-108 -70.5t-133.5 -25zM368 123
q79 0 127 54.5t48 144.5q0 92 -48 146t-127 54t-127 -54t-48 -146q0 -90 48 -144.5t127 -54.5z" />
    <glyph glyph-name="Ocircumflex" unicode="&#xd4;" horiz-adv-x="736" 
d="M249 691q-16 8 -28.5 26.5t-16.5 38.5l129 106q42 10 82 0l131 -102q-3 -20 -16 -39t-29 -30l-130 74zM368 -18q-72 0 -134 24.5t-107.5 69.5t-70.5 108.5t-25 137.5q0 73 25 136.5t70.5 109t107.5 70.5t134 25t134.5 -24.5t107.5 -69.5t70 -108.5t25 -138.5
q0 -72 -25 -135.5t-70.5 -109t-108 -70.5t-133.5 -25zM368 123q79 0 127 54.5t48 144.5q0 92 -48 146t-127 54t-127 -54t-48 -146q0 -90 48 -144.5t127 -54.5z" />
    <glyph glyph-name="Otilde" unicode="&#xd5;" horiz-adv-x="736" 
d="M265 691q-18 0 -40.5 5t-38 13.5t-22.5 16.5q11 57 48.5 90t88.5 33q32 0 77.5 -18.5t59.5 -18.5q16 0 28 12t17 32q25 0 53.5 -9t46.5 -26q-6 -35 -23.5 -62t-45.5 -44t-63 -17q-19 0 -39 5t-53 18t-46 13q-14 0 -28 -9t-20 -34zM368 -18q-72 0 -134 24.5t-107.5 69.5
t-70.5 108.5t-25 137.5q0 73 25 136.5t70.5 109t107.5 70.5t134 25t134.5 -24.5t107.5 -69.5t70 -108.5t25 -138.5q0 -72 -25 -135.5t-70.5 -109t-108 -70.5t-133.5 -25zM368 123q79 0 127 54.5t48 144.5q0 92 -48 146t-127 54t-127 -54t-48 -146q0 -90 48 -144.5t127 -54.5
z" />
    <glyph glyph-name="Odieresis" unicode="&#xd6;" horiz-adv-x="736" 
d="M256 705q-31 0 -53.5 22t-22.5 53q0 30 22.5 52.5t53.5 22.5q30 0 52.5 -22.5t22.5 -52.5q0 -31 -22.5 -53t-52.5 -22zM490 705q-30 0 -52.5 22t-22.5 53q0 30 22.5 52.5t52.5 22.5q31 0 53.5 -22.5t22.5 -52.5q0 -31 -22.5 -53t-53.5 -22zM368 -18q-72 0 -134 24.5
t-107.5 69.5t-70.5 108.5t-25 137.5q0 73 25 136.5t70.5 109t107.5 70.5t134 25t134.5 -24.5t107.5 -69.5t70 -108.5t25 -138.5q0 -72 -25 -135.5t-70.5 -109t-108 -70.5t-133.5 -25zM368 123q79 0 127 54.5t48 144.5q0 92 -48 146t-127 54t-127 -54t-48 -146
q0 -90 48 -144.5t127 -54.5z" />
    <glyph glyph-name="multiply" unicode="&#xd7;" horiz-adv-x="458" 
d="M417 359l-119 -119l119 -119q-26 -43 -69 -69l-119 119l-119 -119q-19 12 -38.5 31.5t-30.5 37.5l119 119l-119 119q27 42 69 69l119 -119l119 120q19 -12 38 -31t31 -39z" />
    <glyph glyph-name="Oslash" unicode="&#xd8;" horiz-adv-x="736" 
d="M709 615l-71 -78q32 -42 49.5 -97.5t17.5 -117.5q0 -72 -25 -135.5t-70.5 -109t-108 -70.5t-133.5 -25q-105 0 -186 50l-74 -82q-29 10 -50.5 31t-31.5 49l71 78q-66 90 -66 214q0 73 25 136.5t70.5 109t107.5 70.5t134 25q108 0 188 -51l72 79q27 -10 48.5 -30t32.5 -46
zM193 322q0 -49 16 -91l246 270q-37 21 -87 21q-79 0 -127 -54t-48 -146zM543 322q0 53 -16 92l-244 -270q36 -21 85 -21q79 0 127 54.5t48 144.5z" />
    <glyph glyph-name="Ugrave" unicode="&#xd9;" horiz-adv-x="671" 
d="M431 679l-237 77q0 39 16 71t45 53l207 -140q-5 -38 -31 -61zM337 -18q-62 0 -114 17.5t-88.5 52.5t-56 87t-19.5 118v384q36 6 74 6q37 0 76 -6v-382q0 -65 34 -101.5t95 -36.5q60 0 94 36.5t34 101.5v382q35 6 71 6t75 -6v-380q0 -65 -20 -117.5t-57 -88.5t-88 -54.5
t-110 -18.5z" />
    <glyph glyph-name="Uacute" unicode="&#xda;" horiz-adv-x="671" 
d="M238 679q-26 23 -31 61l208 140q59 -43 61 -124zM337 -18q-62 0 -114 17.5t-88.5 52.5t-56 87t-19.5 118v384q36 6 74 6q37 0 76 -6v-382q0 -65 34 -101.5t95 -36.5q60 0 94 36.5t34 101.5v382q35 6 71 6t75 -6v-380q0 -65 -20 -117.5t-57 -88.5t-88 -54.5t-110 -18.5z
" />
    <glyph glyph-name="Ucircumflex" unicode="&#xdb;" horiz-adv-x="671" 
d="M214 691q-16 8 -28.5 26.5t-16.5 38.5l129 106q42 10 82 0l131 -102q-3 -20 -16 -39t-29 -30l-130 74zM337 -18q-62 0 -114 17.5t-88.5 52.5t-56 87t-19.5 118v384q36 6 74 6q37 0 76 -6v-382q0 -65 34 -101.5t95 -36.5q60 0 94 36.5t34 101.5v382q35 6 71 6t75 -6v-380
q0 -65 -20 -117.5t-57 -88.5t-88 -54.5t-110 -18.5z" />
    <glyph glyph-name="Udieresis" unicode="&#xdc;" horiz-adv-x="671" 
d="M221 705q-31 0 -53.5 22t-22.5 53q0 30 22.5 52.5t53.5 22.5q30 0 52.5 -22.5t22.5 -52.5q0 -31 -22.5 -53t-52.5 -22zM455 705q-30 0 -52.5 22t-22.5 53q0 30 22.5 52.5t52.5 22.5q31 0 53.5 -22.5t22.5 -52.5q0 -31 -22.5 -53t-53.5 -22zM337 -18q-62 0 -114 17.5
t-88.5 52.5t-56 87t-19.5 118v384q36 6 74 6q37 0 76 -6v-382q0 -65 34 -101.5t95 -36.5q60 0 94 36.5t34 101.5v382q35 6 71 6t75 -6v-380q0 -65 -20 -117.5t-57 -88.5t-88 -54.5t-110 -18.5z" />
    <glyph glyph-name="Yacute" unicode="&#xdd;" horiz-adv-x="617" 
d="M211 679q-26 23 -31 61l208 140q59 -43 61 -124zM617 639l-235 -405v-234q-34 -6 -73 -6q-35 0 -76 6v244l-236 395q58 10 106 10q40 0 68 -4l121 -214l22 -49l22 49l120 214q28 4 65 4q43 0 96 -10z" />
    <glyph glyph-name="Thorn" unicode="&#xde;" horiz-adv-x="564" 
d="M267 543q71 0 124 -15.5t86.5 -43.5t49.5 -68t16 -89q0 -40 -11 -75.5t-31.5 -63t-55 -50.5t-80.5 -33.5t-89 -10.5l-60 2v-96q-34 -6 -73 -6q-37 0 -76 6v641q36 6 73 6t76 -6v-100zM275 223q59 0 86.5 28.5t27.5 74.5q0 42 -30 66.5t-86 24.5q-25 0 -57 -3v-189
q20 -2 59 -2z" />
    <glyph glyph-name="germandbls" unicode="&#xdf;" horiz-adv-x="634" 
d="M488 293q120 -37 120 -148q0 -54 -24.5 -90t-65 -54t-96.5 -18q-58 0 -105.5 19t-69.5 42q5 32 22 57t40 38q21 -16 49.5 -29t55.5 -13q48 0 48 39q0 14 -9.5 25t-53.5 28q-60 24 -83.5 44t-35 46t-11.5 60q0 35 14 63t37 45.5t52.5 27t56.5 9.5h2q0 35 -28.5 63.5
t-79.5 28.5q-55 0 -87 -32.5t-33 -98.5v-445q-34 -6 -73 -6q-36 0 -77 6v456q0 55 21 101t58 78t87 48.5t106 16.5q54 0 100.5 -15.5t81 -45.5t53.5 -74.5t19 -99.5q-3 -68 -20 -101q-52 12 -89 12q-27 0 -41.5 -9t-14.5 -25q0 -15 14.5 -25.5t59.5 -23.5z" />
    <glyph glyph-name="agrave" unicode="&#xe0;" horiz-adv-x="521" 
d="M368 575q-5 -18 -16 -34t-26 -26l-214 106q18 82 80 115zM247 488q80 0 131 -25.5t76.5 -70.5t25.5 -112v-249q-115 -47 -240 -47q-103 0 -159 39.5t-56 116.5q0 27 10 54t35 48.5t65 34.5t97 13q60 -2 100 -14v19q0 32 -24 51t-74 19q-38 0 -73 -12.5t-56 -28.5
q-24 14 -41.5 38.5t-22.5 56.5q18 16 53.5 34t76.5 26.5t76 8.5zM174 146q0 -26 22.5 -42t63.5 -16q34 0 72 11v87q-38 11 -82 11q-36 0 -56 -13t-20 -38z" />
    <glyph glyph-name="aacute" unicode="&#xe1;" horiz-adv-x="521" 
d="M171 515q-31 21 -42 63l176 158q31 -17 52 -47t28 -68zM247 488q80 0 131 -25.5t76.5 -70.5t25.5 -112v-249q-115 -47 -240 -47q-103 0 -159 39.5t-56 116.5q0 27 10 54t35 48.5t65 34.5t97 13q60 -2 100 -14v19q0 32 -24 51t-74 19q-38 0 -73 -12.5t-56 -28.5
q-24 14 -41.5 38.5t-22.5 56.5q18 16 53.5 34t76.5 26.5t76 8.5zM174 146q0 -26 22.5 -42t63.5 -16q34 0 72 11v87q-38 11 -82 11q-36 0 -56 -13t-20 -38z" />
    <glyph glyph-name="acircumflex" unicode="&#xe2;" horiz-adv-x="521" 
d="M138 522q-19 7 -35 24t-21 36l127 135q42 9 84 0l122 -129q-5 -21 -21.5 -39t-35.5 -27l-110 86zM247 488q80 0 131 -25.5t76.5 -70.5t25.5 -112v-249q-115 -47 -240 -47q-103 0 -159 39.5t-56 116.5q0 27 10 54t35 48.5t65 34.5t97 13q60 -2 100 -14v19q0 32 -24 51
t-74 19q-38 0 -73 -12.5t-56 -28.5q-24 14 -41.5 38.5t-22.5 56.5q18 16 53.5 34t76.5 26.5t76 8.5zM174 146q0 -26 22.5 -42t63.5 -16q34 0 72 11v87q-38 11 -82 11q-36 0 -56 -13t-20 -38z" />
    <glyph glyph-name="atilde" unicode="&#xe3;" horiz-adv-x="521" 
d="M149 545q-25 0 -55.5 9t-44.5 25q8 43 31.5 74t52 42t52.5 11q17 0 33.5 -5.5t46.5 -19t43 -13.5q12 0 25.5 8.5t20.5 33.5q25 0 53 -9t47 -26q-5 -27 -21 -55.5t-46.5 -47t-64.5 -18.5q-17 0 -35 5t-48 18.5t-42 13.5q-9 0 -18.5 -4t-17.5 -15.5t-12 -26.5zM247 488
q80 0 131 -25.5t76.5 -70.5t25.5 -112v-249q-115 -47 -240 -47q-103 0 -159 39.5t-56 116.5q0 27 10 54t35 48.5t65 34.5t97 13q60 -2 100 -14v19q0 32 -24 51t-74 19q-38 0 -73 -12.5t-56 -28.5q-24 14 -41.5 38.5t-22.5 56.5q18 16 53.5 34t76.5 26.5t76 8.5zM174 146
q0 -26 22.5 -42t63.5 -16q34 0 72 11v87q-38 11 -82 11q-36 0 -56 -13t-20 -38z" />
    <glyph glyph-name="adieresis" unicode="&#xe4;" horiz-adv-x="521" 
d="M138 541q-31 0 -53.5 22.5t-22.5 53.5t22.5 53t53.5 22t53.5 -22t22.5 -53t-22.5 -53.5t-53.5 -22.5zM363 541q-30 0 -53 22.5t-23 53.5t22.5 53t53.5 22t53.5 -22t22.5 -53t-22.5 -53.5t-53.5 -22.5zM247 488q80 0 131 -25.5t76.5 -70.5t25.5 -112v-249
q-115 -47 -240 -47q-103 0 -159 39.5t-56 116.5q0 27 10 54t35 48.5t65 34.5t97 13q60 -2 100 -14v19q0 32 -24 51t-74 19q-38 0 -73 -12.5t-56 -28.5q-24 14 -41.5 38.5t-22.5 56.5q18 16 53.5 34t76.5 26.5t76 8.5zM174 146q0 -26 22.5 -42t63.5 -16q34 0 72 11v87
q-38 11 -82 11q-36 0 -56 -13t-20 -38z" />
    <glyph glyph-name="aring" unicode="&#xe5;" horiz-adv-x="521" 
d="M251 507q-36 0 -66.5 20.5t-42.5 48.5t-12 51t12 51.5t42.5 49t66.5 20.5q23 0 51 -12t49 -42.5t21 -66.5q0 -49 -36 -84.5t-85 -35.5zM251 670q-17 0 -29 -13t-12 -30t12 -29.5t29 -12.5t29 12.5t12 29.5t-12 30t-29 13zM247 488q80 0 131 -25.5t76.5 -70.5t25.5 -112
v-249q-115 -47 -240 -47q-103 0 -159 39.5t-56 116.5q0 27 10 54t35 48.5t65 34.5t97 13q60 -2 100 -14v19q0 32 -24 51t-74 19q-38 0 -73 -12.5t-56 -28.5q-24 14 -41.5 38.5t-22.5 56.5q18 16 53.5 34t76.5 26.5t76 8.5zM174 146q0 -26 22.5 -42t63.5 -16q34 0 72 11v87
q-38 11 -82 11q-36 0 -56 -13t-20 -38z" />
    <glyph glyph-name="ae" unicode="&#xe6;" horiz-adv-x="801" 
d="M197 -16q-55 0 -93 20t-58 53.5t-20 79.5q0 27 10 54t34 48.5t62.5 35t91.5 13.5h95v12q0 30 -24 47.5t-72 17.5q-28 0 -64 -9t-66 -28q-22 17 -36 43.5t-17 56.5q17 14 51 29.5t73 23t71 7.5q57 0 102.5 -20.5t67.5 -61.5q23 38 67 60t94 22q33 0 68 -10.5t64.5 -36
t49 -69t19.5 -105.5q0 -44 -4 -71h-289v-1q1 -21 10.5 -40t34 -34.5t63.5 -15.5q27 0 57.5 9t73.5 35q16 -13 32.5 -39t20.5 -63q-87 -64 -197 -64q-59 0 -109 24.5t-78 74.5q-58 -98 -185 -98zM471 287h156q0 25 -9 46t-26.5 30t-35.5 9q-36 0 -59.5 -25t-25.5 -60zM231 92
q39 0 63.5 26.5t24.5 77.5h-76q-35 0 -53.5 -13.5t-18.5 -38.5q0 -24 16 -38t44 -14z" />
    <glyph glyph-name="ccedilla" unicode="&#xe7;" horiz-adv-x="474" 
d="M302 -37q85 -15 85 -79q0 -28 -14 -52.5t-47.5 -37.5t-68.5 -13q-26 0 -56 7t-44 19q-1 20 8.5 39.5t22.5 29.5q21 -13 46 -13q14 0 25.5 7t11.5 21q0 32 -65 34l23 63q-94 16 -147 80.5t-53 167.5q0 57 19.5 104.5t54 81t82 51.5t101.5 18q50 0 96 -16t69 -37
q-7 -29 -28.5 -58.5t-48.5 -46.5q-37 33 -84 33q-52 0 -81.5 -36t-29.5 -92t29 -93t83 -37q24 0 46.5 7t45.5 28q57 -28 76 -98q-26 -24 -64.5 -41t-84.5 -20z" />
    <glyph glyph-name="egrave" unicode="&#xe8;" horiz-adv-x="533" 
d="M388 575q-5 -18 -16 -34t-26 -26l-214 106q18 82 80 115zM502 270q0 -40 -5 -70h-316q13 -97 117 -97q31 0 63.5 10t76.5 38q22 -17 36.5 -45t17.5 -56q-88 -67 -210 -67q-54 0 -101 17t-81 49t-52.5 79t-18.5 105q0 54 18.5 101.5t52.5 82t79.5 53t97.5 18.5
q49 0 91 -15.5t72 -44t46 -69.5t16 -89zM181 284h180q0 27 -11 49t-31 31.5t-41 10.5q-41 0 -66.5 -25t-30.5 -66z" />
    <glyph glyph-name="eacute" unicode="&#xe9;" horiz-adv-x="533" 
d="M191 515q-31 21 -42 63l176 158q31 -17 52 -47t28 -68zM502 270q0 -40 -5 -70h-316q13 -97 117 -97q31 0 63.5 10t76.5 38q22 -17 36.5 -45t17.5 -56q-88 -67 -210 -67q-54 0 -101 17t-81 49t-52.5 79t-18.5 105q0 54 18.5 101.5t52.5 82t79.5 53t97.5 18.5
q49 0 91 -15.5t72 -44t46 -69.5t16 -89zM181 284h180q0 27 -11 49t-31 31.5t-41 10.5q-41 0 -66.5 -25t-30.5 -66z" />
    <glyph glyph-name="ecircumflex" unicode="&#xea;" horiz-adv-x="533" 
d="M158 522q-19 7 -35 24t-21 36l127 135q42 9 84 0l122 -129q-5 -21 -21.5 -39t-35.5 -27l-110 86zM502 270q0 -40 -5 -70h-316q13 -97 117 -97q31 0 63.5 10t76.5 38q22 -17 36.5 -45t17.5 -56q-88 -67 -210 -67q-54 0 -101 17t-81 49t-52.5 79t-18.5 105q0 54 18.5 101.5
t52.5 82t79.5 53t97.5 18.5q49 0 91 -15.5t72 -44t46 -69.5t16 -89zM181 284h180q0 27 -11 49t-31 31.5t-41 10.5q-41 0 -66.5 -25t-30.5 -66z" />
    <glyph glyph-name="edieresis" unicode="&#xeb;" horiz-adv-x="533" 
d="M159 541q-31 0 -53.5 22.5t-22.5 53.5t22.5 53t53.5 22t53.5 -22t22.5 -53t-22.5 -53.5t-53.5 -22.5zM384 541q-30 0 -53 22.5t-23 53.5t22.5 53t53.5 22t53.5 -22t22.5 -53t-22.5 -53.5t-53.5 -22.5zM502 270q0 -40 -5 -70h-316q13 -97 117 -97q31 0 63.5 10t76.5 38
q22 -17 36.5 -45t17.5 -56q-88 -67 -210 -67q-54 0 -101 17t-81 49t-52.5 79t-18.5 105q0 54 18.5 101.5t52.5 82t79.5 53t97.5 18.5q49 0 91 -15.5t72 -44t46 -69.5t16 -89zM181 284h180q0 27 -11 49t-31 31.5t-41 10.5q-41 0 -66.5 -25t-30.5 -66z" />
    <glyph glyph-name="igrave" unicode="&#xec;" horiz-adv-x="256" 
d="M208 515l-211 111q7 39 29 69t54 45l170 -168q-10 -37 -42 -57zM128 -6q-36 0 -74 6v475q36 6 74 6q36 0 75 -6v-475q-36 -6 -75 -6z" />
    <glyph glyph-name="iacute" unicode="&#xed;" horiz-adv-x="257" 
d="M62 510q-32 16 -46 53l158 180q34 -14 57.5 -42.5t33.5 -65.5zM128 -6q-36 0 -74 6v475q36 6 74 6q36 0 75 -6v-475q-36 -6 -75 -6z" />
    <glyph glyph-name="icircumflex" unicode="&#xee;" horiz-adv-x="257" 
d="M156 717l118 -133q-5 -18 -20.5 -33.5t-37.5 -24.5l-92 70l-90 -70q-19 7 -34.5 23t-20.5 35l119 133q29 6 58 0zM128 -6q-36 0 -74 6v475q36 6 74 6q36 0 75 -6v-475q-36 -6 -75 -6z" />
    <glyph glyph-name="idieresis" unicode="&#xef;" horiz-adv-x="257" 
d="M33 541q-31 0 -53.5 22.5t-22.5 53.5q0 30 22.5 52.5t53.5 22.5q30 0 52.5 -22.5t22.5 -52.5q0 -31 -22.5 -53.5t-52.5 -22.5zM219 541q-31 0 -53.5 22.5t-22.5 53.5q0 30 22.5 52.5t53.5 22.5q30 0 52.5 -22.5t22.5 -52.5q0 -31 -22.5 -53.5t-52.5 -22.5zM128 -6
q-36 0 -74 6v475q36 6 74 6q36 0 75 -6v-475q-36 -6 -75 -6z" />
    <glyph glyph-name="eth" unicode="&#xf0;" horiz-adv-x="545" 
d="M326 605q92 -56 139.5 -150t47.5 -222q0 -41 -11 -84.5t-43.5 -84.5t-84 -61t-107.5 -20q-51 0 -95 15.5t-76 45t-49.5 72t-17.5 92.5q0 51 18 93.5t50.5 72t76 45.5t93.5 16q32 0 70 -10q-17 25 -44 47t-57 36l-57 -61q-16 8 -32 23q-15 15 -22 30l34 36q-33 10 -73 16
q-4 38 6 72t33 53q70 -12 131 -36l51 55q18 -10 29 -21q16 -15 25 -32zM269 107q44 0 69 29.5t25 78.5q0 47 -25.5 76t-67.5 29t-67 -28.5t-25 -78.5q0 -22 8 -47.5t30 -42t53 -16.5z" />
    <glyph glyph-name="ntilde" unicode="&#xf1;" horiz-adv-x="568" 
d="M178 545q-25 0 -55.5 9t-44.5 25q8 43 31.5 74t52 42t52.5 11q17 0 33.5 -5.5t46.5 -19t43 -13.5q12 0 25.5 8.5t20.5 33.5q25 0 53 -9t47 -26q-5 -27 -21 -55.5t-46.5 -47t-64.5 -18.5q-17 0 -35 5t-48 18.5t-42 13.5q-9 0 -18.5 -4t-17.5 -15.5t-12 -26.5zM291 491
q57 0 101 -15t72 -42t42 -64.5t14 -81.5v-288q-37 -6 -75 -6q-37 0 -75 6v264q0 23 -8 45.5t-30 34.5t-52 12q-10 0 -33.5 -3.5t-46.5 -16.5v-336q-37 -6 -75 -6q-36 0 -74 6v412q23 21 64.5 41t89 29t86.5 9z" />
    <glyph glyph-name="ograve" unicode="&#xf2;" horiz-adv-x="577" 
d="M364 515l-214 106q18 82 80 115l176 -161q-5 -18 -16 -34t-26 -26zM288 -16q-56 0 -103.5 17.5t-82.5 50.5t-54 80.5t-19 104.5q0 56 19.5 103t54.5 81t83.5 52t103.5 18t103 -18t83 -51.5t54 -81t19 -103.5q0 -55 -19.5 -102.5t-54.5 -81t-83.5 -51.5t-103.5 -18z
M289 108q51 0 80.5 35.5t29.5 93.5t-29.5 93.5t-80.5 35.5t-81 -35.5t-30 -93.5t30 -93.5t81 -35.5z" />
    <glyph glyph-name="oacute" unicode="&#xf3;" horiz-adv-x="577" 
d="M209 515q-31 21 -42 63l176 158q31 -17 52 -47t28 -68zM288 -16q-56 0 -103.5 17.5t-82.5 50.5t-54 80.5t-19 104.5q0 56 19.5 103t54.5 81t83.5 52t103.5 18t103 -18t83 -51.5t54 -81t19 -103.5q0 -55 -19.5 -102.5t-54.5 -81t-83.5 -51.5t-103.5 -18zM289 108
q51 0 80.5 35.5t29.5 93.5t-29.5 93.5t-80.5 35.5t-81 -35.5t-30 -93.5t30 -93.5t81 -35.5z" />
    <glyph glyph-name="ocircumflex" unicode="&#xf4;" horiz-adv-x="577" 
d="M331 717l122 -129q-5 -21 -21.5 -39t-35.5 -27l-110 86l-110 -86q-19 7 -35 24t-21 36l127 135q42 9 84 0zM288 -16q-56 0 -103.5 17.5t-82.5 50.5t-54 80.5t-19 104.5q0 56 19.5 103t54.5 81t83.5 52t103.5 18t103 -18t83 -51.5t54 -81t19 -103.5q0 -55 -19.5 -102.5
t-54.5 -81t-83.5 -51.5t-103.5 -18zM289 108q51 0 80.5 35.5t29.5 93.5t-29.5 93.5t-80.5 35.5t-81 -35.5t-30 -93.5t30 -93.5t81 -35.5z" />
    <glyph glyph-name="otilde" unicode="&#xf5;" horiz-adv-x="577" 
d="M187 545q-25 0 -55.5 9t-44.5 25q8 43 31.5 74t52 42t52.5 11q17 0 33.5 -5.5t46.5 -19t43 -13.5q12 0 25.5 8.5t20.5 33.5q25 0 53 -9t47 -26q-5 -27 -21 -55.5t-46.5 -47t-64.5 -18.5q-17 0 -35 5t-48 18.5t-42 13.5q-9 0 -18.5 -4t-17.5 -15.5t-12 -26.5zM288 -16
q-56 0 -103.5 17.5t-82.5 50.5t-54 80.5t-19 104.5q0 56 19.5 103t54.5 81t83.5 52t103.5 18t103 -18t83 -51.5t54 -81t19 -103.5q0 -55 -19.5 -102.5t-54.5 -81t-83.5 -51.5t-103.5 -18zM289 108q51 0 80.5 35.5t29.5 93.5t-29.5 93.5t-80.5 35.5t-81 -35.5t-30 -93.5
t30 -93.5t81 -35.5z" />
    <glyph glyph-name="odieresis" unicode="&#xf6;" horiz-adv-x="577" 
d="M176 541q-31 0 -53.5 22.5t-22.5 53.5t22.5 53t53.5 22t53.5 -22t22.5 -53t-22.5 -53.5t-53.5 -22.5zM401 541q-30 0 -53 22.5t-23 53.5t22.5 53t53.5 22t53.5 -22t22.5 -53t-22.5 -53.5t-53.5 -22.5zM288 -16q-56 0 -103.5 17.5t-82.5 50.5t-54 80.5t-19 104.5
q0 56 19.5 103t54.5 81t83.5 52t103.5 18t103 -18t83 -51.5t54 -81t19 -103.5q0 -55 -19.5 -102.5t-54.5 -81t-83.5 -51.5t-103.5 -18zM289 108q51 0 80.5 35.5t29.5 93.5t-29.5 93.5t-80.5 35.5t-81 -35.5t-30 -93.5t30 -93.5t81 -35.5z" />
    <glyph glyph-name="divide" unicode="&#xf7;" horiz-adv-x="498" 
d="M249 317q-33 0 -57 24t-24 56t24 56t57 24q32 0 56 -24t24 -56t-24 -56t-56 -24zM39 194q-6 23 -6 45q0 23 6 45h420q5 -25 5 -45t-5 -45h-420zM249 3q-33 0 -57 24t-24 56t24.5 55.5t56.5 23.5t56 -23.5t24 -55.5t-24 -56t-56 -24z" />
    <glyph glyph-name="oslash" unicode="&#xf8;" horiz-adv-x="579" 
d="M491 407q28 -32 43 -76t15 -94q0 -41 -11 -78.5t-31.5 -68t-49 -52.5t-71 -38t-97.5 -16q-38 0 -77.5 10t-68.5 27l-47 -53q-17 6 -31 20t-20 31l43 47q-59 69 -59 171q0 41 13 85t49 86t90.5 62.5t109.5 20.5q84 0 146 -39l47 52q16 -6 30.5 -19t20.5 -28zM179 237
q0 -35 10 -59l157 174q-23 14 -56 14q-51 0 -81 -35.5t-30 -93.5zM290 108q51 0 80.5 35.5t29.5 93.5q0 34 -9 59l-157 -174q25 -14 56 -14z" />
    <glyph glyph-name="ugrave" unicode="&#xf9;" horiz-adv-x="563" 
d="M398 575q-5 -18 -16 -34t-26 -26l-214 106q18 82 80 115zM437 476q38 0 75 -6v-432q-36 -20 -98.5 -37.5t-137.5 -17.5q-44 0 -86 9t-73.5 31.5t-50 59.5t-18.5 93v294q38 6 75 6q38 0 74 -6v-261q0 -50 20 -73t71 -23q44 0 75 15v342q38 6 74 6z" />
    <glyph glyph-name="uacute" unicode="&#xfa;" horiz-adv-x="563" 
d="M201 515q-31 21 -42 63l176 158q31 -17 52 -47t28 -68zM437 476q38 0 75 -6v-432q-36 -20 -98.5 -37.5t-137.5 -17.5q-44 0 -86 9t-73.5 31.5t-50 59.5t-18.5 93v294q38 6 75 6q38 0 74 -6v-261q0 -50 20 -73t71 -23q44 0 75 15v342q38 6 74 6z" />
    <glyph glyph-name="ucircumflex" unicode="&#xfb;" horiz-adv-x="563" 
d="M168 522q-19 7 -35 24t-21 36l127 135q42 9 84 0l122 -129q-5 -21 -21.5 -39t-35.5 -27l-110 86zM437 476q38 0 75 -6v-432q-36 -20 -98.5 -37.5t-137.5 -17.5q-44 0 -86 9t-73.5 31.5t-50 59.5t-18.5 93v294q38 6 75 6q38 0 74 -6v-261q0 -50 20 -73t71 -23q44 0 75 15
v342q38 6 74 6z" />
    <glyph glyph-name="udieresis" unicode="&#xfc;" horiz-adv-x="563" 
d="M169 541q-31 0 -53.5 22.5t-22.5 53.5t22.5 53t53.5 22t53.5 -22t22.5 -53t-22.5 -53.5t-53.5 -22.5zM394 541q-30 0 -53 22.5t-23 53.5t22.5 53t53.5 22t53.5 -22t22.5 -53t-22.5 -53.5t-53.5 -22.5zM437 476q38 0 75 -6v-432q-36 -20 -98.5 -37.5t-137.5 -17.5
q-44 0 -86 9t-73.5 31.5t-50 59.5t-18.5 93v294q38 6 75 6q38 0 74 -6v-261q0 -50 20 -73t71 -23q44 0 75 15v342q38 6 74 6z" />
    <glyph glyph-name="yacute" unicode="&#xfd;" horiz-adv-x="531" 
d="M193 515q-31 21 -42 63l176 158q31 -17 52 -47t28 -68zM423 477q50 0 96 -12q-31 -229 -122 -397.5t-249 -281.5q-32 11 -55.5 40t-33.5 63q90 71 130 126q-68 106 -108.5 211t-69.5 240q18 4 50 7.5t59 3.5q31 0 56 -3q12 -75 36.5 -162.5t55.5 -160.5l10 -27q3 16 8 27
q53 123 78 323q29 3 59 3z" />
    <glyph glyph-name="thorn" unicode="&#xfe;" horiz-adv-x="572" 
d="M282 488q55 0 103 -15.5t83.5 -46.5t55 -78t19.5 -108q0 -57 -20 -105t-56 -82t-84 -52t-101 -18q-45 0 -80 9v-176q-36 -6 -74 -6q-37 0 -75 6v839q36 6 73 6t76 -6v-176q36 9 80 9zM272 113q25 0 54 10.5t48.5 40.5t19.5 71q0 56 -34 87.5t-90 31.5q-35 0 -68 -11v-218
q29 -12 70 -12z" />
    <glyph glyph-name="ydieresis" unicode="&#xff;" horiz-adv-x="531" 
d="M161 541q-31 0 -53.5 22.5t-22.5 53.5t22.5 53t53.5 22t53.5 -22t22.5 -53t-22.5 -53.5t-53.5 -22.5zM386 541q-30 0 -53 22.5t-23 53.5t22.5 53t53.5 22t53.5 -22t22.5 -53t-22.5 -53.5t-53.5 -22.5zM423 477q50 0 96 -12q-31 -229 -122 -397.5t-249 -281.5
q-32 11 -55.5 40t-33.5 63q90 71 130 126q-68 106 -108.5 211t-69.5 240q18 4 50 7.5t59 3.5q31 0 56 -3q12 -75 36.5 -162.5t55.5 -160.5l10 -27q3 16 8 27q53 123 78 323q29 3 59 3z" />
    <glyph glyph-name="Amacron" unicode="&#x100;" horiz-adv-x="628" 
d="M471 723h-314q-9 23 -9 49q0 28 9 52h314q7 -28 7 -51q0 -24 -7 -50zM389 642l238 -635q-53 -12 -96 -12q-27 0 -55 5l-46 127h-238l-46 -127q-29 -4 -68 -4q-49 0 -79 11l240 635q30 6 77 6q43 0 73 -6zM238 251h146l-54 148l-20 62l-18 -62z" />
    <glyph glyph-name="amacron" unicode="&#x101;" horiz-adv-x="521" 
d="M407 569h-311q-9 22 -9 55q0 34 9 57h311q7 -30 7 -56t-7 -56zM247 488q80 0 131 -25.5t76.5 -70.5t25.5 -112v-249q-115 -47 -240 -47q-103 0 -159 39.5t-56 116.5q0 27 10 54t35 48.5t65 34.5t97 13q60 -2 100 -14v19q0 32 -24 51t-74 19q-38 0 -73 -12.5t-56 -28.5
q-24 14 -41.5 38.5t-22.5 56.5q18 16 53.5 34t76.5 26.5t76 8.5zM174 146q0 -26 22.5 -42t63.5 -16q34 0 72 11v87q-38 11 -82 11q-36 0 -56 -13t-20 -38z" />
    <glyph glyph-name="Abreve" unicode="&#x102;" horiz-adv-x="628" 
d="M316 689q-52 0 -91 19.5t-63 55t-24 81.5q35 16 88 11q7 -25 24 -39.5t35.5 -18.5t32.5 -4q22 0 42.5 8t31 23t13.5 31q50 6 85 -11q0 -45 -24 -81t-62 -55.5t-88 -19.5zM389 642l238 -635q-53 -12 -96 -12q-27 0 -55 5l-46 127h-238l-46 -127q-29 -4 -68 -4
q-49 0 -79 11l240 635q30 6 77 6q43 0 73 -6zM238 251h146l-54 148l-20 62l-18 -62z" />
    <glyph glyph-name="abreve" unicode="&#x103;" horiz-adv-x="521" 
d="M253 528q-54 0 -94.5 21.5t-64.5 60t-24 85.5q43 17 97 11q4 -18 15 -36t31 -28.5t42 -10.5t42 11t30 29t12 35q27 3 51 0t43 -13q0 -45 -24 -83.5t-63.5 -60t-92.5 -21.5zM247 488q80 0 131 -25.5t76.5 -70.5t25.5 -112v-249q-115 -47 -240 -47q-103 0 -159 39.5
t-56 116.5q0 27 10 54t35 48.5t65 34.5t97 13q60 -2 100 -14v19q0 32 -24 51t-74 19q-38 0 -73 -12.5t-56 -28.5q-24 14 -41.5 38.5t-22.5 56.5q18 16 53.5 34t76.5 26.5t76 8.5zM174 146q0 -26 22.5 -42t63.5 -16q34 0 72 11v87q-38 11 -82 11q-36 0 -56 -13t-20 -38z" />
    <glyph glyph-name="Aogonek" unicode="&#x104;" horiz-adv-x="628" 
d="M592 -91q19 -11 33 -32.5t14 -44.5q-19 -20 -51 -33.5t-74 -13.5q-49 0 -81.5 26.5t-32.5 71.5q0 28 18 60t58 57l-46 127h-238l-46 -127q-29 -4 -68 -4q-49 0 -79 11l240 635q30 6 77 6q43 0 73 -6l238 -635q-64 -15 -92.5 -36.5t-28.5 -46.5q0 -13 8.5 -24t27.5 -11
q26 0 50 20zM238 251h146l-54 148l-20 62l-18 -62z" />
    <glyph glyph-name="aogonek" unicode="&#x105;" horiz-adv-x="521" 
d="M450 -93q19 -12 33 -33t14 -44q-41 -41 -110 -41q-24 0 -50.5 8.5t-44 31.5t-17.5 55q0 56 60 107q-52 -7 -95 -7q-103 0 -159 39.5t-56 116.5q0 27 10 54t35 48.5t65 34.5t97 13q60 -2 100 -14v19q0 32 -24 51t-74 19q-38 0 -73 -12.5t-56 -28.5q-24 14 -41.5 38.5
t-22.5 56.5q18 16 53.5 34t76.5 26.5t76 8.5q80 0 131 -25.5t76.5 -70.5t25.5 -112v-249q-42 -20 -70 -51.5t-28 -55.5q0 -16 9.5 -23.5t21.5 -7.5q19 0 37 14zM174 146q0 -26 22.5 -42t63.5 -16q34 0 72 11v87q-38 11 -82 11q-36 0 -56 -13t-20 -38z" />
    <glyph glyph-name="Cacute" unicode="&#x106;" horiz-adv-x="591" 
d="M246 679q-26 23 -31 61l208 140q59 -43 61 -124zM363 -18q-74 0 -136 24.5t-105.5 70t-66.5 108.5t-23 136t24.5 136.5t70 109.5t108 71t134.5 25q63 0 113.5 -17t84.5 -45q-5 -34 -27.5 -67t-53.5 -50q-53 37 -113 37q-81 0 -130 -53.5t-49 -146.5q0 -90 48.5 -144.5
t126.5 -54.5q33 0 65.5 9t63.5 36q35 -20 54.5 -48.5t26.5 -71.5q-80 -65 -216 -65z" />
    <glyph glyph-name="cacute" unicode="&#x107;" horiz-adv-x="474" 
d="M192 515q-31 21 -42 63l176 158q31 -17 52 -47t28 -68zM290 -17q-121 0 -191 67t-70 186q0 57 19.5 104.5t54 81t82 51.5t101.5 18q50 0 96 -16t69 -37q-7 -29 -28.5 -58.5t-48.5 -46.5q-37 33 -84 33q-52 0 -81.5 -36t-29.5 -92t29 -93t83 -37q24 0 46.5 7t45.5 28
q57 -28 76 -98q-29 -26 -72.5 -44t-96.5 -18z" />
    <glyph glyph-name="Cdotaccent" unicode="&#x10a;" horiz-adv-x="591" 
d="M346 690q-27 0 -49 15t-31 36t-9 38t9 37.5t31.5 35.5t48.5 15q17 0 38 -9t36 -31t15 -48q0 -17 -9 -38t-31 -36t-49 -15zM363 -18q-74 0 -136 24.5t-105.5 70t-66.5 108.5t-23 136t24.5 136.5t70 109.5t108 71t134.5 25q63 0 113.5 -17t84.5 -45q-5 -34 -27.5 -67
t-53.5 -50q-53 37 -113 37q-81 0 -130 -53.5t-49 -146.5q0 -90 48.5 -144.5t126.5 -54.5q33 0 65.5 9t63.5 36q35 -20 54.5 -48.5t26.5 -71.5q-80 -65 -216 -65z" />
    <glyph glyph-name="cdotaccent" unicode="&#x10b;" horiz-adv-x="474" 
d="M273 535q-36 0 -63 27t-27 63q0 17 9 38t31.5 36t49.5 15q36 0 63 -26.5t27 -62.5t-27 -63t-63 -27zM290 -17q-121 0 -191 67t-70 186q0 57 19.5 104.5t54 81t82 51.5t101.5 18q50 0 96 -16t69 -37q-7 -29 -28.5 -58.5t-48.5 -46.5q-37 33 -84 33q-52 0 -81.5 -36
t-29.5 -92t29 -93t83 -37q24 0 46.5 7t45.5 28q57 -28 76 -98q-29 -26 -72.5 -44t-96.5 -18z" />
    <glyph glyph-name="Ccaron" unicode="&#x10c;" horiz-adv-x="591" 
d="M307 697l-131 105q4 19 16.5 37.5t29.5 28.5l130 -74l122 74q15 -8 27.5 -25.5t16.5 -36.5l-129 -109q-40 -10 -82 0zM363 -18q-74 0 -136 24.5t-105.5 70t-66.5 108.5t-23 136t24.5 136.5t70 109.5t108 71t134.5 25q63 0 113.5 -17t84.5 -45q-5 -34 -27.5 -67t-53.5 -50
q-53 37 -113 37q-81 0 -130 -53.5t-49 -146.5q0 -90 48.5 -144.5t126.5 -54.5q33 0 65.5 9t63.5 36q35 -20 54.5 -48.5t26.5 -71.5q-80 -65 -216 -65z" />
    <glyph glyph-name="ccaron" unicode="&#x10d;" horiz-adv-x="474" 
d="M227 530l-122 129q4 19 19 37.5t38 28.5l109 -86l111 86q19 -7 35 -24t21 -36l-128 -135q-41 -9 -83 0zM290 -17q-121 0 -191 67t-70 186q0 57 19.5 104.5t54 81t82 51.5t101.5 18q50 0 96 -16t69 -37q-7 -29 -28.5 -58.5t-48.5 -46.5q-37 33 -84 33q-52 0 -81.5 -36
t-29.5 -92t29 -93t83 -37q24 0 46.5 7t45.5 28q57 -28 76 -98q-29 -26 -72.5 -44t-96.5 -18z" />
    <glyph glyph-name="Dcaron" unicode="&#x10e;" horiz-adv-x="673" 
d="M352 697q-40 -10 -82 0l-131 105q4 19 16.5 37.5t29.5 28.5l130 -74l122 74q15 -8 27.5 -25.5t16.5 -36.5zM273 655q86 0 155.5 -23.5t116.5 -66.5t71.5 -104t24.5 -133q0 -77 -26 -140.5t-74 -108t-116 -68t-149 -23.5q-114 0 -210 13v638q92 16 207 16zM284 127
q91 0 142 54t51 145q0 87 -51.5 138t-145.5 51q-41 0 -64 -2v-384z" />
    <glyph glyph-name="dcaron" unicode="&#x10f;" horiz-adv-x="574" 
d="M698 723q6 -24 6 -51q0 -52 -23.5 -102.5t-58.5 -77.5q-14 1 -30.5 9.5t-23.5 20.5q23 50 23 121q0 47 -14 79q27 14 63 14q39 0 58 -13zM371 657q38 6 74 6q38 0 75 -6v-627q-40 -20 -98 -33.5t-116 -13.5q-47 0 -95.5 11t-93.5 43t-66.5 85t-21.5 112q0 42 12 80
t33.5 68.5t51 52.5t72 37.5t96.5 15.5q44 0 77 -9v178zM301 110q13 0 35 3t35 6v228q-28 14 -68 14q-54 0 -89 -34t-35 -91q0 -26 11.5 -56t41.5 -50t69 -20z" />
    <glyph glyph-name="Dcroat" unicode="&#x110;" horiz-adv-x="673" 
d="M273 655q86 0 155.5 -23.5t116.5 -66.5t71.5 -104t24.5 -133q0 -77 -26 -140.5t-74 -108t-116 -68t-149 -23.5q-114 0 -210 13v272h-70q-8 22 -8 49q0 26 8 53h70v264q92 16 207 16zM284 127q91 0 142 54t51 145q0 87 -51.5 138t-145.5 51q-41 0 -64 -2v-138h97
q7 -22 7 -52q0 -29 -7 -50h-97v-144z" />
    <glyph glyph-name="dcroat" unicode="&#x111;" horiz-adv-x="572" 
d="M606 577q0 -23 -6 -43h-80v-504q-40 -20 -98 -33.5t-116 -13.5q-47 0 -95.5 11t-93.5 43t-66.5 85t-21.5 112q0 42 12 80t33.5 68.5t51 52.5t72 37.5t96.5 15.5q44 0 77 -9v55h-79q-7 17 -7 42t7 46h79v35q38 6 74 6q38 0 75 -6v-35h80q6 -21 6 -45zM301 110q13 0 35 3
t35 6v228q-28 14 -68 14q-54 0 -89 -34t-35 -91q0 -26 11.5 -56t41.5 -50t69 -20z" />
    <glyph glyph-name="Emacron" unicode="&#x112;" horiz-adv-x="543" 
d="M447 723h-314q-9 23 -9 49q0 28 9 52h314q7 -28 7 -51q0 -24 -7 -50zM501 133q7 -31 7 -66q0 -36 -7 -67h-434v642h424q8 -28 8 -67q0 -37 -8 -66h-275v-116h245q7 -31 7 -66q0 -34 -7 -65h-245v-129h285z" />
    <glyph glyph-name="emacron" unicode="&#x113;" horiz-adv-x="533" 
d="M427 569h-311q-9 22 -9 55q0 34 9 57h311q7 -30 7 -56t-7 -56zM502 270q0 -40 -5 -70h-316q13 -97 117 -97q31 0 63.5 10t76.5 38q22 -17 36.5 -45t17.5 -56q-88 -67 -210 -67q-54 0 -101 17t-81 49t-52.5 79t-18.5 105q0 54 18.5 101.5t52.5 82t79.5 53t97.5 18.5
q49 0 91 -15.5t72 -44t46 -69.5t16 -89zM181 284h180q0 27 -11 49t-31 31.5t-41 10.5q-41 0 -66.5 -25t-30.5 -66z" />
    <glyph glyph-name="Edotaccent" unicode="&#x116;" horiz-adv-x="543" 
d="M289 690q-27 0 -49 15t-31 36t-9 38t9 37.5t31.5 35.5t48.5 15q17 0 38 -9t36 -31t15 -48q0 -17 -9 -38t-31 -36t-49 -15zM501 133q7 -31 7 -66q0 -36 -7 -67h-434v642h424q8 -28 8 -67q0 -37 -8 -66h-275v-116h245q7 -31 7 -66q0 -34 -7 -65h-245v-129h285z" />
    <glyph glyph-name="edotaccent" unicode="&#x117;" horiz-adv-x="533" 
d="M272 535q-36 0 -63 27t-27 63q0 17 9 38t31.5 36t49.5 15q36 0 63 -26.5t27 -62.5t-27 -63t-63 -27zM502 270q0 -40 -5 -70h-316q13 -97 117 -97q31 0 63.5 10t76.5 38q22 -17 36.5 -45t17.5 -56q-88 -67 -210 -67q-54 0 -101 17t-81 49t-52.5 79t-18.5 105
q0 54 18.5 101.5t52.5 82t79.5 53t97.5 18.5q49 0 91 -15.5t72 -44t46 -69.5t16 -89zM181 284h180q0 27 -11 49t-31 31.5t-41 10.5q-41 0 -66.5 -25t-30.5 -66z" />
    <glyph glyph-name="Eogonek" unicode="&#x118;" horiz-adv-x="543" 
d="M507 -91q19 -12 33 -32.5t14 -44.5q-47 -47 -122 -47q-36 0 -65 15.5t-40.5 39t-11.5 44.5q0 19 9 42t30 43.5t46 30.5h-333v642h424q8 -28 8 -67q0 -37 -8 -66h-275v-116h245q7 -31 7 -66q0 -34 -7 -65h-245v-129h285q7 -31 7 -66q0 -36 -7 -67q-79 -36 -79 -77
q0 -17 11 -25.5t25 -8.5q25 0 49 20z" />
    <glyph glyph-name="eogonek" unicode="&#x119;" horiz-adv-x="533" 
d="M502 270q0 -40 -5 -70h-316q13 -97 117 -97q31 0 63.5 10t76.5 38q22 -17 36.5 -45t17.5 -56l-28 -19h2q-42 -20 -70 -51.5t-28 -55.5q0 -16 9.5 -23.5t21.5 -7.5q19 0 37 14q19 -12 33 -33t14 -44q-41 -41 -110 -41q-24 0 -50.5 8.5t-44 31.5t-17.5 55q0 52 53 100
l-32 -1q-54 0 -101 17t-81 49t-52.5 79t-18.5 105q0 54 18.5 101.5t52.5 82t79.5 53t97.5 18.5q49 0 91 -15.5t72 -44t46 -69.5t16 -89zM181 284h180q0 27 -11 49t-31 31.5t-41 10.5q-41 0 -66.5 -25t-30.5 -66z" />
    <glyph glyph-name="Ecaron" unicode="&#x11a;" horiz-adv-x="543" 
d="M331 697q-40 -10 -82 0l-131 105q4 19 16.5 37.5t29.5 28.5l130 -74l122 74q15 -8 27.5 -25.5t16.5 -36.5zM501 133q7 -31 7 -66q0 -36 -7 -67h-434v642h424q8 -28 8 -67q0 -37 -8 -66h-275v-116h245q7 -31 7 -66q0 -34 -7 -65h-245v-129h285z" />
    <glyph glyph-name="ecaron" unicode="&#x11b;" horiz-adv-x="533" 
d="M309 530q-41 -9 -83 0l-122 129q4 19 19 37.5t38 28.5l109 -86l111 86q19 -7 35 -24t21 -36zM502 270q0 -40 -5 -70h-316q13 -97 117 -97q31 0 63.5 10t76.5 38q22 -17 36.5 -45t17.5 -56q-88 -67 -210 -67q-54 0 -101 17t-81 49t-52.5 79t-18.5 105q0 54 18.5 101.5
t52.5 82t79.5 53t97.5 18.5q49 0 91 -15.5t72 -44t46 -69.5t16 -89zM181 284h180q0 27 -11 49t-31 31.5t-41 10.5q-41 0 -66.5 -25t-30.5 -66z" />
    <glyph glyph-name="Gbreve" unicode="&#x11e;" horiz-adv-x="647" 
d="M354 689q-52 0 -91 19.5t-63 55t-24 81.5q35 16 88 11q7 -25 24 -39.5t35.5 -18.5t32.5 -4q22 0 42.5 8t31 23t13.5 31q50 6 85 -11q0 -45 -24 -81t-62 -55.5t-88 -19.5zM352 374h251v-341q-98 -52 -230 -52q-77 0 -141 23.5t-108.5 68t-68 107.5t-23.5 139
q0 75 24.5 139t70.5 110t110 70.5t139 24.5q63 0 116.5 -15.5t88.5 -39.5q-5 -38 -25.5 -72t-50.5 -52q-55 36 -131 36q-82 0 -131 -52.5t-49 -146.5t45.5 -147t133.5 -53q49 0 84 8v108h-105q-6 29 -6 70t6 67z" />
    <glyph glyph-name="gbreve" unicode="&#x11f;" horiz-adv-x="564" 
d="M290 528q-54 0 -94.5 21.5t-64.5 60t-24 85.5q43 17 97 11q4 -18 15 -36t31 -28.5t42 -10.5t42 11t30 29t12 35q27 3 51 0t43 -13q0 -45 -24 -83.5t-63.5 -60t-92.5 -21.5zM294 491q64 0 122 -19.5t97 -49.5v-393q0 -42 -12.5 -84t-42.5 -74.5t-78.5 -52.5t-115.5 -20
q-59 0 -109 15t-79.5 35.5t-45.5 38.5q5 29 26.5 56t54.5 38q57 -65 145 -65q27 0 53 8t40.5 28.5t14.5 49.5v17q-36 -11 -81 -11q-52 0 -98.5 15t-81.5 44.5t-55 73.5t-20 99q0 58 21 105t57.5 79.5t85 49.5t102.5 17zM297 128q37 0 67 12v212q-34 13 -67 13
q-50 0 -84.5 -32.5t-34.5 -86.5q0 -25 11 -53t40.5 -46.5t67.5 -18.5z" />
    <glyph glyph-name="Gdotaccent" unicode="&#x120;" horiz-adv-x="647" 
d="M351 690q-27 0 -49 15t-31 36t-9 38t9 37.5t31.5 35.5t48.5 15q17 0 38 -9t36 -31t15 -48q0 -17 -9 -38t-31 -36t-49 -15zM352 374h251v-341q-98 -52 -230 -52q-77 0 -141 23.5t-108.5 68t-68 107.5t-23.5 139q0 75 24.5 139t70.5 110t110 70.5t139 24.5
q63 0 116.5 -15.5t88.5 -39.5q-5 -38 -25.5 -72t-50.5 -52q-55 36 -131 36q-82 0 -131 -52.5t-49 -146.5t45.5 -147t133.5 -53q49 0 84 8v108h-105q-6 29 -6 70t6 67z" />
    <glyph glyph-name="gdotaccent" unicode="&#x121;" horiz-adv-x="564" 
d="M288 535q-36 0 -63 27t-27 63q0 17 9 38t31.5 36t49.5 15q36 0 63 -26.5t27 -62.5t-27 -63t-63 -27zM294 491q64 0 122 -19.5t97 -49.5v-393q0 -42 -12.5 -84t-42.5 -74.5t-78.5 -52.5t-115.5 -20q-59 0 -109 15t-79.5 35.5t-45.5 38.5q5 29 26.5 56t54.5 38
q57 -65 145 -65q27 0 53 8t40.5 28.5t14.5 49.5v17q-36 -11 -81 -11q-52 0 -98.5 15t-81.5 44.5t-55 73.5t-20 99q0 58 21 105t57.5 79.5t85 49.5t102.5 17zM297 128q37 0 67 12v212q-34 13 -67 13q-50 0 -84.5 -32.5t-34.5 -86.5q0 -25 11 -53t40.5 -46.5t67.5 -18.5z" />
    <glyph glyph-name="Gcommaaccent" unicode="&#x122;" horiz-adv-x="647" 
d="M352 374h251v-341q-98 -52 -230 -52q-77 0 -141 23.5t-108.5 68t-68 107.5t-23.5 139q0 75 24.5 139t70.5 110t110 70.5t139 24.5q63 0 116.5 -15.5t88.5 -39.5q-5 -38 -25.5 -72t-50.5 -52q-55 36 -131 36q-82 0 -131 -52.5t-49 -146.5t45.5 -147t133.5 -53q49 0 84 8
v108h-105q-6 29 -6 70t6 67zM368 -39q35 0 57 -11q3 -16 3 -33q0 -48 -22.5 -91t-60.5 -68q-14 1 -30 9.5t-25 22.5q24 44 24 100q0 30 -10 59q25 12 64 12z" />
    <glyph glyph-name="gcommaaccent" unicode="&#x123;" horiz-adv-x="564" 
d="M282 510q-35 0 -57 11q-3 17 -3 33q0 48 22.5 91t60.5 68q14 -1 30 -9.5t25 -22.5q-24 -44 -24 -100q0 -30 10 -59q-25 -12 -64 -12zM294 491q64 0 122 -19.5t97 -49.5v-393q0 -42 -12.5 -84t-42.5 -74.5t-78.5 -52.5t-115.5 -20q-59 0 -109 15t-79.5 35.5t-45.5 38.5
q5 29 26.5 56t54.5 38q57 -65 145 -65q27 0 53 8t40.5 28.5t14.5 49.5v17q-36 -11 -81 -11q-52 0 -98.5 15t-81.5 44.5t-55 73.5t-20 99q0 58 21 105t57.5 79.5t85 49.5t102.5 17zM297 128q37 0 67 12v212q-34 13 -67 13q-50 0 -84.5 -32.5t-34.5 -86.5q0 -25 11 -53
t40.5 -46.5t67.5 -18.5z" />
    <glyph glyph-name="Hbar" unicode="&#x126;" horiz-adv-x="684" 
d="M700 501q0 -20 -7 -45h-75v-456q-36 -6 -73 -6q-36 0 -77 6v256h-252v-256q-36 -6 -74 -6q-36 0 -75 6v456h-72q-8 21 -8 44q0 9 2.5 24t5.5 24h72v93q35 6 72 6t77 -6v-93h252v93q36 6 74 6q36 0 76 -6v-93h75q7 -24 7 -47zM468 393v63h-252v-63h252z" />
    <glyph glyph-name="hbar" unicode="&#x127;" horiz-adv-x="569" 
d="M305 491q38 0 76.5 -9.5t69.5 -32.5t50.5 -60t19.5 -87v-302q-37 -6 -75 -6q-36 0 -74 6v264q0 92 -88 92q-42 0 -81 -22v-334q-36 -6 -74 -6q-35 0 -76 6v535h-65q-7 17 -7 42t7 46h65v32q36 6 74 6q36 0 76 -6v-32h93q6 -21 6 -45q0 -23 -6 -43h-93v-64q48 20 102 20z
" />
    <glyph glyph-name="Itilde" unicode="&#x128;" horiz-adv-x="282" 
d="M202 690q-29 0 -65.5 17.5t-46.5 17.5q-5 0 -15 -3.5t-14 -12t-5 -15.5q-29 -5 -56 3.5t-42 24.5q9 56 42.5 89t74.5 33q27 0 64.5 -17.5t46.5 -17.5q15 0 22.5 10t8.5 22q27 5 54 -3.5t45 -25.5q-5 -27 -18 -56t-39 -47.5t-57 -18.5zM143 -6q-37 0 -76 6v641q29 6 73 6
t76 -6v-641q-36 -6 -73 -6z" />
    <glyph glyph-name="itilde" unicode="&#x129;" horiz-adv-x="256" 
d="M188 558q-26 0 -57 13.5t-43 13.5q-14 0 -23 -8.5t-11 -23.5q-31 -4 -58 5t-41 25q3 26 17 52.5t42 44.5t58 18q24 0 55 -13.5t43 -13.5q27 0 33 31q29 4 56 -4.5t42 -25.5q-6 -52 -38.5 -83t-74.5 -31zM128 -6q-36 0 -74 6v475q36 6 74 6q36 0 75 -6v-475q-36 -6 -75 -6
z" />
    <glyph glyph-name="Imacron" unicode="&#x12a;" horiz-adv-x="282" 
d="M13 718q-7 22 -7 54t7 57h258q6 -34 6 -56q0 -21 -6 -55h-258zM143 -6q-37 0 -76 6v641q29 6 73 6t76 -6v-641q-36 -6 -73 -6z" />
    <glyph glyph-name="imacron" unicode="&#x12b;" horiz-adv-x="256" 
d="M8 570q-6 26 -6 55q0 30 6 57h240q5 -28 5 -56t-5 -56h-240zM128 -6q-36 0 -74 6v475q36 6 74 6q36 0 75 -6v-475q-36 -6 -75 -6z" />
    <glyph glyph-name="Iogonek" unicode="&#x12e;" horiz-adv-x="282" 
d="M200 -91q19 -11 33 -32.5t14 -44.5q-19 -20 -51 -33.5t-74 -13.5q-49 0 -81.5 26.5t-32.5 71.5q0 28 13.5 59t45.5 58v641q29 6 73 6t76 -6v-641q-101 -24 -101 -77q0 -13 8 -23.5t27 -10.5q26 0 50 20z" />
    <glyph glyph-name="iogonek" unicode="&#x12f;" horiz-adv-x="256" 
d="M134 536q-17 0 -38 9t-36.5 31.5t-15.5 49.5q0 17 9 37.5t31.5 36t49.5 15.5q17 0 38 -9t36.5 -31.5t15.5 -48.5q0 -17 -9 -38.5t-31.5 -36.5t-49.5 -15zM192 -98q19 -11 33 -32.5t14 -44.5q-20 -20 -53.5 -33.5t-78.5 -13.5q-22 0 -49 9.5t-46.5 34.5t-19.5 58
q0 37 17.5 68.5t44.5 51.5v475q36 6 74 6q36 0 75 -6v-475q-100 -31 -100 -82q0 -18 10 -27t27 -9q23 0 52 20z" />
    <glyph glyph-name="Idotaccent" unicode="&#x130;" horiz-adv-x="282" 
d="M141 690q-27 0 -49 15t-31 36t-9 38t9 37.5t31.5 35.5t48.5 15q17 0 38 -9t36 -31t15 -48q0 -17 -9 -38t-31 -36t-49 -15zM143 -6q-37 0 -76 6v641q29 6 73 6t76 -6v-641q-36 -6 -73 -6z" />
    <glyph glyph-name="dotlessi" unicode="&#x131;" horiz-adv-x="256" 
d="M128 -6q-36 0 -74 6v475q36 6 74 6q36 0 75 -6v-475q-36 -6 -75 -6z" />
    <glyph glyph-name="IJ" unicode="&#x132;" horiz-adv-x="573" 
d="M136 173q-36 0 -77 6v462q36 6 74 6q37 0 76 -6v-462q-34 -6 -73 -6zM303 -34q-48 0 -89 16t-62 37q1 18 8.5 41t24.5 45.5t38 33.5q33 -33 74 -33q65 0 65 68v467q35 6 74 6q36 0 76 -6v-464q0 -95 -56 -153t-153 -58z" />
    <glyph glyph-name="ij" unicode="&#x133;" horiz-adv-x="516" 
d="M129 536q-36 0 -63 27t-27 63q0 17 9 38t31.5 36t49.5 15q36 0 63 -26.5t27 -62.5t-27 -63t-63 -27zM387 535q-36 0 -63 27t-27 63q0 17 9 38t31.5 36t49.5 15q36 0 63 -26.5t27 -62.5t-27 -63t-63 -27zM128 -6q-36 0 -74 6v475q36 6 74 6q36 0 75 -6v-475q-36 -6 -75 -6
zM274 -199q-40 0 -73 10.5t-52 27.5q1 27 18.5 57.5t42.5 46.5q23 -18 48 -18q56 0 56 68v481q28 6 73 6t76 -6v-475q0 -35 -9.5 -70.5t-32.5 -63.5t-60 -46t-87 -18z" />
    <glyph glyph-name="Kcommaaccent" unicode="&#x136;" horiz-adv-x="635" 
d="M377 342l273 -336q-48 -8 -113 -8l-79 2l-197 246l-45 -33v-213q-36 -6 -74 -6q-36 0 -75 6v641q35 6 72 6t77 -6v-260q71 58 122 118t104 145q35 3 75 3q54 0 100 -6q-102 -170 -240 -299zM319 -39q35 0 57 -11q3 -16 3 -33q0 -48 -22.5 -91t-60.5 -68q-14 1 -30 9.5
t-25 22.5q24 44 24 100q0 30 -10 59q25 12 64 12z" />
    <glyph glyph-name="kcommaaccent" unicode="&#x137;" horiz-adv-x="546" 
d="M351 236l205 -231q-13 -5 -45 -8.5t-64 -3.5q-49 0 -76 3l-138 157l-31 -15v-138q-34 -6 -73 -6q-35 0 -76 6v655q36 6 73 6t76 -6v-361q48 31 89.5 77.5t69.5 99.5q25 3 73 3q56 0 97 -7q-79 -140 -180 -231zM265 -39q35 0 57 -11q3 -16 3 -33q0 -48 -22.5 -91
t-60.5 -68q-14 1 -30 9.5t-25 22.5q24 44 24 100q0 30 -10 59q25 12 64 12z" />
    <glyph glyph-name="kgreenlandic" unicode="&#x138;" horiz-adv-x="548" 
d="M347 241l212 -236q-14 -5 -46.5 -8.5t-65.5 -3.5q-49 0 -75 3l-143 160l-28 -14v-142q-34 -6 -73 -6q-36 0 -75 6v470q35 6 72 6t76 -6v-172q47 33 89 79t69 94q23 3 73 3q56 0 97 -7q-78 -133 -182 -226z" />
    <glyph glyph-name="Lacute" unicode="&#x139;" horiz-adv-x="500" 
d="M309 756l-238 -77q-26 23 -31 61l208 140q59 -43 61 -124zM480 134q7 -32 7 -67q0 -36 -7 -67h-413v642q44 7 74 7q31 0 75 -7v-508h264z" />
    <glyph glyph-name="lacute" unicode="&#x13a;" horiz-adv-x="258" 
d="M30 679q-26 23 -31 61l208 140q59 -43 61 -124zM130 -6q-37 0 -76 6v655q35 6 73 6t77 -6v-655q-34 -6 -74 -6z" />
    <glyph glyph-name="Lcommaaccent" unicode="&#x13b;" horiz-adv-x="500" 
d="M480 134q7 -32 7 -67q0 -36 -7 -67h-413v642q44 7 74 7q31 0 75 -7v-508h264zM279 -39q35 0 57 -11q3 -16 3 -33q0 -48 -22.5 -91t-60.5 -68q-14 1 -30 9.5t-25 22.5q24 44 24 100q0 30 -10 59q25 12 64 12z" />
    <glyph glyph-name="lcommaaccent" unicode="&#x13c;" horiz-adv-x="258" 
d="M130 -6q-37 0 -76 6v655q35 6 73 6t77 -6v-655q-34 -6 -74 -6zM107 -242q-14 1 -30 9.5t-25 22.5q24 44 24 100q0 30 -10 59q25 12 64 12q35 0 57 -11q3 -16 3 -33q0 -48 -22.5 -91t-60.5 -68z" />
    <glyph glyph-name="Lcaron" unicode="&#x13d;" horiz-adv-x="500" 
d="M370 492q-14 1 -30.5 9.5t-23.5 20.5q23 50 23 121q0 47 -14 79q27 14 63 14q39 0 58 -13q6 -24 6 -51q0 -52 -23.5 -102.5t-58.5 -77.5zM480 134q7 -32 7 -67q0 -36 -7 -67h-413v642q44 7 74 7q31 0 75 -7v-508h264z" />
    <glyph glyph-name="lcaron" unicode="&#x13e;" horiz-adv-x="260" 
d="M302 492q-14 1 -30.5 9.5t-23.5 20.5q23 50 23 121q0 47 -14 79q27 14 63 14q39 0 58 -13q6 -24 6 -51q0 -52 -23.5 -102.5t-58.5 -77.5zM130 -6q-37 0 -76 6v655q35 6 73 6t77 -6v-655q-34 -6 -74 -6z" />
    <glyph glyph-name="Ldot" unicode="&#x13f;" horiz-adv-x="505" 
d="M480 134q7 -32 7 -67q0 -36 -7 -67h-413v642q44 7 74 7q31 0 75 -7v-508h264zM386 268q-15 0 -34 8t-33 29t-14 45q0 32 24 56t57 24t57 -24t24 -56q0 -24 -14 -45t-33 -29t-34 -8z" />
    <glyph glyph-name="ldot" unicode="&#x140;" horiz-adv-x="373" 
d="M130 -6q-37 0 -76 6v655q35 6 73 6t77 -6v-655q-34 -6 -74 -6zM314 245q-32 0 -56 25t-24 57t24 56t56 24q33 0 57.5 -24t24.5 -56q0 -33 -24.5 -57.5t-57.5 -24.5z" />
    <glyph glyph-name="Lslash" unicode="&#x141;" horiz-adv-x="500" 
d="M480 134q7 -32 7 -67q0 -36 -7 -67h-413v229l-47 -25q-16 12 -28.5 37t-13.5 47l89 47v307q44 7 74 7q31 0 75 -7v-227l60 32q14 -15 25.5 -40t14.5 -45l-100 -53v-175h264z" />
    <glyph glyph-name="lslash" unicode="&#x142;" horiz-adv-x="258" 
d="M291 367l-87 -45v-322q-34 -6 -74 -6q-37 0 -76 6v243l-48 -25q-16 12 -28.5 36.5t-13.5 45.5l90 47v308q35 6 73 6t77 -6v-229l47 25q15 -16 26 -39t14 -45z" />
    <glyph glyph-name="Nacute" unicode="&#x143;" horiz-adv-x="689" 
d="M250 679q-26 23 -31 61l208 140q59 -43 61 -124zM547 647q36 0 76 -6v-638q-69 -13 -143 -8l-248 365l-21 38l4 -46v-352q-39 -6 -75 -6q-31 0 -73 6v636q27 9 69 11.5t74 -1.5l247 -373l22 -39l-4 51v356q41 6 72 6z" />
    <glyph glyph-name="nacute" unicode="&#x144;" horiz-adv-x="568" 
d="M200 515q-31 21 -42 63l176 158q31 -17 52 -47t28 -68zM291 491q57 0 101 -15t72 -42t42 -64.5t14 -81.5v-288q-37 -6 -75 -6q-37 0 -75 6v264q0 23 -8 45.5t-30 34.5t-52 12q-10 0 -33.5 -3.5t-46.5 -16.5v-336q-37 -6 -75 -6q-36 0 -74 6v412q23 21 64.5 41t89 29
t86.5 9z" />
    <glyph glyph-name="Ncommaaccent" unicode="&#x145;" horiz-adv-x="689" 
d="M547 647q36 0 76 -6v-638q-69 -13 -143 -8l-248 365l-21 38l4 -46v-352q-39 -6 -75 -6q-31 0 -73 6v636q27 9 69 11.5t74 -1.5l247 -373l22 -39l-4 51v356q41 6 72 6zM356 -39q35 0 57 -11q3 -16 3 -33q0 -48 -22.5 -91t-60.5 -68q-14 1 -30 9.5t-25 22.5q24 44 24 100
q0 30 -10 59q25 12 64 12z" />
    <glyph glyph-name="ncommaaccent" unicode="&#x146;" horiz-adv-x="568" 
d="M291 491q57 0 101 -15t72 -42t42 -64.5t14 -81.5v-288q-37 -6 -75 -6q-37 0 -75 6v264q0 23 -8 45.5t-30 34.5t-52 12q-10 0 -33.5 -3.5t-46.5 -16.5v-336q-37 -6 -75 -6q-36 0 -74 6v412q23 21 64.5 41t89 29t86.5 9zM288 -39q35 0 57 -11q3 -16 3 -33q0 -48 -22.5 -91
t-60.5 -68q-14 1 -30 9.5t-25 22.5q24 44 24 100q0 30 -10 59q25 12 64 12z" />
    <glyph glyph-name="Ncaron" unicode="&#x147;" horiz-adv-x="689" 
d="M393 697q-40 -10 -82 0l-131 105q4 19 16.5 37.5t29.5 28.5l130 -74l122 74q15 -8 27.5 -25.5t16.5 -36.5zM547 647q36 0 76 -6v-638q-69 -13 -143 -8l-248 365l-21 38l4 -46v-352q-39 -6 -75 -6q-31 0 -73 6v636q27 9 69 11.5t74 -1.5l247 -373l22 -39l-4 51v356
q41 6 72 6z" />
    <glyph glyph-name="ncaron" unicode="&#x148;" horiz-adv-x="568" 
d="M318 530q-41 -9 -83 0l-122 129q4 19 19 37.5t38 28.5l109 -86l111 86q19 -7 35 -24t21 -36zM291 491q57 0 101 -15t72 -42t42 -64.5t14 -81.5v-288q-37 -6 -75 -6q-37 0 -75 6v264q0 23 -8 45.5t-30 34.5t-52 12q-10 0 -33.5 -3.5t-46.5 -16.5v-336q-37 -6 -75 -6
q-36 0 -74 6v412q23 21 64.5 41t89 29t86.5 9z" />
    <glyph glyph-name="napostrophe" unicode="&#x149;" horiz-adv-x="568" 
d="M105 686q9 -24 9 -65q0 -25 -9.5 -60t-32.5 -70.5t-49 -56.5q-14 1 -31 9.5t-23 22.5q16 29 23 64t7 64q0 22 -5 46t-13 40q12 6 33.5 10t41.5 4q30 0 49 -8zM291 491q57 0 101 -15t72 -42t42 -64.5t14 -81.5v-288q-37 -6 -75 -6q-37 0 -75 6v264q0 23 -8 45.5t-30 34.5
t-52 12q-10 0 -33.5 -3.5t-46.5 -16.5v-336q-37 -6 -75 -6q-36 0 -74 6v412q23 21 64.5 41t89 29t86.5 9z" />
    <glyph glyph-name="Eng" unicode="&#x14a;" horiz-adv-x="689" 
d="M623 641v-638h-1v-11q0 -95 -56 -152.5t-152 -57.5q-48 0 -89 15.5t-62 36.5q2 38 22 71t49 48q12 -12 31 -22.5t42 -10.5q67 0 67 69v15l-242 356l-21 38l4 -46v-352q-39 -6 -75 -6q-31 0 -73 6v636q27 9 69 11.5t74 -1.5l247 -373l22 -39l-4 51v356q41 6 72 6
q36 0 76 -6z" />
    <glyph glyph-name="eng" unicode="&#x14b;" horiz-adv-x="567" 
d="M291 491q57 0 100.5 -15t72 -42t42 -64.5t13.5 -81.5v-309q0 -33 -10 -67t-37.5 -65t-68 -46t-81.5 -15q-31 0 -68 9.5t-64 35.5q2 27 19.5 56.5t41.5 44.5q27 -23 58 -23q61 0 61 81v274q0 47 -24.5 69.5t-66.5 22.5q-22 0 -44.5 -6.5t-34.5 -15.5v-334q-37 -6 -75 -6
q-36 0 -74 6v410q23 21 64.5 41.5t89 30t86.5 9.5z" />
    <glyph glyph-name="Omacron" unicode="&#x14c;" horiz-adv-x="736" 
d="M217 723q-9 23 -9 49q0 28 9 52h314q7 -28 7 -51q0 -24 -7 -50h-314zM368 -18q-72 0 -134 24.5t-107.5 69.5t-70.5 108.5t-25 137.5q0 73 25 136.5t70.5 109t107.5 70.5t134 25t134.5 -24.5t107.5 -69.5t70 -108.5t25 -138.5q0 -72 -25 -135.5t-70.5 -109t-108 -70.5
t-133.5 -25zM368 123q79 0 127 54.5t48 144.5q0 92 -48 146t-127 54t-127 -54t-48 -146q0 -90 48 -144.5t127 -54.5z" />
    <glyph glyph-name="omacron" unicode="&#x14d;" horiz-adv-x="577" 
d="M134 569q-9 22 -9 55q0 34 9 57h311q7 -30 7 -56t-7 -56h-311zM288 -16q-56 0 -103.5 17.5t-82.5 50.5t-54 80.5t-19 104.5q0 56 19.5 103t54.5 81t83.5 52t103.5 18t103 -18t83 -51.5t54 -81t19 -103.5q0 -55 -19.5 -102.5t-54.5 -81t-83.5 -51.5t-103.5 -18zM289 108
q51 0 80.5 35.5t29.5 93.5t-29.5 93.5t-80.5 35.5t-81 -35.5t-30 -93.5t30 -93.5t81 -35.5z" />
    <glyph glyph-name="Ohungarumlaut" unicode="&#x150;" horiz-adv-x="736" 
d="M250 660q-35 14 -52 45l110 160q32 -5 56 -25t34 -51zM442 660q-35 14 -52 45l110 160q32 -5 55.5 -25.5t33.5 -50.5zM368 -18q-72 0 -134 24.5t-107.5 69.5t-70.5 108.5t-25 137.5q0 73 25 136.5t70.5 109t107.5 70.5t134 25t134.5 -24.5t107.5 -69.5t70 -108.5
t25 -138.5q0 -72 -25 -135.5t-70.5 -109t-108 -70.5t-133.5 -25zM368 123q79 0 127 54.5t48 144.5q0 92 -48 146t-127 54t-127 -54t-48 -146q0 -90 48 -144.5t127 -54.5z" />
    <glyph glyph-name="ohungarumlaut" unicode="&#x151;" horiz-adv-x="577" 
d="M167 519q-34 10 -53 43l107 180q67 -13 91 -74zM341 518q-16 6 -29 17.5t-22 27.5l111 177q65 -13 88 -77zM288 -16q-56 0 -103.5 17.5t-82.5 50.5t-54 80.5t-19 104.5q0 56 19.5 103t54.5 81t83.5 52t103.5 18t103 -18t83 -51.5t54 -81t19 -103.5q0 -55 -19.5 -102.5
t-54.5 -81t-83.5 -51.5t-103.5 -18zM289 108q51 0 80.5 35.5t29.5 93.5t-29.5 93.5t-80.5 35.5t-81 -35.5t-30 -93.5t30 -93.5t81 -35.5z" />
    <glyph glyph-name="OE" unicode="&#x152;" horiz-adv-x="878" 
d="M843 67q0 -36 -8 -67h-365q-54 -12 -106 -12q-71 0 -132.5 23.5t-106 67.5t-69 106.5t-24.5 136.5q0 71 25 132.5t70.5 106t108 68.5t134.5 24q48 0 105 -11h351q7 -31 7 -67q0 -35 -7 -67h-248v-115h217q7 -31 7 -66t-7 -66h-217v-127h257q8 -29 8 -67zM194 322
q0 -87 47.5 -140t128.5 -53q33 0 58 7v370q-30 5 -58 5q-80 0 -128 -51.5t-48 -137.5z" />
    <glyph glyph-name="oe" unicode="&#x153;" horiz-adv-x="881" 
d="M627 488q49 0 90.5 -15.5t71 -44t45 -69.5t15.5 -89q0 -42 -4 -77h-304q15 -88 114 -88q58 0 133 46q16 -13 32.5 -39t20.5 -63q-85 -66 -207 -66q-54 0 -99.5 19.5t-75.5 55.5q-33 -36 -79.5 -55.5t-99.5 -19.5q-40 0 -83 11.5t-84.5 45t-62.5 86.5t-21 110
q0 56 19 103.5t53 81t80 52t99 18.5q56 0 103.5 -20.5t80.5 -57.5q30 35 72.5 55t90.5 20zM540 287h170q0 25 -11 46t-31.5 30t-40.5 9q-17 0 -36 -8t-32.5 -29t-18.5 -48zM280 108q50 0 79.5 35t29.5 93q0 28 -9.5 58.5t-36 51t-63.5 20.5q-22 0 -46 -11.5t-40 -43.5
t-16 -75q0 -42 16 -73.5t40 -43t46 -11.5z" />
    <glyph glyph-name="Racute" unicode="&#x154;" horiz-adv-x="606" 
d="M186 679q-26 23 -31 61l208 140q59 -43 61 -124zM442 254l150 -247q-44 -12 -126 -12l-38 1l-132 225h-7l-73 1v-222q-29 -6 -74 -6q-44 0 -76 6v632q44 9 105 15t111 6q52 0 102.5 -9.5t88.5 -33.5t60.5 -64t22.5 -99q0 -32 -10 -69.5t-37.5 -70.5t-66.5 -53zM216 524
v-179l79 -1q55 0 82 26.5t27 67.5t-28 65t-82 24q-39 0 -78 -3z" />
    <glyph glyph-name="racute" unicode="&#x155;" horiz-adv-x="376" 
d="M143 515q-31 21 -42 63l176 158q31 -17 52 -47t28 -68zM262 490q66 0 110 -14q-2 -78 -42 -129q-25 7 -57 7q-45 0 -73 -14v-340q-36 -6 -75 -6q-36 0 -74 6v417q21 19 57 37.5t77.5 27t76.5 8.5z" />
    <glyph glyph-name="Rcommaaccent" unicode="&#x156;" horiz-adv-x="606" 
d="M442 254l150 -247q-44 -12 -126 -12l-38 1l-132 225h-7l-73 1v-222q-29 -6 -74 -6q-44 0 -76 6v632q44 9 105 15t111 6q52 0 102.5 -9.5t88.5 -33.5t60.5 -64t22.5 -99q0 -32 -10 -69.5t-37.5 -70.5t-66.5 -53zM216 524v-179l79 -1q55 0 82 26.5t27 67.5t-28 65t-82 24
q-39 0 -78 -3zM326 -39q35 0 57 -11q3 -16 3 -33q0 -48 -22.5 -91t-60.5 -68q-14 1 -30 9.5t-25 22.5q24 44 24 100q0 30 -10 59q25 12 64 12z" />
    <glyph glyph-name="rcommaaccent" unicode="&#x157;" horiz-adv-x="376" 
d="M262 490q66 0 110 -14q-2 -78 -42 -129q-25 7 -57 7q-45 0 -73 -14v-340q-36 -6 -75 -6q-36 0 -74 6v417q21 19 57 37.5t77.5 27t76.5 8.5zM128 -39q35 0 57 -11q3 -16 3 -33q0 -48 -22.5 -91t-60.5 -68q-14 1 -30 9.5t-25 22.5q24 44 24 100q0 30 -10 59q25 12 64 12z
" />
    <glyph glyph-name="Rcaron" unicode="&#x158;" horiz-adv-x="606" 
d="M329 697q-40 -10 -82 0l-131 105q4 19 16.5 37.5t29.5 28.5l130 -74l122 74q15 -8 27.5 -25.5t16.5 -36.5zM442 254l150 -247q-44 -12 -126 -12l-38 1l-132 225h-7l-73 1v-222q-29 -6 -74 -6q-44 0 -76 6v632q44 9 105 15t111 6q52 0 102.5 -9.5t88.5 -33.5t60.5 -64
t22.5 -99q0 -32 -10 -69.5t-37.5 -70.5t-66.5 -53zM216 524v-179l79 -1q55 0 82 26.5t27 67.5t-28 65t-82 24q-39 0 -78 -3z" />
    <glyph glyph-name="rcaron" unicode="&#x159;" horiz-adv-x="376" 
d="M261 530q-41 -9 -83 0l-122 129q4 19 19 37.5t38 28.5l109 -86l111 86q19 -7 35 -24t21 -36zM51 417q21 19 57 37.5t77.5 27t76.5 8.5q66 0 110 -14q-2 -78 -42 -129q-25 7 -57 7q-45 0 -73 -14v-340q-36 -6 -75 -6q-36 0 -74 6v417z" />
    <glyph glyph-name="Sacute" unicode="&#x15a;" horiz-adv-x="557" 
d="M184 679q-26 23 -31 61l208 140q59 -43 61 -124zM275 -16q-47 0 -95 9t-88.5 28t-66.5 42q4 38 22.5 70t46.5 49q33 -27 82 -44t102 -17q51 0 75.5 15.5t24.5 42.5q0 26 -23.5 43t-105.5 38q-109 26 -156 72.5t-48 124.5q0 33 11.5 68t44.5 68.5t84.5 49.5t105.5 16
q57 0 117.5 -15.5t105.5 -50.5q-2 -35 -21 -69.5t-48 -51.5q-31 22 -73 36t-91 14q-42 0 -66.5 -14.5t-24.5 -37.5q0 -12 6 -24t32.5 -23.5t90.5 -26.5q111 -28 157 -76.5t47 -119.5q1 -64 -22.5 -106t-55 -63.5t-72.5 -34t-98 -12.5z" />
    <glyph glyph-name="sacute" unicode="&#x15b;" horiz-adv-x="480" 
d="M164 515q-31 21 -42 63l176 158q31 -17 52 -47t28 -68zM235 -17q-72 0 -127 18.5t-83 41.5q6 34 21.5 60t37.5 40q76 -48 156 -48q32 0 47 10.5t15 27.5q0 14 -16 26.5t-87 25.5q-50 10 -84.5 26.5t-55 46.5t-20.5 76q0 71 59 112.5t150 41.5q51 0 103 -10t90 -34
q-9 -70 -52 -104q-26 15 -64 25t-75 10q-69 0 -69 -34q0 -13 13.5 -23.5t82.5 -23.5q93 -16 133 -51.5t40 -98.5q0 -75 -56 -118t-159 -43z" />
    <glyph glyph-name="Scedilla" unicode="&#x15e;" horiz-adv-x="557" 
d="M523 200q2 -91 -51.5 -146.5t-149.5 -66.5l-9 -24q85 -15 85 -79q0 -28 -14 -52.5t-47.5 -37.5t-68.5 -13q-26 0 -56 7t-44 19q-1 20 8.5 39.5t22.5 29.5q21 -13 46 -13q14 0 25.5 7t11.5 21q0 32 -65 34l22 60q-73 5 -127.5 27t-86.5 51q4 38 22.5 70t46.5 49
q33 -27 82 -44t102 -17q51 0 75.5 15.5t24.5 42.5q0 26 -23.5 43t-105.5 38q-109 26 -156 72.5t-48 124.5q0 33 11.5 68t44.5 68.5t84.5 49.5t105.5 16q57 0 117.5 -15.5t105.5 -50.5q-2 -35 -21 -69.5t-48 -51.5q-31 22 -73 36t-91 14q-42 0 -66.5 -14.5t-24.5 -37.5
q0 -12 6 -24t32.5 -23.5t90.5 -26.5q111 -28 157 -76.5t47 -119.5z" />
    <glyph glyph-name="scedilla" unicode="&#x15f;" horiz-adv-x="480" 
d="M450 144q0 -40 -16.5 -71.5t-52.5 -55t-95 -31.5l-9 -23q85 -15 85 -79q0 -28 -14 -52.5t-47.5 -37.5t-68.5 -13q-26 0 -56 7t-44 19q-1 20 8.5 39.5t22.5 29.5q21 -13 46 -13q14 0 25.5 7t11.5 21q0 32 -65 34l22 59q-60 4 -106.5 21.5t-71.5 37.5q6 34 21.5 60t37.5 40
q76 -48 156 -48q32 0 47 10.5t15 27.5q0 14 -16 26.5t-87 25.5q-50 10 -84.5 26.5t-55 46.5t-20.5 76q0 71 59 112.5t150 41.5q51 0 103 -10t90 -34q-9 -70 -52 -104q-26 15 -64 25t-75 10q-69 0 -69 -34q0 -13 13.5 -23.5t82.5 -23.5q93 -16 133 -51.5t40 -98.5z" />
    <glyph glyph-name="Scaron" unicode="&#x160;" horiz-adv-x="557" 
d="M245 697l-131 105q4 19 16.5 37.5t29.5 28.5l130 -74l122 74q15 -8 27.5 -25.5t16.5 -36.5l-129 -109q-40 -10 -82 0zM275 -16q-47 0 -95 9t-88.5 28t-66.5 42q4 38 22.5 70t46.5 49q33 -27 82 -44t102 -17q51 0 75.5 15.5t24.5 42.5q0 26 -23.5 43t-105.5 38
q-109 26 -156 72.5t-48 124.5q0 33 11.5 68t44.5 68.5t84.5 49.5t105.5 16q57 0 117.5 -15.5t105.5 -50.5q-2 -35 -21 -69.5t-48 -51.5q-31 22 -73 36t-91 14q-42 0 -66.5 -14.5t-24.5 -37.5q0 -12 6 -24t32.5 -23.5t90.5 -26.5q111 -28 157 -76.5t47 -119.5
q1 -64 -22.5 -106t-55 -63.5t-72.5 -34t-98 -12.5z" />
    <glyph glyph-name="scaron" unicode="&#x161;" horiz-adv-x="480" 
d="M198 530l-122 129q4 19 19 37.5t38 28.5l109 -86l111 86q19 -7 35 -24t21 -36l-128 -135q-41 -9 -83 0zM235 -17q-72 0 -127 18.5t-83 41.5q6 34 21.5 60t37.5 40q76 -48 156 -48q32 0 47 10.5t15 27.5q0 14 -16 26.5t-87 25.5q-50 10 -84.5 26.5t-55 46.5t-20.5 76
q0 71 59 112.5t150 41.5q51 0 103 -10t90 -34q-9 -70 -52 -104q-26 15 -64 25t-75 10q-69 0 -69 -34q0 -13 13.5 -23.5t82.5 -23.5q93 -16 133 -51.5t40 -98.5q0 -75 -56 -118t-159 -43z" />
    <glyph glyph-name="Tcommaaccent" unicode="&#x162;" horiz-adv-x="554" 
d="M352 0l-36 -5l-12 -32q85 -15 85 -79q0 -28 -14 -52.5t-47.5 -37.5t-68.5 -13q-26 0 -56 7t-44 19q-1 20 8.5 39.5t22.5 29.5q21 -13 46 -13q14 0 25.5 7t11.5 21q0 32 -65 34l26 70l-31 5v509h-183q-7 31 -7 66q0 36 7 67h514q8 -29 8 -66q0 -36 -8 -67h-182v-509z" />
    <glyph glyph-name="tcommaaccent" unicode="&#x163;" horiz-adv-x="448" 
d="M292 -37q85 -15 85 -79q0 -28 -14 -52.5t-47.5 -37.5t-68.5 -13q-26 0 -56 7t-44 19q-1 20 8.5 39.5t22.5 29.5q21 -13 46 -13q14 0 25.5 7t11.5 21q0 32 -65 34l25 67q-56 13 -89 52t-33 103v198h-81q-5 32 -5 62q0 27 5 60h81v125q39 6 76 6q38 0 72 -6v-125h166
q7 -33 7 -59t-7 -63h-166v-161q0 -38 17.5 -55t51.5 -17t66 28q22 -13 40 -43t22 -59q-61 -49 -144 -53z" />
    <glyph glyph-name="Tcaron" unicode="&#x164;" horiz-adv-x="554" 
d="M320 697q-40 -10 -82 0l-131 105q4 19 16.5 37.5t29.5 28.5l130 -74l122 74q15 -8 27.5 -25.5t16.5 -36.5zM542 576q0 -36 -8 -67h-182v-509q-35 -7 -75 -7q-39 0 -74 7v509h-183q-7 31 -7 66q0 36 7 67h514q8 -29 8 -66z" />
    <glyph glyph-name="tcaron" unicode="&#x165;" horiz-adv-x="448" 
d="M371 491q-14 1 -30.5 9.5t-23.5 20.5q23 50 23 121q0 47 -14 79q27 14 63 14q39 0 58 -13q6 -24 6 -51q0 -52 -23.5 -102.5t-58.5 -77.5zM382 140q22 -13 40 -43t22 -59q-67 -53 -154 -53q-64 0 -106 19.5t-63.5 55t-21.5 87.5v198h-81q-5 32 -5 62q0 27 5 60h81v125
q39 6 76 6q38 0 72 -6v-125h166q7 -33 7 -59t-7 -63h-166v-161q0 -38 17.5 -55t51.5 -17t66 28z" />
    <glyph glyph-name="Tbar" unicode="&#x166;" horiz-adv-x="554" 
d="M534 509h-182v-147h86q6 -24 6 -52q0 -27 -6 -50h-86v-260q-35 -7 -75 -7q-39 0 -74 7v260h-86q-8 19 -8 49t8 53h86v147h-183q-7 31 -7 66q0 36 7 67h514q8 -29 8 -66q0 -36 -8 -67z" />
    <glyph glyph-name="tbar" unicode="&#x167;" horiz-adv-x="448" 
d="M382 140q22 -13 40 -43t22 -59q-67 -53 -154 -53q-64 0 -106 19.5t-63.5 55t-21.5 87.5v57h-66q-8 16 -8 42t8 46h66v53h-81q-5 32 -5 62q0 27 5 60h81v125q39 6 76 6q38 0 72 -6v-125h166q7 -33 7 -59t-7 -63h-166v-53h97q6 -21 6 -45q0 -23 -6 -43h-97v-20
q0 -38 17.5 -55t51.5 -17t66 28z" />
    <glyph glyph-name="Utilde" unicode="&#x168;" horiz-adv-x="671" 
d="M229 691q-18 0 -40.5 5t-38 13.5t-22.5 16.5q11 57 48.5 90t88.5 33q32 0 77.5 -18.5t59.5 -18.5q16 0 28 12t17 32q25 0 53.5 -9t46.5 -26q-6 -35 -23.5 -62t-45.5 -44t-63 -17q-19 0 -39 5t-53 18t-46 13q-14 0 -28 -9t-20 -34zM337 -18q-62 0 -114 17.5t-88.5 52.5
t-56 87t-19.5 118v384q36 6 74 6q37 0 76 -6v-382q0 -65 34 -101.5t95 -36.5q60 0 94 36.5t34 101.5v382q35 6 71 6t75 -6v-380q0 -65 -20 -117.5t-57 -88.5t-88 -54.5t-110 -18.5z" />
    <glyph glyph-name="utilde" unicode="&#x169;" horiz-adv-x="563" 
d="M179 545q-25 0 -55.5 9t-44.5 25q8 43 31.5 74t52 42t52.5 11q17 0 33.5 -5.5t46.5 -19t43 -13.5q12 0 25.5 8.5t20.5 33.5q25 0 53 -9t47 -26q-5 -27 -21 -55.5t-46.5 -47t-64.5 -18.5q-17 0 -35 5t-48 18.5t-42 13.5q-9 0 -18.5 -4t-17.5 -15.5t-12 -26.5zM437 476
q38 0 75 -6v-432q-36 -20 -98.5 -37.5t-137.5 -17.5q-44 0 -86 9t-73.5 31.5t-50 59.5t-18.5 93v294q38 6 75 6q38 0 74 -6v-261q0 -50 20 -73t71 -23q44 0 75 15v342q38 6 74 6z" />
    <glyph glyph-name="Umacron" unicode="&#x16a;" horiz-adv-x="671" 
d="M182 723q-9 23 -9 49q0 28 9 52h314q7 -28 7 -51q0 -24 -7 -50h-314zM337 -18q-62 0 -114 17.5t-88.5 52.5t-56 87t-19.5 118v384q36 6 74 6q37 0 76 -6v-382q0 -65 34 -101.5t95 -36.5q60 0 94 36.5t34 101.5v382q35 6 71 6t75 -6v-380q0 -65 -20 -117.5t-57 -88.5
t-88 -54.5t-110 -18.5z" />
    <glyph glyph-name="umacron" unicode="&#x16b;" horiz-adv-x="563" 
d="M437 569h-311q-9 22 -9 55q0 34 9 57h311q7 -30 7 -56t-7 -56zM437 476q38 0 75 -6v-432q-36 -20 -98.5 -37.5t-137.5 -17.5q-44 0 -86 9t-73.5 31.5t-50 59.5t-18.5 93v294q38 6 75 6q38 0 74 -6v-261q0 -50 20 -73t71 -23q44 0 75 15v342q38 6 74 6z" />
    <glyph glyph-name="Uring" unicode="&#x16e;" horiz-adv-x="671" 
d="M339 659q-23 0 -51 12t-48.5 42.5t-20.5 66.5q0 49 35.5 84.5t84.5 35.5q35 0 65 -20.5t42 -48.5t12 -51t-12 -51.5t-42 -49t-65 -20.5zM339 738q17 0 28.5 12t11.5 29t-11.5 30t-28.5 13t-29 -13t-12 -30t12 -29t29 -12zM337 -18q-62 0 -114 17.5t-88.5 52.5t-56 87
t-19.5 118v384q36 6 74 6q37 0 76 -6v-382q0 -65 34 -101.5t95 -36.5q60 0 94 36.5t34 101.5v382q35 6 71 6t75 -6v-380q0 -65 -20 -117.5t-57 -88.5t-88 -54.5t-110 -18.5z" />
    <glyph glyph-name="uring" unicode="&#x16f;" horiz-adv-x="563" 
d="M282 507q-36 0 -66.5 20.5t-42.5 48.5t-12 51t12 51.5t42.5 49t66.5 20.5q23 0 51 -12t49 -42.5t21 -66.5q0 -49 -36 -84.5t-85 -35.5zM282 670q-17 0 -29 -13t-12 -30t12 -29.5t29 -12.5t29 12.5t12 29.5t-12 30t-29 13zM437 476q38 0 75 -6v-432q-36 -20 -98.5 -37.5
t-137.5 -17.5q-44 0 -86 9t-73.5 31.5t-50 59.5t-18.5 93v294q38 6 75 6q38 0 74 -6v-261q0 -50 20 -73t71 -23q44 0 75 15v342q38 6 74 6z" />
    <glyph glyph-name="Uhungarumlaut" unicode="&#x170;" horiz-adv-x="671" 
d="M215 660q-35 14 -52 45l110 160q32 -5 56 -25t34 -51zM407 660q-35 14 -52 45l110 160q32 -5 55.5 -25.5t33.5 -50.5zM337 -18q-62 0 -114 17.5t-88.5 52.5t-56 87t-19.5 118v384q36 6 74 6q37 0 76 -6v-382q0 -65 34 -101.5t95 -36.5q60 0 94 36.5t34 101.5v382
q35 6 71 6t75 -6v-380q0 -65 -20 -117.5t-57 -88.5t-88 -54.5t-110 -18.5z" />
    <glyph glyph-name="uhungarumlaut" unicode="&#x171;" horiz-adv-x="563" 
d="M159 519q-34 10 -53 43l107 180q67 -13 91 -74zM333 518q-16 6 -29 17.5t-22 27.5l111 177q65 -13 88 -77zM437 476q38 0 75 -6v-432q-36 -20 -98.5 -37.5t-137.5 -17.5q-44 0 -86 9t-73.5 31.5t-50 59.5t-18.5 93v294q38 6 75 6q38 0 74 -6v-261q0 -50 20 -73t71 -23
q44 0 75 15v342q38 6 74 6z" />
    <glyph glyph-name="Uogonek" unicode="&#x172;" horiz-adv-x="671" 
d="M537 647q36 0 75 -6v-380q0 -94 -40.5 -159.5t-111.5 -96.5q-25 -19 -40.5 -41t-15.5 -40q0 -16 9.5 -23.5t21.5 -7.5q19 0 37 14q19 -12 33 -33t14 -44q-41 -41 -110 -41q-24 0 -50.5 8.5t-44 31.5t-17.5 55q0 50 50 98h-10q-62 0 -114 17.5t-88.5 52.5t-56 87
t-19.5 118v384q36 6 74 6q37 0 76 -6v-382q0 -65 34 -101.5t95 -36.5q60 0 94 36.5t34 101.5v382q35 6 71 6z" />
    <glyph glyph-name="uogonek" unicode="&#x173;" horiz-adv-x="563" 
d="M469 -93q19 -12 33 -33t14 -44q-41 -41 -110 -41q-24 0 -50.5 8.5t-44 31.5t-17.5 55q0 54 57 104q-38 -5 -75 -5q-44 0 -86 9t-73.5 31.5t-50 59.5t-18.5 93v294q38 6 75 6q38 0 74 -6v-261q0 -50 20 -73t71 -23q44 0 75 15v342q38 6 74 6q38 0 75 -6v-432l-13 -7
q-42 -20 -70 -51.5t-28 -55.5q0 -16 9.5 -23.5t21.5 -7.5q19 0 37 14z" />
    <glyph glyph-name="Wcircumflex" unicode="&#x174;" horiz-adv-x="957" 
d="M358 691q-16 8 -28.5 26.5t-16.5 38.5l129 106q42 10 82 0l131 -102q-3 -20 -16 -39t-29 -30l-130 74zM833 648q28 0 64.5 -3t48.5 -8q-40 -182 -84.5 -337.5t-103.5 -297.5q-34 -7 -79 -7q-43 0 -82 7l-102 345l-13 64l-13 -65l-106 -344q-38 -7 -79 -7q-36 0 -87 7
q-118 283 -183 635q57 12 117 12q27 0 48 -3q15 -112 42 -238.5t65 -247.5l16 73l106 366q35 7 76 7t76 -7l106 -366l17 -76q75 248 110 489z" />
    <glyph glyph-name="wcircumflex" unicode="&#x175;" horiz-adv-x="772" 
d="M271 522q-19 7 -35 24t-21 36l127 135q42 9 84 0l122 -129q-5 -21 -21.5 -39t-35.5 -27l-110 86zM671 477q47 0 93 -11q-32 -143 -71.5 -254.5t-97.5 -211.5q-34 -7 -74 -7q-37 0 -71 7q-37 62 -68 143q-20 -76 -52 -143q-34 -7 -75 -7q-40 0 -72 7q-50 77 -92.5 179.5
t-80.5 286.5q16 4 47 7.5t56 3.5l61 -3q16 -102 40.5 -199.5t44.5 -146.5l5 -21q2 15 5 22q14 35 29 86.5t25 104.5q-16 58 -34 146q15 4 46 7.5t56 3.5l52 -3q15 -101 37 -197.5t39 -148.5l5 -25q1 13 6 25q19 53 40 146t38 200z" />
    <glyph glyph-name="Ycircumflex" unicode="&#x176;" horiz-adv-x="617" 
d="M186 691q-16 8 -28.5 26.5t-16.5 38.5l129 106q42 10 82 0l131 -102q-3 -20 -16 -39t-29 -30l-130 74zM617 639l-235 -405v-234q-34 -6 -73 -6q-35 0 -76 6v244l-236 395q58 10 106 10q40 0 68 -4l121 -214l22 -49l22 49l120 214q28 4 65 4q43 0 96 -10z" />
    <glyph glyph-name="ycircumflex" unicode="&#x177;" horiz-adv-x="531" 
d="M160 522q-19 7 -35 24t-21 36l127 135q42 9 84 0l122 -129q-5 -21 -21.5 -39t-35.5 -27l-110 86zM423 477q50 0 96 -12q-31 -229 -122 -397.5t-249 -281.5q-32 11 -55.5 40t-33.5 63q90 71 130 126q-68 106 -108.5 211t-69.5 240q18 4 50 7.5t59 3.5q31 0 56 -3
q12 -75 36.5 -162.5t55.5 -160.5l10 -27q3 16 8 27q53 123 78 323q29 3 59 3z" />
    <glyph glyph-name="Ydieresis" unicode="&#x178;" horiz-adv-x="617" 
d="M194 705q-31 0 -53.5 22t-22.5 53q0 30 22.5 52.5t53.5 22.5q30 0 52.5 -22.5t22.5 -52.5q0 -31 -22.5 -53t-52.5 -22zM428 705q-30 0 -52.5 22t-22.5 53q0 30 22.5 52.5t52.5 22.5q31 0 53.5 -22.5t22.5 -52.5q0 -31 -22.5 -53t-53.5 -22zM617 639l-235 -405v-234
q-34 -6 -73 -6q-35 0 -76 6v244l-236 395q58 10 106 10q40 0 68 -4l121 -214l22 -49l22 49l120 214q28 4 65 4q43 0 96 -10z" />
    <glyph glyph-name="Zacute" unicode="&#x179;" horiz-adv-x="581" 
d="M189 679q-26 23 -31 61l208 140q59 -43 61 -124zM549 133q7 -32 7 -66q0 -35 -7 -67h-514q-6 17 -6 40q0 20 9 43.5t23 42.5l259 356l20 28l-304 -1q-7 31 -7 66q0 36 7 67h505q6 -16 6 -41q0 -19 -9 -42t-23 -44l-253 -348l-28 -34h315z" />
    <glyph glyph-name="zacute" unicode="&#x17a;" horiz-adv-x="479" 
d="M156 515q-31 21 -42 63l176 158q31 -17 52 -47t28 -68zM446 120q10 -26 10 -59t-10 -61h-412q-6 17 -6 35q0 44 29 79l181 206l27 30h-225q-8 26 -8 62q0 32 8 58h396q5 -15 5 -34q0 -25 -8 -48.5t-20 -38.5l-167 -203l-24 -26h224z" />
    <glyph glyph-name="Zdotaccent" unicode="&#x17b;" horiz-adv-x="581" 
d="M289 690q-27 0 -49 15t-31 36t-9 38t9 37.5t31.5 35.5t48.5 15q17 0 38 -9t36 -31t15 -48q0 -17 -9 -38t-31 -36t-49 -15zM549 133q7 -32 7 -66q0 -35 -7 -67h-514q-6 17 -6 40q0 20 9 43.5t23 42.5l259 356l20 28l-304 -1q-7 31 -7 66q0 36 7 67h505q6 -16 6 -41
q0 -19 -9 -42t-23 -44l-253 -348l-28 -34h315z" />
    <glyph glyph-name="zdotaccent" unicode="&#x17c;" horiz-adv-x="479" 
d="M236 535q-36 0 -63 27t-27 63q0 17 9 38t31.5 36t49.5 15q36 0 63 -26.5t27 -62.5t-27 -63t-63 -27zM446 120q10 -26 10 -59t-10 -61h-412q-6 17 -6 35q0 44 29 79l181 206l27 30h-225q-8 26 -8 62q0 32 8 58h396q5 -15 5 -34q0 -25 -8 -48.5t-20 -38.5l-167 -203
l-24 -26h224z" />
    <glyph glyph-name="Zcaron" unicode="&#x17d;" horiz-adv-x="581" 
d="M332 697q-40 -10 -82 0l-131 105q4 19 16.5 37.5t29.5 28.5l130 -74l122 74q15 -8 27.5 -25.5t16.5 -36.5zM549 133q7 -32 7 -66q0 -35 -7 -67h-514q-6 17 -6 40q0 20 9 43.5t23 42.5l259 356l20 28l-304 -1q-7 31 -7 66q0 36 7 67h505q6 -16 6 -41q0 -19 -9 -42t-23 -44
l-253 -348l-28 -34h315z" />
    <glyph glyph-name="zcaron" unicode="&#x17e;" horiz-adv-x="479" 
d="M273 530q-41 -9 -83 0l-122 129q4 19 19 37.5t38 28.5l109 -86l111 86q19 -7 35 -24t21 -36zM446 120q10 -26 10 -59t-10 -61h-412q-6 17 -6 35q0 44 29 79l181 206l27 30h-225q-8 26 -8 62q0 32 8 58h396q5 -15 5 -34q0 -25 -8 -48.5t-20 -38.5l-167 -203l-24 -26h224z
" />
    <glyph glyph-name="uni01EA" unicode="&#x1ea;" horiz-adv-x="736" 
d="M511 10q-28 -20 -45.5 -43.5t-17.5 -42.5q0 -16 9.5 -23.5t21.5 -7.5q19 0 37 14q19 -12 33 -33t14 -44q-41 -41 -110 -41q-24 0 -50.5 8.5t-44 31.5t-17.5 55q0 50 51 99l-24 -1q-72 0 -134 24.5t-107.5 69.5t-70.5 108.5t-25 137.5q0 73 25 136.5t70.5 109t107.5 70.5
t134 25t134.5 -24.5t107.5 -69.5t70 -108.5t25 -138.5q0 -108 -52.5 -190.5t-141.5 -121.5zM193 322q0 -90 48 -144.5t127 -54.5t127 54.5t48 144.5q0 92 -48 146t-127 54t-127 -54t-48 -146z" />
    <glyph glyph-name="uni01EB" unicode="&#x1eb;" horiz-adv-x="577" 
d="M406 8q-27 -20 -43 -43t-16 -41q0 -16 9.5 -23.5t21.5 -7.5q19 0 37 14q19 -12 33 -33t14 -44q-41 -41 -110 -41q-24 0 -50.5 8.5t-44 31.5t-17.5 55q0 50 52 100h-4q-56 0 -103.5 17.5t-82.5 50.5t-54 80.5t-19 104.5q0 56 19.5 103t54.5 81t83.5 52t103.5 18t103 -18
t83 -51.5t54 -81t19 -103.5q0 -79 -39 -139.5t-104 -89.5zM178 237q0 -58 30 -93.5t81 -35.5t80.5 35.5t29.5 93.5t-29.5 93.5t-80.5 35.5t-81 -35.5t-30 -93.5z" />
    <glyph glyph-name="AEacute" unicode="&#x1fc;" horiz-adv-x="886" 
d="M404 679q-26 23 -31 61l208 140q59 -43 61 -124zM844 133q7 -31 7 -66t-7 -67h-405v216h-176l-126 -216q-32 -4 -70 -4q-47 0 -82 11l363 636l486 -1q7 -31 7 -67q0 -35 -7 -66h-246v-151h217q7 -28 7 -60q0 -33 -7 -62h-217v-103h256zM333 337h107v134l2 62l-31 -62z
" />
    <glyph glyph-name="aeacute" unicode="&#x1fd;" horiz-adv-x="801" 
d="M319 515q-31 21 -42 63l176 158q31 -17 52 -47t28 -68zM197 -16q-55 0 -93 20t-58 53.5t-20 79.5q0 27 10 54t34 48.5t62.5 35t91.5 13.5h95v12q0 30 -24 47.5t-72 17.5q-28 0 -64 -9t-66 -28q-22 17 -36 43.5t-17 56.5q17 14 51 29.5t73 23t71 7.5q57 0 102.5 -20.5
t67.5 -61.5q23 38 67 60t94 22q33 0 68 -10.5t64.5 -36t49 -69t19.5 -105.5q0 -44 -4 -71h-289v-1q1 -21 10.5 -40t34 -34.5t63.5 -15.5q27 0 57.5 9t73.5 35q16 -13 32.5 -39t20.5 -63q-87 -64 -197 -64q-59 0 -109 24.5t-78 74.5q-58 -98 -185 -98zM471 287h156
q0 25 -9 46t-26.5 30t-35.5 9q-36 0 -59.5 -25t-25.5 -60zM231 92q39 0 63.5 26.5t24.5 77.5h-76q-35 0 -53.5 -13.5t-18.5 -38.5q0 -24 16 -38t44 -14z" />
    <glyph glyph-name="Oslashacute" unicode="&#x1fe;" horiz-adv-x="736" 
d="M273 679q-26 23 -31 61l208 140q59 -43 61 -124zM709 615l-71 -78q32 -42 49.5 -97.5t17.5 -117.5q0 -72 -25 -135.5t-70.5 -109t-108 -70.5t-133.5 -25q-105 0 -186 50l-74 -82q-29 10 -50.5 31t-31.5 49l71 78q-66 90 -66 214q0 73 25 136.5t70.5 109t107.5 70.5
t134 25q108 0 188 -51l72 79q27 -10 48.5 -30t32.5 -46zM193 322q0 -49 16 -91l246 270q-37 21 -87 21q-79 0 -127 -54t-48 -146zM543 322q0 53 -16 92l-244 -270q36 -21 85 -21q79 0 127 54.5t48 144.5z" />
    <glyph glyph-name="oslashacute" unicode="&#x1ff;" horiz-adv-x="579" 
d="M210 515q-31 21 -42 63l176 158q31 -17 52 -47t28 -68zM491 407q28 -32 43 -76t15 -94q0 -41 -11 -78.5t-31.5 -68t-49 -52.5t-71 -38t-97.5 -16q-38 0 -77.5 10t-68.5 27l-47 -53q-17 6 -31 20t-20 31l43 47q-59 69 -59 171q0 41 13 85t49 86t90.5 62.5t109.5 20.5
q84 0 146 -39l47 52q16 -6 30.5 -19t20.5 -28zM179 237q0 -35 10 -59l157 174q-23 14 -56 14q-51 0 -81 -35.5t-30 -93.5zM290 108q51 0 80.5 35.5t29.5 93.5q0 34 -9 59l-157 -174q25 -14 56 -14z" />
    <glyph glyph-name="Scommaaccent" unicode="&#x218;" horiz-adv-x="557" 
d="M275 -16q-47 0 -95 9t-88.5 28t-66.5 42q4 38 22.5 70t46.5 49q33 -27 82 -44t102 -17q51 0 75.5 15.5t24.5 42.5q0 26 -23.5 43t-105.5 38q-109 26 -156 72.5t-48 124.5q0 33 11.5 68t44.5 68.5t84.5 49.5t105.5 16q57 0 117.5 -15.5t105.5 -50.5q-2 -35 -21 -69.5
t-48 -51.5q-31 22 -73 36t-91 14q-42 0 -66.5 -14.5t-24.5 -37.5q0 -12 6 -24t32.5 -23.5t90.5 -26.5q111 -28 157 -76.5t47 -119.5q1 -64 -22.5 -106t-55 -63.5t-72.5 -34t-98 -12.5zM268 -242q-14 1 -30 9.5t-25 22.5q24 44 24 100q0 30 -10 59q25 12 64 12q35 0 57 -11
q3 -16 3 -33q0 -48 -22.5 -91t-60.5 -68z" />
    <glyph glyph-name="scommaaccent" unicode="&#x219;" horiz-adv-x="480" 
d="M235 -17q-72 0 -127 18.5t-83 41.5q6 34 21.5 60t37.5 40q76 -48 156 -48q32 0 47 10.5t15 27.5q0 14 -16 26.5t-87 25.5q-50 10 -84.5 26.5t-55 46.5t-20.5 76q0 71 59 112.5t150 41.5q51 0 103 -10t90 -34q-9 -70 -52 -104q-26 15 -64 25t-75 10q-69 0 -69 -34
q0 -13 13.5 -23.5t82.5 -23.5q93 -16 133 -51.5t40 -98.5q0 -75 -56 -118t-159 -43zM232 -242q-14 1 -30 9.5t-25 22.5q24 44 24 100q0 30 -10 59q25 12 64 12q35 0 57 -11q3 -16 3 -33q0 -48 -22.5 -91t-60.5 -68z" />
    <glyph glyph-name="uni021A" unicode="&#x21a;" horiz-adv-x="554" 
d="M542 576q0 -36 -8 -67h-182v-509q-35 -7 -75 -7q-39 0 -74 7v509h-183q-7 31 -7 66q0 36 7 67h514q8 -29 8 -66zM282 -39q35 0 57 -11q3 -16 3 -33q0 -48 -22.5 -91t-60.5 -68q-14 1 -30 9.5t-25 22.5q24 44 24 100q0 30 -10 59q25 12 64 12z" />
    <glyph glyph-name="uni021B" unicode="&#x21b;" horiz-adv-x="448" 
d="M444 38q-67 -53 -154 -53q-64 0 -106 19.5t-63.5 55t-21.5 87.5v198h-81q-5 32 -5 62q0 27 5 60h81v125q39 6 76 6q38 0 72 -6v-125h166q7 -33 7 -59t-7 -63h-166v-161q0 -38 17.5 -55t51.5 -17t66 28q22 -13 40 -43t22 -59zM271 -39q35 0 57 -11q3 -16 3 -33
q0 -48 -22.5 -91t-60.5 -68q-14 1 -30 9.5t-25 22.5q24 44 24 100q0 30 -10 59q25 12 64 12z" />
    <glyph glyph-name="circumflex" unicode="&#x2c6;" horiz-adv-x="393" 
d="M240 717l122 -129q-5 -21 -21.5 -39t-35.5 -27l-110 86l-110 -86q-19 7 -35 24t-21 36l127 135q42 9 84 0z" />
    <glyph glyph-name="caron" unicode="&#x2c7;" horiz-adv-x="389" 
d="M152 530l-122 129q4 19 19 37.5t38 28.5l109 -86l111 86q19 -7 35 -24t21 -36l-128 -135q-41 -9 -83 0z" />
    <glyph glyph-name="breve" unicode="&#x2d8;" horiz-adv-x="412" 
d="M208 528q-54 0 -94.5 21.5t-64.5 60t-24 85.5q43 17 97 11q4 -18 15 -36t31 -28.5t42 -10.5t42 11t30 29t12 35q27 3 51 0t43 -13q0 -45 -24 -83.5t-63.5 -60t-92.5 -21.5z" />
    <glyph glyph-name="dotaccent" unicode="&#x2d9;" horiz-adv-x="274" 
d="M137 535q-36 0 -63 27t-27 63q0 17 9 38t31.5 36t49.5 15q36 0 63 -26.5t27 -62.5t-27 -63t-63 -27z" />
    <glyph glyph-name="ring" unicode="&#x2da;" horiz-adv-x="279" 
d="M140 507q-36 0 -66.5 20.5t-42.5 48.5t-12 51t12 51.5t42.5 49t66.5 20.5q23 0 51 -12t49 -42.5t21 -66.5q0 -49 -36 -84.5t-85 -35.5zM140 585q17 0 29 12.5t12 29.5t-12 30t-29 13t-29 -13t-12 -30t12 -29.5t29 -12.5z" />
    <glyph glyph-name="ogonek" unicode="&#x2db;" horiz-adv-x="278" 
d="M114 -211q-24 0 -50.5 8.5t-44 31.5t-17.5 55q0 24 14 51t43 52.5t61 43.5h87q-42 -20 -70 -51.5t-28 -55.5q0 -16 9.5 -23.5t21.5 -7.5q19 0 37 14q19 -12 33 -33t14 -44q-41 -41 -110 -41z" />
    <glyph glyph-name="tilde" unicode="&#x2dc;" horiz-adv-x="439" 
d="M118 545q-25 0 -56 9t-45 25q11 58 48.5 92.5t87.5 34.5q17 0 34 -5.5t47 -19t43 -13.5q16 0 28.5 11.5t17.5 30.5q25 0 53 -9t46 -26q-5 -27 -20.5 -55.5t-46 -47t-64.5 -18.5q-17 0 -35 5t-48 18.5t-42 13.5q-9 0 -18.5 -4t-17.5 -15.5t-12 -26.5z" />
    <glyph glyph-name="hungarumlaut" unicode="&#x2dd;" horiz-adv-x="384" 
d="M60 519q-34 10 -53 43l107 180q67 -13 91 -74zM234 518q-16 6 -29 17.5t-22 27.5l111 177q65 -13 88 -77z" />
    <glyph glyph-name="gravecomb" unicode="&#x300;" 
d="M-64 515l-214 106q18 82 80 115l176 -161q-5 -18 -16 -34t-26 -26z" />
    <glyph glyph-name="acutecomb" unicode="&#x301;" 
d="M-225 515q-31 21 -42 63l176 158q31 -17 52 -47t28 -68z" />
    <glyph glyph-name="uni0302" unicode="&#x302;" 
d="M-156 717l122 -129q-5 -21 -21.5 -39t-35.5 -27l-110 86l-110 -86q-19 7 -35 24t-21 36l127 135q42 9 84 0z" />
    <glyph glyph-name="tildecomb" unicode="&#x303;" 
d="M-322 545q-25 0 -55.5 9t-44.5 25q8 43 31.5 74t52 42t52.5 11q17 0 33.5 -5.5t46.5 -19t43 -13.5q12 0 25.5 8.5t20.5 33.5q25 0 53 -9t47 -26q-5 -27 -21 -55.5t-46.5 -47t-64.5 -18.5q-17 0 -35 5t-48 18.5t-42 13.5q-9 0 -18.5 -4t-17.5 -15.5t-12 -26.5z" />
    <glyph glyph-name="uni0304" unicode="&#x304;" 
d="M-339 569q-9 22 -9 55q0 34 9 57h311q7 -30 7 -56t-7 -56h-311z" />
    <glyph glyph-name="uni0306" unicode="&#x306;" 
d="M-203 528q-54 0 -94.5 21.5t-64.5 60t-24 85.5q43 17 97 11q4 -18 15 -36t31 -28.5t42 -10.5t42 11t30 29t12 35q27 3 51 0t43 -13q0 -45 -24 -83.5t-63.5 -60t-92.5 -21.5z" />
    <glyph glyph-name="uni0307" unicode="&#x307;" 
d="M-136 535q-36 0 -63 27t-27 63q0 17 9 38t31.5 36t49.5 15q36 0 63 -26.5t27 -62.5t-27 -63t-63 -27z" />
    <glyph glyph-name="uni0308" unicode="&#x308;" 
d="M-322 541q-31 0 -53.5 22.5t-22.5 53.5t22.5 53t53.5 22t53.5 -22t22.5 -53t-22.5 -53.5t-53.5 -22.5zM-97 541q-30 0 -53 22.5t-23 53.5t22.5 53t53.5 22t53.5 -22t22.5 -53t-22.5 -53.5t-53.5 -22.5z" />
    <glyph glyph-name="uni030A" unicode="&#x30a;" 
d="M-133 507q-36 0 -66.5 20.5t-42.5 48.5t-12 51t12 51.5t42.5 49t66.5 20.5q23 0 51 -12t49 -42.5t21 -66.5q0 -49 -36 -84.5t-85 -35.5zM-133 585q17 0 29 12.5t12 29.5t-12 30t-29 13t-29 -13t-12 -30t12 -29.5t29 -12.5z" />
    <glyph glyph-name="uni030B" unicode="&#x30b;" 
d="M-349 519q-34 10 -53 43l107 180q67 -13 91 -74zM-175 518q-16 6 -29 17.5t-22 27.5l111 177q65 -13 88 -77z" />
    <glyph glyph-name="uni030C" unicode="&#x30c;" 
d="M-244 530l-122 129q4 19 19 37.5t38 28.5l109 -86l111 86q19 -7 35 -24t21 -36l-128 -135q-41 -9 -83 0z" />
    <glyph glyph-name="uni0326" unicode="&#x326;" 
d="M-124 -242q-14 1 -30 9.5t-25 22.5q24 44 24 100q0 30 -10 59q25 12 64 12q35 0 57 -11q3 -16 3 -33q0 -48 -22.5 -91t-60.5 -68z" />
    <glyph glyph-name="uni0327" unicode="&#x327;" 
d="M-179 11h82l-18 -48q85 -15 85 -79q0 -28 -14 -52.5t-47.5 -37.5t-68.5 -13q-26 0 -56 7t-44 19q-1 20 8.5 39.5t22.5 29.5q21 -13 46 -13q14 0 25.5 7t11.5 21q0 32 -65 34z" />
    <glyph glyph-name="uni0328" unicode="&#x328;" 
d="M-166 -211q-24 0 -50.5 8.5t-44 31.5t-17.5 55q0 24 14 51t43 52.5t61 43.5h87q-42 -20 -70 -51.5t-28 -55.5q0 -16 9.5 -23.5t21.5 -7.5q19 0 37 14q19 -12 33 -33t14 -44q-41 -41 -110 -41z" />
    <glyph glyph-name="uni0335" unicode="&#x335;" 
d="M-342 449q-7 17 -7 42t7 46h308q6 -21 6 -45q0 -23 -6 -43h-308z" />
    <glyph glyph-name="uni0336" unicode="&#x336;" 
d="M-725 427q-8 21 -8 44q0 9 2.5 24t5.5 24h698q7 -24 7 -47q0 -20 -7 -45h-698z" />
    <glyph glyph-name="uni0337" unicode="&#x337;" 
d="M-302 250q-16 12 -28.5 36.5t-13.5 45.5l287 151q15 -16 26 -39t14 -45z" />
    <glyph glyph-name="uni0338" unicode="&#x338;" 
d="M-497 -34q-17 6 -31 20t-20 31l439 485q16 -6 30.5 -19t20.5 -28z" />
    <glyph glyph-name="Wgrave" unicode="&#x1e80;" horiz-adv-x="957" 
d="M606 740q-5 -38 -31 -61l-237 77q0 39 16 71t45 53zM833 648q28 0 64.5 -3t48.5 -8q-40 -182 -84.5 -337.5t-103.5 -297.5q-34 -7 -79 -7q-43 0 -82 7l-102 345l-13 64l-13 -65l-106 -344q-38 -7 -79 -7q-36 0 -87 7q-118 283 -183 635q57 12 117 12q27 0 48 -3
q15 -112 42 -238.5t65 -247.5l16 73l106 366q35 7 76 7t76 -7l106 -366l17 -76q75 248 110 489z" />
    <glyph glyph-name="wgrave" unicode="&#x1e81;" horiz-adv-x="772" 
d="M501 575q-5 -18 -16 -34t-26 -26l-214 106q18 82 80 115zM671 477q47 0 93 -11q-32 -143 -71.5 -254.5t-97.5 -211.5q-34 -7 -74 -7q-37 0 -71 7q-37 62 -68 143q-20 -76 -52 -143q-34 -7 -75 -7q-40 0 -72 7q-50 77 -92.5 179.5t-80.5 286.5q16 4 47 7.5t56 3.5l61 -3
q16 -102 40.5 -199.5t44.5 -146.5l5 -21q2 15 5 22q14 35 29 86.5t25 104.5q-16 58 -34 146q15 4 46 7.5t56 3.5l52 -3q15 -101 37 -197.5t39 -148.5l5 -25q1 13 6 25q19 53 40 146t38 200z" />
    <glyph glyph-name="Wacute" unicode="&#x1e82;" horiz-adv-x="957" 
d="M382 679q-26 23 -31 61l208 140q59 -43 61 -124zM833 648q28 0 64.5 -3t48.5 -8q-40 -182 -84.5 -337.5t-103.5 -297.5q-34 -7 -79 -7q-43 0 -82 7l-102 345l-13 64l-13 -65l-106 -344q-38 -7 -79 -7q-36 0 -87 7q-118 283 -183 635q57 12 117 12q27 0 48 -3
q15 -112 42 -238.5t65 -247.5l16 73l106 366q35 7 76 7t76 -7l106 -366l17 -76q75 248 110 489z" />
    <glyph glyph-name="wacute" unicode="&#x1e83;" horiz-adv-x="772" 
d="M304 515q-31 21 -42 63l176 158q31 -17 52 -47t28 -68zM671 477q47 0 93 -11q-32 -143 -71.5 -254.5t-97.5 -211.5q-34 -7 -74 -7q-37 0 -71 7q-37 62 -68 143q-20 -76 -52 -143q-34 -7 -75 -7q-40 0 -72 7q-50 77 -92.5 179.5t-80.5 286.5q16 4 47 7.5t56 3.5l61 -3
q16 -102 40.5 -199.5t44.5 -146.5l5 -21q2 15 5 22q14 35 29 86.5t25 104.5q-16 58 -34 146q15 4 46 7.5t56 3.5l52 -3q15 -101 37 -197.5t39 -148.5l5 -25q1 13 6 25q19 53 40 146t38 200z" />
    <glyph glyph-name="Wdieresis" unicode="&#x1e84;" horiz-adv-x="957" 
d="M365 705q-31 0 -53.5 22t-22.5 53q0 30 22.5 52.5t53.5 22.5q30 0 52.5 -22.5t22.5 -52.5q0 -31 -22.5 -53t-52.5 -22zM599 705q-30 0 -52.5 22t-22.5 53q0 30 22.5 52.5t52.5 22.5q31 0 53.5 -22.5t22.5 -52.5q0 -31 -22.5 -53t-53.5 -22zM833 648q28 0 64.5 -3t48.5 -8
q-40 -182 -84.5 -337.5t-103.5 -297.5q-34 -7 -79 -7q-43 0 -82 7l-102 345l-13 64l-13 -65l-106 -344q-38 -7 -79 -7q-36 0 -87 7q-118 283 -183 635q57 12 117 12q27 0 48 -3q15 -112 42 -238.5t65 -247.5l16 73l106 366q35 7 76 7t76 -7l106 -366l17 -76q75 248 110 489z
" />
    <glyph glyph-name="wdieresis" unicode="&#x1e85;" horiz-adv-x="772" 
d="M271 541q-31 0 -53.5 22.5t-22.5 53.5t22.5 53t53.5 22t53.5 -22t22.5 -53t-22.5 -53.5t-53.5 -22.5zM496 541q-30 0 -53 22.5t-23 53.5t22.5 53t53.5 22t53.5 -22t22.5 -53t-22.5 -53.5t-53.5 -22.5zM671 477q47 0 93 -11q-32 -143 -71.5 -254.5t-97.5 -211.5
q-34 -7 -74 -7q-37 0 -71 7q-37 62 -68 143q-20 -76 -52 -143q-34 -7 -75 -7q-40 0 -72 7q-50 77 -92.5 179.5t-80.5 286.5q16 4 47 7.5t56 3.5l61 -3q16 -102 40.5 -199.5t44.5 -146.5l5 -21q2 15 5 22q14 35 29 86.5t25 104.5q-16 58 -34 146q15 4 46 7.5t56 3.5l52 -3
q15 -101 37 -197.5t39 -148.5l5 -25q1 13 6 25q19 53 40 146t38 200z" />
    <glyph glyph-name="uni1E9E" unicode="&#x1e9e;" horiz-adv-x="675" 
d="M517 373q52 -34 80.5 -61t40.5 -62t12 -74q0 -43 -13.5 -75t-35.5 -56t-61.5 -42.5t-93.5 -18.5q-61 0 -111.5 20t-73.5 44q4 37 23.5 68.5t49.5 50.5q52 -48 110 -48q26 0 41 13.5t15 34.5q0 22 -14 38.5t-58 43.5q-61 37 -84.5 61.5t-31.5 48t-8 44.5q0 68 51 106
q-28 -3 -61 -3q-38 0 -61 -20.5t-23 -58.5v-427q-34 -6 -73 -6q-37 0 -76 6v424q0 47 15.5 87t45 69.5t72 45.5t93.5 16h271q6 -33 6 -65q0 -41 -6 -74q-47 -1 -71 -17.5t-24 -44.5q0 -14 7.5 -27.5t46.5 -40.5z" />
    <glyph glyph-name="Ygrave" unicode="&#x1ef2;" horiz-adv-x="617" 
d="M434 740q-5 -38 -31 -61l-237 77q0 39 16 71t45 53zM617 639l-235 -405v-234q-34 -6 -73 -6q-35 0 -76 6v244l-236 395q58 10 106 10q40 0 68 -4l121 -214l22 -49l22 49l120 214q28 4 65 4q43 0 96 -10z" />
    <glyph glyph-name="ygrave" unicode="&#x1ef3;" horiz-adv-x="531" 
d="M390 575q-5 -18 -16 -34t-26 -26l-214 106q18 82 80 115zM423 477q50 0 96 -12q-31 -229 -122 -397.5t-249 -281.5q-32 11 -55.5 40t-33.5 63q90 71 130 126q-68 106 -108.5 211t-69.5 240q18 4 50 7.5t59 3.5q31 0 56 -3q12 -75 36.5 -162.5t55.5 -160.5l10 -27
q3 16 8 27q53 123 78 323q29 3 59 3z" />
    <glyph glyph-name="uni1EF8" unicode="&#x1ef8;" horiz-adv-x="617" 
d="M202 691q-18 0 -40.5 5t-38 13.5t-22.5 16.5q11 57 48.5 90t88.5 33q32 0 77.5 -18.5t59.5 -18.5q16 0 28 12t17 32q25 0 53.5 -9t46.5 -26q-6 -35 -23.5 -62t-45.5 -44t-63 -17q-19 0 -39 5t-53 18t-46 13q-14 0 -28 -9t-20 -34zM617 639l-235 -405v-234q-34 -6 -73 -6
q-35 0 -76 6v244l-236 395q58 10 106 10q40 0 68 -4l121 -214l22 -49l22 49l120 214q28 4 65 4q43 0 96 -10z" />
    <glyph glyph-name="uni1EF9" unicode="&#x1ef9;" horiz-adv-x="531" 
d="M171 545q-25 0 -55.5 9t-44.5 25q8 43 31.5 74t52 42t52.5 11q17 0 33.5 -5.5t46.5 -19t43 -13.5q12 0 25.5 8.5t20.5 33.5q25 0 53 -9t47 -26q-5 -27 -21 -55.5t-46.5 -47t-64.5 -18.5q-17 0 -35 5t-48 18.5t-42 13.5q-9 0 -18.5 -4t-17.5 -15.5t-12 -26.5zM423 477
q50 0 96 -12q-31 -229 -122 -397.5t-249 -281.5q-32 11 -55.5 40t-33.5 63q90 71 130 126q-68 106 -108.5 211t-69.5 240q18 4 50 7.5t59 3.5q31 0 56 -3q12 -75 36.5 -162.5t55.5 -160.5l10 -27q3 16 8 27q53 123 78 323q29 3 59 3z" />
    <glyph glyph-name="endash" unicode="&#x2013;" horiz-adv-x="560" 
d="M60 202q-8 20 -8 48q0 30 8 50h440q7 -21 7 -49t-7 -49h-440z" />
    <glyph glyph-name="emdash" unicode="&#x2014;" horiz-adv-x="1060" 
d="M61 201q-8 20 -8 49t8 52h939q7 -22 7 -51t-7 -50h-939z" />
    <glyph glyph-name="quoteleft" unicode="&#x2018;" horiz-adv-x="215" 
d="M94 434q-29 0 -49 8q-9 24 -9 65q0 25 9.5 60t32.5 70.5t49 56.5q14 -1 31 -9.5t23 -22.5q-16 -29 -23 -64t-7 -64q0 -22 5 -46t13 -40q-12 -6 -33.5 -10t-41.5 -4z" />
    <glyph glyph-name="quoteright" unicode="&#x2019;" horiz-adv-x="208" 
d="M87 434q-15 1 -31.5 10t-22.5 22q30 50 30 128q0 22 -5 46t-13 40q12 6 33.5 10t41.5 4q30 0 49 -8q10 -27 10 -65q0 -39 -16.5 -80t-38 -67.5t-37.5 -39.5z" />
    <glyph glyph-name="quotesinglbase" unicode="&#x201a;" horiz-adv-x="219" 
d="M82 -135q-14 1 -31 9.5t-23 22.5q30 50 30 127q0 50 -18 86q13 6 34.5 10.5t40.5 4.5q27 0 49 -8q10 -27 10 -65q0 -39 -16.5 -80t-38 -67.5t-37.5 -39.5z" />
    <glyph glyph-name="quotedblleft" unicode="&#x201c;" horiz-adv-x="389" 
d="M94 434q-30 0 -49 8q-9 24 -9 65q0 26 9.5 60.5t32.5 70t49 56.5q14 -1 31 -9.5t23 -22.5q-30 -50 -30 -128q0 -22 5 -46t13 -40q-12 -6 -33.5 -10t-41.5 -4zM268 434q-30 0 -49 8q-10 27 -10 65q0 25 9.5 60t33 70.5t49.5 56.5q14 -1 31 -9.5t23 -22.5q-16 -29 -23 -64
t-7 -64q0 -22 5 -46t13 -40q-12 -6 -33.5 -10t-41.5 -4z" />
    <glyph glyph-name="quotedblright" unicode="&#x201d;" horiz-adv-x="383" 
d="M87 432q-14 1 -31 10.5t-23 21.5q30 51 30 128q0 49 -17 86q30 14 74 14q29 0 49 -7q10 -28 10 -65q0 -25 -9.5 -60t-33 -71t-49.5 -57zM262 432q-15 1 -32 10.5t-23 21.5q31 51 31 128q0 50 -18 86q30 14 75 14q28 0 48 -7q10 -24 10 -65q0 -25 -9.5 -60t-32.5 -71
t-49 -57z" />
    <glyph glyph-name="quotedblbase" unicode="&#x201e;" horiz-adv-x="393" 
d="M82 -135q-14 1 -31 9.5t-23 22.5q29 50 29 127q0 52 -17 86q13 6 34.5 10.5t40.5 4.5q27 0 49 -8q10 -27 10 -65q0 -39 -16.5 -80t-38 -67.5t-37.5 -39.5zM256 -135q-14 1 -31 9.5t-23 22.5q30 50 30 127q0 50 -18 86q13 6 34.5 10.5t40.5 4.5q27 0 49 -8q10 -27 10 -65
q0 -39 -16.5 -80t-38 -67.5t-37.5 -39.5z" />
    <glyph glyph-name="dagger" unicode="&#x2020;" horiz-adv-x="511" 
d="M471 493q0 -31 -8 -69l-144 12v-603q-27 -8 -63 -8q-34 0 -66 8l1 603l-143 -12q-8 35 -8 68t8 68l143 -12v175q30 6 64 6q36 0 64 -6v-175l144 12q8 -30 8 -67z" />
    <glyph glyph-name="daggerdbl" unicode="&#x2021;" horiz-adv-x="511" 
d="M319 118l144 11q8 -29 8 -66q0 -31 -8 -69l-144 12v-173q-27 -8 -63 -8q-34 0 -66 8v173l-142 -12q-8 35 -8 68t8 67l142 -11l1 318l-143 -12q-8 35 -8 68t8 68l143 -12v175q30 6 64 6q36 0 64 -6v-175l144 12q8 -30 8 -67q0 -31 -8 -69l-144 12v-318z" />
    <glyph glyph-name="bullet" unicode="&#x2022;" horiz-adv-x="356" 
d="M178 154q-48 0 -82.5 34.5t-34.5 82.5q0 22 11.5 49.5t41 47.5t64.5 20q48 0 82.5 -34.5t34.5 -82.5t-34.5 -82.5t-82.5 -34.5z" />
    <glyph glyph-name="ellipsis" unicode="&#x2026;" horiz-adv-x="617" 
d="M114 -18q-31 0 -54.5 23.5t-23.5 54.5q0 32 23 54.5t55 22.5q31 0 54 -22.5t23 -54.5q0 -31 -23 -54.5t-54 -23.5zM310 -18q-31 0 -54 23.5t-23 54.5q0 32 23 54.5t54 22.5q32 0 54.5 -22.5t22.5 -54.5q0 -31 -23 -54.5t-54 -23.5zM503 -18q-31 0 -54.5 23.5t-23.5 54.5
t23.5 54t54.5 23t54 -22.5t23 -54.5q0 -31 -23 -54.5t-54 -23.5z" />
    <glyph glyph-name="perthousand" unicode="&#x2030;" horiz-adv-x="1132" 
d="M105 -47l445 687q53 11 102 0l-445 -687q-52 -9 -102 0zM185 319q-74 0 -116 43t-42 111t42 111t116 43q72 0 114 -43t42 -111t-42 -111t-114 -43zM185 400q31 0 47 20t16 53t-16 53.5t-47 20.5q-32 0 -48.5 -20.5t-16.5 -53.5t16.5 -53t48.5 -20zM595 -18
q-74 0 -116 42.5t-42 111.5q0 68 42 110.5t116 42.5q27 0 54.5 -7.5t50 -26t37 -48.5t14.5 -71q0 -25 -7 -51t-25 -49t-48.5 -38.5t-75.5 -15.5zM945 -18q-74 0 -116 42.5t-42 111.5q0 68 42 110.5t116 42.5q73 0 115 -42.5t42 -110.5q0 -69 -42 -111.5t-115 -42.5zM595 62
q31 0 47 20.5t16 53.5q0 32 -16 52.5t-47 20.5q-32 0 -48.5 -20t-16.5 -53t16.5 -53.5t48.5 -20.5zM945 62q31 0 47 20.5t16 53.5t-16 53t-47 20q-32 0 -48 -20t-16 -53t16 -53.5t48 -20.5z" />
    <glyph glyph-name="guilsinglleft" unicode="&#x2039;" horiz-adv-x="286" 
d="M187 74l-160 178l156 180q18 -3 34 -13t24 -24l-76 -141l77 -144q-7 -13 -22 -22.5t-33 -13.5z" />
    <glyph glyph-name="guilsinglright" unicode="&#x203a;" horiz-adv-x="286" 
d="M103 74q-17 3 -33.5 13t-24.5 23l75 142l-76 144q7 14 22 23.5t33 12.5l159 -179z" />
    <glyph glyph-name="fraction" unicode="&#x2044;" horiz-adv-x="561" 
d="M-6 -47l472 722q57 9 114 0l-473 -722q-59 -11 -113 0z" />
    <glyph glyph-name="Euro" unicode="&#x20ac;" horiz-adv-x="643" 
d="M533 159q67 -41 79 -117q-71 -57 -196 -57q-116 0 -193.5 63.5t-101.5 173.5h-90q-4 24 -4 35q0 13 4 35h80l-1 32l1 29h-62q-4 16 -4 35t4 35h72q26 110 106 175t195 65q55 0 101.5 -14.5t78.5 -38.5q-6 -35 -26.5 -69t-49.5 -51q-44 34 -99 34q-53 0 -90 -26.5
t-53 -74.5h153q4 -24 4 -35t-4 -35h-166l-1 -29l1 -32h149q3 -16 3 -35q0 -17 -3 -35h-134q17 -47 53 -73.5t84 -26.5q66 0 110 37z" />
    <glyph glyph-name="trademark" unicode="&#x2122;" horiz-adv-x="798" 
d="M671 669q31 0 65 -3v-359q-28 -3 -52 -3l-47 3v122l7 65l-11 -34l-50 -117q-20 -4 -41 -4q-19 0 -42 4l-53 118l-10 27l6 -59v-122q-22 -3 -48 -3q-21 0 -51 3v358q28 5 63 5q30 0 50 -4l81 -179l7 -25l7 25l73 179q16 3 46 3zM33 667h288q4 -23 4 -49q0 -25 -4 -46h-91
v-265q-23 -4 -52 -4t-53 4v265h-92q-4 20 -4 46t4 49z" />
    <glyph glyph-name="minus" unicode="&#x2212;" horiz-adv-x="549" 
d="M60 190q-5 25 -5 48q0 24 5 49h428q6 -22 6 -49q0 -25 -6 -48h-428z" />
    <glyph glyph-name="approxequal" unicode="&#x2248;" horiz-adv-x="523" 
d="M112 248q-16 5 -36 20.5t-27 34.5q21 40 57.5 63.5t76.5 23.5q32 0 82 -20.5t76 -20.5q36 0 67 43q16 -4 36.5 -19t29.5 -36q-23 -41 -59.5 -65t-77.5 -24q-35 0 -85.5 20.5t-71.5 20.5q-42 0 -68 -41zM113 56q-17 5 -37 20.5t-27 33.5q10 19 28.5 40t47 34.5t58.5 13.5
q32 0 82 -20.5t76 -20.5q36 0 67 43q18 -4 37.5 -19.5t28.5 -36.5q-23 -41 -59.5 -64.5t-77.5 -23.5q-35 0 -85.5 20.5t-71.5 20.5q-41 0 -67 -41z" />
    <glyph glyph-name="notequal" unicode="&#x2260;" horiz-adv-x="548" 
d="M293 184h195q4 -21 4 -49t-4 -49h-253l-72 -120q-18 4 -35 14.5t-27 25.5l48 80h-89q-5 27 -5 49t5 49h148l58 98h-206q-5 27 -5 49t5 49h265l62 104q17 -4 34 -14t28 -24l-39 -66h78q4 -21 4 -49t-4 -49h-137z" />
    <glyph glyph-name="uniF6BE" unicode="&#xf6be;" horiz-adv-x="266" 
d="M23 -199q-40 0 -73 10.5t-52 27.5q2 27 19.5 57.5t42.5 46.5q22 -18 47 -18q56 0 56 68v481q29 6 73 6q45 0 76 -6v-475q0 -59 -21.5 -102t-64 -69.5t-103.5 -26.5z" />
    <glyph glyph-name="uniF8FF" unicode="&#xf8ff;" horiz-adv-x="1451" 
d="M691 583q0 26 18 44t43 18q26 0 44 -18t18 -44q0 -25 -18 -43t-44 -18q-25 0 -43 18t-18 43zM219 270h-119q0 134 9 314h100q0 -4 2 -34.5t3 -62t3 -88t2 -129.5zM694 270q0 92 3 147h-61l3 -65q4 -4 15 -4q13 0 18 5v-74q-14 -15 -68 -15q-40 0 -61 17t-21 49l4 87h-22
v79l119 30l1 -17h178q10 -64 10 -239h-118zM328 265q-43 0 -67.5 29t-24.5 85q0 65 33.5 100t100.5 35q64 0 94 -31.5t30 -85.5v-127h-83l-8 61q-6 -32 -23.5 -49t-51.5 -17zM1090 270h-114l2 93q0 6 -1.5 17.5t-13.5 11.5q-8 0 -13 -5.5t-5 -23.5q0 -7 1.5 -37t1.5 -56
h-114q0 175 10 239h80q6 -44 6 -76q4 37 26 59t54 22q21 0 39.5 -8.5t27.5 -32.5t10 -65zM1351 391q0 -61 -30.5 -93.5t-92.5 -32.5q-63 0 -92.5 33.5t-29.5 90.5q0 37 13 65.5t40.5 44t70.5 15.5q121 0 121 -123zM390 375q0 26 -24 26q-22 0 -22 -26q0 -14 6 -22t16 -8
q11 0 17.5 8.5t6.5 21.5zM1251 375q0 26 -23 26q-21 0 -21 -26q0 -14 5.5 -22t15.5 -8t16.5 8.5t6.5 21.5zM428 238h104q3 -18 6.5 -60t3.5 -78q0 -81 -34 -115.5t-118 -34.5q-61 0 -88 17v83q24 -16 70 -16q29 0 41.5 10t12.5 18q-16 -11 -49 -11q-90 0 -90 83v13h-55
l3 -65q6 -4 15 -4q13 0 18 5v-73q-19 -15 -68 -15q-44 0 -62.5 17.5t-18.5 53.5l3 81h-18v80l117 29l-1 -18h177v-119q0 -15 3.5 -21t11.5 -6q16 0 16 27v119zM733 243q37 0 58.5 -29.5t21.5 -83.5q0 -135 -137 -135l1 -39h-119q0 142 10 282h78q2 -11 4.5 -38t2.5 -38
q8 38 28.5 59.5t51.5 21.5zM1070 127q0 -21 -3 -35h-124q4 -6 16 -12t34 -6q34 0 55 12v-75q-23 -16 -78 -16q-70 0 -105.5 31t-35.5 91q0 27 10.5 56.5t39.5 49.5t75 20q54 0 85 -30.5t31 -85.5zM978 109q1 13 -3.5 20t-13.5 7q-10 0 -16.5 -7.5t-6.5 -19.5h40zM670 72
q15 0 26 11t11 26q0 11 -5.5 17t-14.5 6q-22 0 -22 -31q0 -14 5 -29zM1074 13q0 -10 7 -16.5t17 -6.5t17 6.5t7 16.5t-7 16.5t-17 6.5t-17 -6.5t-7 -16.5zM1080 13q0 8 5 13t13 5t13 -5t5 -13t-5 -13t-13 -5t-13 5t-5 13zM1108 2l-6 9q2 0 4.5 2t2.5 5q0 7 -10 7h-11v-23h5
v9h5l4 -9h6zM1100 15h-7v6h7q3 0 4 -3q-1 -3 -4 -3z" />
    <glyph glyph-name="A.salt" horiz-adv-x="625" 
d="M389 642q140 -296 231 -635q-53 -12 -96 -12q-27 0 -55 5l-34 127h-249q-19 -65 -33 -127q-31 -4 -68 -4q-48 0 -80 11q87 336 233 635q30 6 77 6q44 0 74 -6zM224 251h173q-36 109 -68 189l-17 39l-15 -39q-40 -90 -73 -189z" />
    <glyph glyph-name="Aacute.aalt" horiz-adv-x="625" 
d="M213 679q-26 23 -31 61l208 140q59 -43 61 -124zM389 642q140 -296 231 -635q-53 -12 -96 -12q-27 0 -55 5l-34 127h-249q-19 -65 -33 -127q-31 -4 -68 -4q-48 0 -80 11q87 336 233 635q30 6 77 6q44 0 74 -6zM224 251h173q-36 109 -68 189l-17 39l-15 -39
q-40 -90 -73 -189z" />
    <glyph glyph-name="Abreve.aalt" horiz-adv-x="625" 
d="M315 689q-52 0 -91 19.5t-63 55t-24 81.5q35 16 88 11q7 -25 24 -39.5t35.5 -18.5t32.5 -4q22 0 42.5 8t31 23t13.5 31q50 6 85 -11q0 -45 -24 -81t-62 -55.5t-88 -19.5zM389 642q140 -296 231 -635q-53 -12 -96 -12q-27 0 -55 5l-34 127h-249q-19 -65 -33 -127
q-31 -4 -68 -4q-48 0 -80 11q87 336 233 635q30 6 77 6q44 0 74 -6zM224 251h173q-36 109 -68 189l-17 39l-15 -39q-40 -90 -73 -189z" />
    <glyph glyph-name="Acircumflex.aalt" horiz-adv-x="625" 
d="M188 691q-16 8 -28.5 26.5t-16.5 38.5l129 106q42 10 82 0l131 -102q-3 -20 -16 -39t-29 -30l-130 74zM389 642q140 -296 231 -635q-53 -12 -96 -12q-27 0 -55 5l-34 127h-249q-19 -65 -33 -127q-31 -4 -68 -4q-48 0 -80 11q87 336 233 635q30 6 77 6q44 0 74 -6z
M224 251h173q-36 109 -68 189l-17 39l-15 -39q-40 -90 -73 -189z" />
    <glyph glyph-name="Adieresis.aalt" horiz-adv-x="625" 
d="M196 705q-31 0 -53.5 22t-22.5 53q0 30 22.5 52.5t53.5 22.5q30 0 52.5 -22.5t22.5 -52.5q0 -31 -22.5 -53t-52.5 -22zM430 705q-30 0 -52.5 22t-22.5 53q0 30 22.5 52.5t52.5 22.5q31 0 53.5 -22.5t22.5 -52.5q0 -31 -22.5 -53t-53.5 -22zM389 642q140 -296 231 -635
q-53 -12 -96 -12q-27 0 -55 5l-34 127h-249q-19 -65 -33 -127q-31 -4 -68 -4q-48 0 -80 11q87 336 233 635q30 6 77 6q44 0 74 -6zM224 251h173q-36 109 -68 189l-17 39l-15 -39q-40 -90 -73 -189z" />
    <glyph glyph-name="Agrave.aalt" horiz-adv-x="625" 
d="M437 740q-5 -38 -31 -61l-237 77q0 39 16 71t45 53zM389 642q140 -296 231 -635q-53 -12 -96 -12q-27 0 -55 5l-34 127h-249q-19 -65 -33 -127q-31 -4 -68 -4q-48 0 -80 11q87 336 233 635q30 6 77 6q44 0 74 -6zM224 251h173q-36 109 -68 189l-17 39l-15 -39
q-40 -90 -73 -189z" />
    <glyph glyph-name="Amacron.aalt" horiz-adv-x="625" 
d="M471 723h-314q-9 23 -9 49q0 28 9 52h314q7 -28 7 -51q0 -24 -7 -50zM389 642q140 -296 231 -635q-53 -12 -96 -12q-27 0 -55 5l-34 127h-249q-19 -65 -33 -127q-31 -4 -68 -4q-48 0 -80 11q87 336 233 635q30 6 77 6q44 0 74 -6zM224 251h173q-36 109 -68 189l-17 39
l-15 -39q-40 -90 -73 -189z" />
    <glyph glyph-name="Aogonek.aalt" horiz-adv-x="625" 
d="M585 -91q19 -12 33 -33t14 -44q-47 -47 -125 -47q-49 0 -82 27t-33 71q0 33 20.5 64t56.5 53l-34 127h-249q-19 -65 -33 -127q-31 -4 -68 -4q-48 0 -80 11q87 336 233 635q30 6 77 6q44 0 74 -6q140 -296 231 -635q-64 -15 -92.5 -36.5t-28.5 -46.5q0 -13 8.5 -24
t27.5 -11q26 0 50 20zM224 251h173q-36 109 -68 189l-17 39l-15 -39q-40 -90 -73 -189z" />
    <glyph glyph-name="Aring.aalt" horiz-adv-x="625" 
d="M313 659q-23 0 -51 12t-48.5 42.5t-20.5 66.5q0 49 35.5 84.5t84.5 35.5q35 0 65 -20.5t42 -48.5t12 -51t-12 -51.5t-42 -49t-65 -20.5zM313 822q-17 0 -29 -13t-12 -30t12 -29t29 -12t28.5 12t11.5 29t-11.5 30t-28.5 13zM389 642q140 -296 231 -635q-53 -12 -96 -12
q-27 0 -55 5l-34 127h-249q-19 -65 -33 -127q-31 -4 -68 -4q-48 0 -80 11q87 336 233 635q30 6 77 6q44 0 74 -6zM224 251h173q-36 109 -68 189l-17 39l-15 -39q-40 -90 -73 -189z" />
    <glyph glyph-name="Atilde.aalt" horiz-adv-x="625" 
d="M204 691q-18 0 -40.5 5t-38 13.5t-22.5 16.5q11 57 48.5 90t88.5 33q32 0 77.5 -18.5t59.5 -18.5q16 0 28 12t17 32q25 0 53.5 -9t46.5 -26q-6 -35 -23.5 -62t-45.5 -44t-63 -17q-19 0 -39 5t-53 18t-46 13q-14 0 -28 -9t-20 -34zM389 642q140 -296 231 -635
q-53 -12 -96 -12q-27 0 -55 5l-34 127h-249q-19 -65 -33 -127q-31 -4 -68 -4q-48 0 -80 11q87 336 233 635q30 6 77 6q44 0 74 -6zM224 251h173q-36 109 -68 189l-17 39l-15 -39q-40 -90 -73 -189z" />
    <glyph glyph-name="E.aalt" horiz-adv-x="507" 
d="M428 161q26 -15 45 -45t26 -67q-33 -28 -88 -45.5t-124 -17.5q-76 0 -133 22.5t-89 64.5t-32 105q0 59 28 100t76 61q-37 22 -57 58t-20 82q0 80 58 129.5t156 49.5q47 0 99.5 -11t91.5 -39q-1 -16 -7 -36.5t-20.5 -41.5t-32.5 -34q-58 29 -117 29q-37 0 -59.5 -18
t-22.5 -49q0 -34 26 -51t83 -17h54q11 -21 11 -57q0 -33 -10 -57h-60q-118 -1 -118 -81q0 -35 25 -56t70 -21q33 0 67 7t74 36z" />
    <glyph glyph-name="Eacute.aalt" horiz-adv-x="507" 
d="M174 679q-26 23 -31 61l208 140q59 -43 61 -124zM428 161q26 -15 45 -45t26 -67q-33 -28 -88 -45.5t-124 -17.5q-76 0 -133 22.5t-89 64.5t-32 105q0 59 28 100t76 61q-37 22 -57 58t-20 82q0 80 58 129.5t156 49.5q47 0 99.5 -11t91.5 -39q-1 -16 -7 -36.5t-20.5 -41.5
t-32.5 -34q-58 29 -117 29q-37 0 -59.5 -18t-22.5 -49q0 -34 26 -51t83 -17h54q11 -21 11 -57q0 -33 -10 -57h-60q-118 -1 -118 -81q0 -35 25 -56t70 -21q33 0 67 7t74 36z" />
    <glyph glyph-name="Ecaron.aalt" horiz-adv-x="507" 
d="M317 697q-40 -10 -82 0l-131 105q4 19 16.5 37.5t29.5 28.5l130 -74l122 74q15 -8 27.5 -25.5t16.5 -36.5zM428 161q26 -15 45 -45t26 -67q-33 -28 -88 -45.5t-124 -17.5q-76 0 -133 22.5t-89 64.5t-32 105q0 59 28 100t76 61q-37 22 -57 58t-20 82q0 80 58 129.5
t156 49.5q47 0 99.5 -11t91.5 -39q-1 -16 -7 -36.5t-20.5 -41.5t-32.5 -34q-58 29 -117 29q-37 0 -59.5 -18t-22.5 -49q0 -34 26 -51t83 -17h54q11 -21 11 -57q0 -33 -10 -57h-60q-118 -1 -118 -81q0 -35 25 -56t70 -21q33 0 67 7t74 36z" />
    <glyph glyph-name="Ecircumflex.aalt" horiz-adv-x="507" 
d="M149 691q-16 8 -28.5 26.5t-16.5 38.5l129 106q42 10 82 0l131 -102q-3 -20 -16 -39t-29 -30l-130 74zM428 161q26 -15 45 -45t26 -67q-33 -28 -88 -45.5t-124 -17.5q-76 0 -133 22.5t-89 64.5t-32 105q0 59 28 100t76 61q-37 22 -57 58t-20 82q0 80 58 129.5t156 49.5
q47 0 99.5 -11t91.5 -39q-1 -16 -7 -36.5t-20.5 -41.5t-32.5 -34q-58 29 -117 29q-37 0 -59.5 -18t-22.5 -49q0 -34 26 -51t83 -17h54q11 -21 11 -57q0 -33 -10 -57h-60q-118 -1 -118 -81q0 -35 25 -56t70 -21q33 0 67 7t74 36z" />
    <glyph glyph-name="Edieresis.aalt" horiz-adv-x="507" 
d="M157 705q-31 0 -53.5 22t-22.5 53q0 30 22.5 52.5t53.5 22.5q30 0 52.5 -22.5t22.5 -52.5q0 -31 -22.5 -53t-52.5 -22zM391 705q-30 0 -52.5 22t-22.5 53q0 30 22.5 52.5t52.5 22.5q31 0 53.5 -22.5t22.5 -52.5q0 -31 -22.5 -53t-53.5 -22zM428 161q26 -15 45 -45t26 -67
q-33 -28 -88 -45.5t-124 -17.5q-76 0 -133 22.5t-89 64.5t-32 105q0 59 28 100t76 61q-37 22 -57 58t-20 82q0 80 58 129.5t156 49.5q47 0 99.5 -11t91.5 -39q-1 -16 -7 -36.5t-20.5 -41.5t-32.5 -34q-58 29 -117 29q-37 0 -59.5 -18t-22.5 -49q0 -34 26 -51t83 -17h54
q11 -21 11 -57q0 -33 -10 -57h-60q-118 -1 -118 -81q0 -35 25 -56t70 -21q33 0 67 7t74 36z" />
    <glyph glyph-name="Edotaccent.aalt" horiz-adv-x="507" 
d="M274 690q-27 0 -49 15t-31 36t-9 38t9 37.5t31.5 35.5t48.5 15q17 0 38 -9t36 -31t15 -48q0 -17 -9 -38t-31 -36t-49 -15zM428 161q26 -15 45 -45t26 -67q-33 -28 -88 -45.5t-124 -17.5q-76 0 -133 22.5t-89 64.5t-32 105q0 59 28 100t76 61q-37 22 -57 58t-20 82
q0 80 58 129.5t156 49.5q47 0 99.5 -11t91.5 -39q-1 -16 -7 -36.5t-20.5 -41.5t-32.5 -34q-58 29 -117 29q-37 0 -59.5 -18t-22.5 -49q0 -34 26 -51t83 -17h54q11 -21 11 -57q0 -33 -10 -57h-60q-118 -1 -118 -81q0 -35 25 -56t70 -21q33 0 67 7t74 36z" />
    <glyph glyph-name="Egrave.aalt" horiz-adv-x="507" 
d="M397 740q-5 -38 -31 -61l-237 77q0 39 16 71t45 53zM428 161q26 -15 45 -45t26 -67q-33 -28 -88 -45.5t-124 -17.5q-76 0 -133 22.5t-89 64.5t-32 105q0 59 28 100t76 61q-37 22 -57 58t-20 82q0 80 58 129.5t156 49.5q47 0 99.5 -11t91.5 -39q-1 -16 -7 -36.5
t-20.5 -41.5t-32.5 -34q-58 29 -117 29q-37 0 -59.5 -18t-22.5 -49q0 -34 26 -51t83 -17h54q11 -21 11 -57q0 -33 -10 -57h-60q-118 -1 -118 -81q0 -35 25 -56t70 -21q33 0 67 7t74 36z" />
    <glyph glyph-name="Emacron.aalt" horiz-adv-x="507" 
d="M432 723h-314q-9 23 -9 49q0 28 9 52h314q7 -28 7 -51q0 -24 -7 -50zM428 161q26 -15 45 -45t26 -67q-33 -28 -88 -45.5t-124 -17.5q-76 0 -133 22.5t-89 64.5t-32 105q0 59 28 100t76 61q-37 22 -57 58t-20 82q0 80 58 129.5t156 49.5q47 0 99.5 -11t91.5 -39
q-1 -16 -7 -36.5t-20.5 -41.5t-32.5 -34q-58 29 -117 29q-37 0 -59.5 -18t-22.5 -49q0 -34 26 -51t83 -17h54q11 -21 11 -57q0 -33 -10 -57h-60q-118 -1 -118 -81q0 -35 25 -56t70 -21q33 0 67 7t74 36z" />
    <glyph glyph-name="Eogonek.aalt" horiz-adv-x="507" 
d="M443 -93q19 -12 33 -33t14 -44q-41 -41 -110 -41q-24 0 -50.5 8.5t-44 31.5t-17.5 55q0 52 56 103l-37 -1q-76 0 -133 22.5t-89 64.5t-32 105q0 59 28 100t76 61q-37 22 -57 58t-20 82q0 80 58 129.5t156 49.5q47 0 99.5 -11t91.5 -39q-1 -16 -7 -36.5t-20.5 -41.5
t-32.5 -34q-58 29 -117 29q-37 0 -59.5 -18t-22.5 -49q0 -34 26 -51t83 -17h54q11 -21 11 -57q0 -33 -10 -57h-60q-118 -1 -118 -81q0 -35 25 -56t70 -21q33 0 67 7t74 36q26 -15 45 -45t26 -67q-20 -17 -49 -30q-33 -21 -54 -47.5t-21 -47.5q0 -16 9.5 -23.5t21.5 -7.5
q19 0 37 14z" />
    <glyph glyph-name="Q.aalt" horiz-adv-x="736" 
d="M705 322q0 -79 -30 -147t-82 -113l64 -90q-17 -25 -47 -46t-59 -25l-70 98q-54 -17 -113 -17q-72 0 -134 24.5t-107.5 69.5t-70.5 108.5t-25 137.5q0 73 25 136.5t70.5 109t107.5 70.5t134 25t134.5 -24.5t107.5 -69.5t70 -108.5t25 -138.5zM368 123l24 1l-43 61
q17 22 47 41.5t59 28.5l48 -68q40 52 40 135q0 92 -48 146t-127 54t-127 -54t-48 -146q0 -90 48 -144.5t127 -54.5z" />
    <glyph glyph-name="a.salt" horiz-adv-x="587" 
d="M514 173q0 -25 7.5 -43.5t41.5 -32.5q-3 -37 -18 -67t-39 -48q-68 10 -101 53q-62 -52 -149 -52q-49 0 -91.5 16t-72.5 47t-46.5 76.5t-16.5 101.5t19.5 105t56 84.5t87.5 55t110 19.5q126 0 213 -51zM179 229q0 -26 10 -54.5t36 -46.5t59 -18q21 0 43.5 8t38.5 23v208
q-35 11 -66 11q-38 0 -67.5 -20t-41.5 -50t-12 -61z" />
    <glyph glyph-name="aacute.salt" horiz-adv-x="587" 
d="M208 515q-31 21 -42 63l176 158q31 -17 52 -47t28 -68zM514 173q0 -25 7.5 -43.5t41.5 -32.5q-3 -37 -18 -67t-39 -48q-68 10 -101 53q-62 -52 -149 -52q-49 0 -91.5 16t-72.5 47t-46.5 76.5t-16.5 101.5t19.5 105t56 84.5t87.5 55t110 19.5q126 0 213 -51zM179 229
q0 -26 10 -54.5t36 -46.5t59 -18q21 0 43.5 8t38.5 23v208q-35 11 -66 11q-38 0 -67.5 -20t-41.5 -50t-12 -61z" />
    <glyph glyph-name="abreve.salt" horiz-adv-x="587" 
d="M290 528q-54 0 -94.5 21.5t-64.5 60t-24 85.5q43 17 97 11q4 -18 15 -36t31 -28.5t42 -10.5t42 11t30 29t12 35q27 3 51 0t43 -13q0 -45 -24 -83.5t-63.5 -60t-92.5 -21.5zM514 173q0 -25 7.5 -43.5t41.5 -32.5q-3 -37 -18 -67t-39 -48q-68 10 -101 53q-62 -52 -149 -52
q-49 0 -91.5 16t-72.5 47t-46.5 76.5t-16.5 101.5t19.5 105t56 84.5t87.5 55t110 19.5q126 0 213 -51zM179 229q0 -26 10 -54.5t36 -46.5t59 -18q21 0 43.5 8t38.5 23v208q-35 11 -66 11q-38 0 -67.5 -20t-41.5 -50t-12 -61z" />
    <glyph glyph-name="acircumflex.salt" horiz-adv-x="587" 
d="M175 522q-19 7 -35 24t-21 36l127 135q42 9 84 0l122 -129q-5 -21 -21.5 -39t-35.5 -27l-110 86zM514 173q0 -25 7.5 -43.5t41.5 -32.5q-3 -37 -18 -67t-39 -48q-68 10 -101 53q-62 -52 -149 -52q-49 0 -91.5 16t-72.5 47t-46.5 76.5t-16.5 101.5t19.5 105t56 84.5
t87.5 55t110 19.5q126 0 213 -51zM179 229q0 -26 10 -54.5t36 -46.5t59 -18q21 0 43.5 8t38.5 23v208q-35 11 -66 11q-38 0 -67.5 -20t-41.5 -50t-12 -61z" />
    <glyph glyph-name="adieresis.salt" horiz-adv-x="587" 
d="M175 541q-31 0 -53.5 22.5t-22.5 53.5t22.5 53t53.5 22t53.5 -22t22.5 -53t-22.5 -53.5t-53.5 -22.5zM400 541q-30 0 -53 22.5t-23 53.5t22.5 53t53.5 22t53.5 -22t22.5 -53t-22.5 -53.5t-53.5 -22.5zM514 173q0 -25 7.5 -43.5t41.5 -32.5q-3 -37 -18 -67t-39 -48
q-68 10 -101 53q-62 -52 -149 -52q-49 0 -91.5 16t-72.5 47t-46.5 76.5t-16.5 101.5t19.5 105t56 84.5t87.5 55t110 19.5q126 0 213 -51zM179 229q0 -26 10 -54.5t36 -46.5t59 -18q21 0 43.5 8t38.5 23v208q-35 11 -66 11q-38 0 -67.5 -20t-41.5 -50t-12 -61z" />
    <glyph glyph-name="agrave.salt" horiz-adv-x="587" 
d="M405 575q-5 -18 -16 -34t-26 -26l-214 106q18 82 80 115zM514 173q0 -25 7.5 -43.5t41.5 -32.5q-3 -37 -18 -67t-39 -48q-68 10 -101 53q-62 -52 -149 -52q-49 0 -91.5 16t-72.5 47t-46.5 76.5t-16.5 101.5t19.5 105t56 84.5t87.5 55t110 19.5q126 0 213 -51zM179 229
q0 -26 10 -54.5t36 -46.5t59 -18q21 0 43.5 8t38.5 23v208q-35 11 -66 11q-38 0 -67.5 -20t-41.5 -50t-12 -61z" />
    <glyph glyph-name="amacron.salt" horiz-adv-x="587" 
d="M444 569h-311q-9 22 -9 55q0 34 9 57h311q7 -30 7 -56t-7 -56zM514 173q0 -25 7.5 -43.5t41.5 -32.5q-3 -37 -18 -67t-39 -48q-68 10 -101 53q-62 -52 -149 -52q-49 0 -91.5 16t-72.5 47t-46.5 76.5t-16.5 101.5t19.5 105t56 84.5t87.5 55t110 19.5q126 0 213 -51z
M179 229q0 -26 10 -54.5t36 -46.5t59 -18q21 0 43.5 8t38.5 23v208q-35 11 -66 11q-38 0 -67.5 -20t-41.5 -50t-12 -61z" />
    <glyph glyph-name="aogonek.salt" horiz-adv-x="590" 
d="M516 -93q18 -10 31.5 -30.5t15.5 -46.5q-45 -41 -117 -41q-21 0 -46.5 9t-43.5 32t-18 52q0 38 25.5 73t68.5 60q-14 10 -23 21q-33 -29 -70 -41t-90 -12q-47 0 -87.5 16.5t-70 48t-46 77.5t-16.5 103q0 41 13 85t49.5 87.5t92.5 65.5t114 22q132 0 219 -51v-276
q0 -44 48 -51q-1 -26 -7.5 -58.5t-23.5 -57.5q-23 -4 -44.5 -14.5t-33 -25.5t-11.5 -29q0 -13 7.5 -22.5t22.5 -9.5q18 0 41 14zM179 232q0 -27 9.5 -56.5t35 -47.5t60.5 -18q21 0 44 8t40 23v209q-34 12 -71 12q-53 0 -85.5 -35.5t-32.5 -94.5z" />
    <glyph glyph-name="aring.salt" horiz-adv-x="587" 
d="M288 507q-36 0 -66.5 20.5t-42.5 48.5t-12 51t12 51.5t42.5 49t66.5 20.5q23 0 51 -12t49 -42.5t21 -66.5q0 -49 -36 -84.5t-85 -35.5zM288 670q-17 0 -29 -13t-12 -30t12 -29.5t29 -12.5t29 12.5t12 29.5t-12 30t-29 13zM514 173q0 -25 7.5 -43.5t41.5 -32.5
q-3 -37 -18 -67t-39 -48q-68 10 -101 53q-62 -52 -149 -52q-49 0 -91.5 16t-72.5 47t-46.5 76.5t-16.5 101.5t19.5 105t56 84.5t87.5 55t110 19.5q126 0 213 -51zM179 229q0 -26 10 -54.5t36 -46.5t59 -18q21 0 43.5 8t38.5 23v208q-35 11 -66 11q-38 0 -67.5 -20t-41.5 -50
t-12 -61z" />
    <glyph glyph-name="atilde.salt" horiz-adv-x="587" 
d="M186 545q-25 0 -55.5 9t-44.5 25q8 43 31.5 74t52 42t52.5 11q17 0 33.5 -5.5t46.5 -19t43 -13.5q12 0 25.5 8.5t20.5 33.5q25 0 53 -9t47 -26q-5 -27 -21 -55.5t-46.5 -47t-64.5 -18.5q-17 0 -35 5t-48 18.5t-42 13.5q-9 0 -18.5 -4t-17.5 -15.5t-12 -26.5zM514 173
q0 -25 7.5 -43.5t41.5 -32.5q-3 -37 -18 -67t-39 -48q-68 10 -101 53q-62 -52 -149 -52q-49 0 -91.5 16t-72.5 47t-46.5 76.5t-16.5 101.5t19.5 105t56 84.5t87.5 55t110 19.5q126 0 213 -51zM179 229q0 -26 10 -54.5t36 -46.5t59 -18q21 0 43.5 8t38.5 23v208
q-35 11 -66 11q-38 0 -67.5 -20t-41.5 -50t-12 -61z" />
    <glyph glyph-name="e.salt" horiz-adv-x="523" 
d="M438 153q22 -17 36 -44.5t18 -57.5q-85 -68 -214 -68q-52 0 -98 15.5t-79.5 47t-52.5 78.5t-19 106q0 56 19 104t53.5 82.5t81.5 53t100 18.5q36 0 72.5 -8.5t66 -28t49 -50.5t19.5 -72q0 -71 -51 -109t-165 -38q-41 -2 -91 9q8 -47 36.5 -67.5t83.5 -20.5
q28 0 59.5 10.5t75.5 39.5zM281 374q-41 0 -66.5 -24.5t-32.5 -69.5q46 -11 88 -9q42 0 59 13.5t17 37.5q0 21 -17.5 36.5t-47.5 15.5z" />
    <glyph glyph-name="eacute.salt" horiz-adv-x="523" 
d="M190 515q-31 21 -42 63l176 158q31 -17 52 -47t28 -68zM438 153q22 -17 36 -44.5t18 -57.5q-85 -68 -214 -68q-52 0 -98 15.5t-79.5 47t-52.5 78.5t-19 106q0 56 19 104t53.5 82.5t81.5 53t100 18.5q36 0 72.5 -8.5t66 -28t49 -50.5t19.5 -72q0 -71 -51 -109t-165 -38
q-41 -2 -91 9q8 -47 36.5 -67.5t83.5 -20.5q28 0 59.5 10.5t75.5 39.5zM281 374q-41 0 -66.5 -24.5t-32.5 -69.5q46 -11 88 -9q42 0 59 13.5t17 37.5q0 21 -17.5 36.5t-47.5 15.5z" />
    <glyph glyph-name="ecaron.salt" horiz-adv-x="523" 
d="M308 530q-41 -9 -83 0l-122 129q4 19 19 37.5t38 28.5l109 -86l111 86q19 -7 35 -24t21 -36zM438 153q22 -17 36 -44.5t18 -57.5q-85 -68 -214 -68q-52 0 -98 15.5t-79.5 47t-52.5 78.5t-19 106q0 56 19 104t53.5 82.5t81.5 53t100 18.5q36 0 72.5 -8.5t66 -28t49 -50.5
t19.5 -72q0 -71 -51 -109t-165 -38q-41 -2 -91 9q8 -47 36.5 -67.5t83.5 -20.5q28 0 59.5 10.5t75.5 39.5zM281 374q-41 0 -66.5 -24.5t-32.5 -69.5q46 -11 88 -9q42 0 59 13.5t17 37.5q0 21 -17.5 36.5t-47.5 15.5z" />
    <glyph glyph-name="ecircumflex.salt" horiz-adv-x="523" 
d="M157 522q-19 7 -35 24t-21 36l127 135q42 9 84 0l122 -129q-5 -21 -21.5 -39t-35.5 -27l-110 86zM438 153q22 -17 36 -44.5t18 -57.5q-85 -68 -214 -68q-52 0 -98 15.5t-79.5 47t-52.5 78.5t-19 106q0 56 19 104t53.5 82.5t81.5 53t100 18.5q36 0 72.5 -8.5t66 -28
t49 -50.5t19.5 -72q0 -71 -51 -109t-165 -38q-41 -2 -91 9q8 -47 36.5 -67.5t83.5 -20.5q28 0 59.5 10.5t75.5 39.5zM281 374q-41 0 -66.5 -24.5t-32.5 -69.5q46 -11 88 -9q42 0 59 13.5t17 37.5q0 21 -17.5 36.5t-47.5 15.5z" />
    <glyph glyph-name="edieresis.salt" horiz-adv-x="523" 
d="M158 541q-31 0 -53.5 22.5t-22.5 53.5t22.5 53t53.5 22t53.5 -22t22.5 -53t-22.5 -53.5t-53.5 -22.5zM383 541q-30 0 -53 22.5t-23 53.5t22.5 53t53.5 22t53.5 -22t22.5 -53t-22.5 -53.5t-53.5 -22.5zM438 153q22 -17 36 -44.5t18 -57.5q-85 -68 -214 -68q-52 0 -98 15.5
t-79.5 47t-52.5 78.5t-19 106q0 56 19 104t53.5 82.5t81.5 53t100 18.5q36 0 72.5 -8.5t66 -28t49 -50.5t19.5 -72q0 -71 -51 -109t-165 -38q-41 -2 -91 9q8 -47 36.5 -67.5t83.5 -20.5q28 0 59.5 10.5t75.5 39.5zM281 374q-41 0 -66.5 -24.5t-32.5 -69.5q46 -11 88 -9
q42 0 59 13.5t17 37.5q0 21 -17.5 36.5t-47.5 15.5z" />
    <glyph glyph-name="edotaccent.salt" horiz-adv-x="523" 
d="M271 535q-36 0 -63 27t-27 63q0 17 9 38t31.5 36t49.5 15q36 0 63 -26.5t27 -62.5t-27 -63t-63 -27zM438 153q22 -17 36 -44.5t18 -57.5q-85 -68 -214 -68q-52 0 -98 15.5t-79.5 47t-52.5 78.5t-19 106q0 56 19 104t53.5 82.5t81.5 53t100 18.5q36 0 72.5 -8.5t66 -28
t49 -50.5t19.5 -72q0 -71 -51 -109t-165 -38q-41 -2 -91 9q8 -47 36.5 -67.5t83.5 -20.5q28 0 59.5 10.5t75.5 39.5zM281 374q-41 0 -66.5 -24.5t-32.5 -69.5q46 -11 88 -9q42 0 59 13.5t17 37.5q0 21 -17.5 36.5t-47.5 15.5z" />
    <glyph glyph-name="egrave.salt" horiz-adv-x="523" 
d="M387 575q-5 -18 -16 -34t-26 -26l-214 106q18 82 80 115zM438 153q22 -17 36 -44.5t18 -57.5q-85 -68 -214 -68q-52 0 -98 15.5t-79.5 47t-52.5 78.5t-19 106q0 56 19 104t53.5 82.5t81.5 53t100 18.5q36 0 72.5 -8.5t66 -28t49 -50.5t19.5 -72q0 -71 -51 -109t-165 -38
q-41 -2 -91 9q8 -47 36.5 -67.5t83.5 -20.5q28 0 59.5 10.5t75.5 39.5zM281 374q-41 0 -66.5 -24.5t-32.5 -69.5q46 -11 88 -9q42 0 59 13.5t17 37.5q0 21 -17.5 36.5t-47.5 15.5z" />
    <glyph glyph-name="emacron.salt" horiz-adv-x="523" 
d="M426 569h-311q-9 22 -9 55q0 34 9 57h311q7 -30 7 -56t-7 -56zM438 153q22 -17 36 -44.5t18 -57.5q-85 -68 -214 -68q-52 0 -98 15.5t-79.5 47t-52.5 78.5t-19 106q0 56 19 104t53.5 82.5t81.5 53t100 18.5q36 0 72.5 -8.5t66 -28t49 -50.5t19.5 -72q0 -71 -51 -109
t-165 -38q-41 -2 -91 9q8 -47 36.5 -67.5t83.5 -20.5q28 0 59.5 10.5t75.5 39.5zM281 374q-41 0 -66.5 -24.5t-32.5 -69.5q46 -11 88 -9q42 0 59 13.5t17 37.5q0 21 -17.5 36.5t-47.5 15.5z" />
    <glyph glyph-name="eogonek.salt" horiz-adv-x="523" 
d="M434 -93q19 -12 33 -33t14 -44q-41 -41 -110 -41q-24 0 -50.5 8.5t-44 31.5t-17.5 55q0 52 53 100l-34 -1q-52 0 -98 15.5t-79.5 47t-52.5 78.5t-19 106q0 56 19 104t53.5 82.5t81.5 53t100 18.5q36 0 72.5 -8.5t66 -28t49 -50.5t19.5 -72q0 -71 -51 -109t-165 -38
q-41 -2 -91 9q8 -47 36.5 -67.5t83.5 -20.5q28 0 59.5 10.5t75.5 39.5q22 -17 36 -44.5t18 -57.5l-28 -20h-1l-24 -14q-32 -20 -52.5 -46.5t-20.5 -46.5q0 -16 9.5 -23.5t21.5 -7.5q19 0 37 14zM281 374q-41 0 -66.5 -24.5t-32.5 -69.5q46 -11 88 -9q42 0 59 13.5t17 37.5
q0 21 -17.5 36.5t-47.5 15.5z" />
    <glyph glyph-name="g.salt" horiz-adv-x="557" 
d="M288 491q65 0 122 -19t97 -50v-400q0 -40 -12.5 -80.5t-43 -72t-80 -51.5t-117.5 -20q-50 0 -96 15t-70.5 48t-24.5 75q0 19 8.5 41t30 41.5t50.5 33.5q-56 26 -89.5 77t-33.5 120q0 55 20.5 101t56 77t83 47.5t99.5 16.5zM290 366q-48 0 -79.5 -30t-31.5 -81
q0 -23 10.5 -49t38 -42.5t62.5 -16.5q38 0 68 12v193q-33 14 -68 14zM257 -97q49 0 75 27t26 72v34q-15 -4 -47 -8q-58 -5 -86.5 -23.5t-28.5 -48.5q0 -27 17.5 -40t43.5 -13z" />
    <glyph glyph-name="gbreve.salt" horiz-adv-x="557" 
d="M280 528q-54 0 -94.5 21.5t-64.5 60t-24 85.5q43 17 97 11q4 -18 15 -36t31 -28.5t42 -10.5t42 11t30 29t12 35q27 3 51 0t43 -13q0 -45 -24 -83.5t-63.5 -60t-92.5 -21.5zM288 491q65 0 122 -19t97 -50v-400q0 -40 -12.5 -80.5t-43 -72t-80 -51.5t-117.5 -20
q-50 0 -96 15t-70.5 48t-24.5 75q0 19 8.5 41t30 41.5t50.5 33.5q-56 26 -89.5 77t-33.5 120q0 55 20.5 101t56 77t83 47.5t99.5 16.5zM290 366q-48 0 -79.5 -30t-31.5 -81q0 -23 10.5 -49t38 -42.5t62.5 -16.5q38 0 68 12v193q-33 14 -68 14zM257 -97q49 0 75 27t26 72v34
q-15 -4 -47 -8q-58 -5 -86.5 -23.5t-28.5 -48.5q0 -27 17.5 -40t43.5 -13z" />
    <glyph glyph-name="gcommaaccent.salt" horiz-adv-x="557" 
d="M272 510q-35 0 -57 11q-3 17 -3 33q0 48 22.5 91t60.5 68q14 -1 30 -9.5t25 -22.5q-24 -44 -24 -100q0 -30 10 -59q-25 -12 -64 -12zM288 491q65 0 122 -19t97 -50v-400q0 -40 -12.5 -80.5t-43 -72t-80 -51.5t-117.5 -20q-50 0 -96 15t-70.5 48t-24.5 75q0 19 8.5 41
t30 41.5t50.5 33.5q-56 26 -89.5 77t-33.5 120q0 55 20.5 101t56 77t83 47.5t99.5 16.5zM290 366q-48 0 -79.5 -30t-31.5 -81q0 -23 10.5 -49t38 -42.5t62.5 -16.5q38 0 68 12v193q-33 14 -68 14zM257 -97q49 0 75 27t26 72v34q-15 -4 -47 -8q-58 -5 -86.5 -23.5
t-28.5 -48.5q0 -27 17.5 -40t43.5 -13z" />
    <glyph glyph-name="gdotaccent.salt" horiz-adv-x="557" 
d="M278 535q-36 0 -63 27t-27 63q0 17 9 38t31.5 36t49.5 15q36 0 63 -26.5t27 -62.5t-27 -63t-63 -27zM288 491q65 0 122 -19t97 -50v-400q0 -40 -12.5 -80.5t-43 -72t-80 -51.5t-117.5 -20q-50 0 -96 15t-70.5 48t-24.5 75q0 19 8.5 41t30 41.5t50.5 33.5q-56 26 -89.5 77
t-33.5 120q0 55 20.5 101t56 77t83 47.5t99.5 16.5zM290 366q-48 0 -79.5 -30t-31.5 -81q0 -23 10.5 -49t38 -42.5t62.5 -16.5q38 0 68 12v193q-33 14 -68 14zM257 -97q49 0 75 27t26 72v34q-15 -4 -47 -8q-58 -5 -86.5 -23.5t-28.5 -48.5q0 -27 17.5 -40t43.5 -13z" />
    <glyph glyph-name="k.aalt" horiz-adv-x="574" 
d="M439 169l119 -164q-14 -5 -44.5 -8.5t-53.5 -3.5q-51 0 -77 3l-103 152q-14 19 -14 54q56 6 87.5 28.5t31.5 59.5q0 28 -19.5 46t-51.5 18q-23 0 -49.5 -10.5t-44.5 -38t-18 -61.5v-244q-34 -6 -73 -6q-35 0 -76 6v655q36 6 73 6t76 -6v-218q61 50 145 50q29 0 60.5 -7
t59 -25t46 -49.5t18.5 -77.5q0 -56 -24.5 -96t-67.5 -63z" />
    <glyph glyph-name="kcommaaccent.aalt" horiz-adv-x="574" 
d="M439 169l119 -164q-14 -5 -44.5 -8.5t-53.5 -3.5q-51 0 -77 3l-103 152q-14 19 -14 54q56 6 87.5 28.5t31.5 59.5q0 28 -19.5 46t-51.5 18q-23 0 -49.5 -10.5t-44.5 -38t-18 -61.5v-244q-34 -6 -73 -6q-35 0 -76 6v655q36 6 73 6t76 -6v-218q61 50 145 50q29 0 60.5 -7
t59 -25t46 -49.5t18.5 -77.5q0 -56 -24.5 -96t-67.5 -63zM274 -39q35 0 57 -11q3 -16 3 -33q0 -48 -22.5 -91t-60.5 -68q-14 1 -30 9.5t-25 22.5q24 44 24 100q0 30 -10 59q25 12 64 12z" />
    <glyph glyph-name="l.aalt" horiz-adv-x="327" 
d="M209 -14q-53 0 -88 19t-53 54t-18 87v509q31 6 76 6t74 -6v-488q0 -48 39 -48q24 0 41 14q42 -37 48 -110q-44 -37 -119 -37z" />
    <glyph glyph-name="lacute.aalt" horiz-adv-x="327" 
d="M25 679q-26 23 -31 61l208 140q59 -43 61 -124zM209 -14q-53 0 -88 19t-53 54t-18 87v509q31 6 76 6t74 -6v-488q0 -48 39 -48q24 0 41 14q42 -37 48 -110q-44 -37 -119 -37z" />
    <glyph glyph-name="lcaron.aalt" horiz-adv-x="327" 
d="M300 492q-14 1 -30.5 9.5t-23.5 20.5q23 50 23 121q0 47 -14 79q27 14 63 14q39 0 58 -13q6 -24 6 -51q0 -52 -23.5 -102.5t-58.5 -77.5zM209 -14q-53 0 -88 19t-53 54t-18 87v509q31 6 76 6t74 -6v-488q0 -48 39 -48q24 0 41 14q42 -37 48 -110q-44 -37 -119 -37z" />
    <glyph glyph-name="lcommaaccent.aalt" horiz-adv-x="327" 
d="M209 -14q-53 0 -88 19t-53 54t-18 87v509q31 6 76 6t74 -6v-488q0 -48 39 -48q24 0 41 14q42 -37 48 -110q-44 -37 -119 -37zM185 -242q-14 1 -30 9.5t-25 22.5q24 44 24 100q0 30 -10 59q25 12 64 12q35 0 57 -11q3 -16 3 -33q0 -48 -22.5 -91t-60.5 -68z" />
    <glyph glyph-name="ldot.aalt" horiz-adv-x="362" 
d="M209 -14q-53 0 -88 19t-53 54t-18 87v509q31 6 76 6t74 -6v-488q0 -48 39 -48q24 0 41 14q42 -37 48 -110q-44 -37 -119 -37zM302 257q-15 0 -34 8t-33 29t-14 45q0 32 24 56t57 24t57 -24t24 -56q0 -24 -14 -45t-33 -29t-34 -8z" />
    <glyph glyph-name="lslash.aalt" horiz-adv-x="327" 
d="M280 133q42 -37 48 -110q-44 -37 -119 -37q-53 0 -88 19t-53 54t-18 87v110l-50 -26q-16 12 -28.5 36.5t-13.5 45.5l92 48v295q31 6 76 6t74 -6v-216l45 24q15 -16 26 -39t14 -45l-85 -44v-168q0 -48 39 -48q24 0 41 14z" />
    <glyph glyph-name="y.salt" horiz-adv-x="563" 
d="M435 476q45 0 75 -6v-448q0 -40 -13 -80.5t-44 -72t-79.5 -51.5t-113.5 -20q-54 0 -101 14.5t-71 47t-24 74.5q0 39 23.5 68.5t62.5 48.5q-52 19 -77 56.5t-25 96.5v266q30 6 74 6q45 0 75 -6v-221q0 -49 20 -72.5t69 -23.5q21 0 41.5 4.5t33.5 13.5v299q30 6 74 6z
M262 -97q48 0 73.5 27t25.5 72v31q-25 -4 -55 -6q-106 -13 -106 -72q0 -25 17.5 -38.5t44.5 -13.5z" />
    <glyph glyph-name="yacute.salt" horiz-adv-x="563" 
d="M201 515q-31 21 -42 63l176 158q31 -17 52 -47t28 -68zM435 476q45 0 75 -6v-448q0 -40 -13 -80.5t-44 -72t-79.5 -51.5t-113.5 -20q-54 0 -101 14.5t-71 47t-24 74.5q0 39 23.5 68.5t62.5 48.5q-52 19 -77 56.5t-25 96.5v266q30 6 74 6q45 0 75 -6v-221q0 -49 20 -72.5
t69 -23.5q21 0 41.5 4.5t33.5 13.5v299q30 6 74 6zM262 -97q48 0 73.5 27t25.5 72v31q-25 -4 -55 -6q-106 -13 -106 -72q0 -25 17.5 -38.5t44.5 -13.5z" />
    <glyph glyph-name="ycircumflex.salt" horiz-adv-x="563" 
d="M168 522q-19 7 -35 24t-21 36l127 135q42 9 84 0l122 -129q-5 -21 -21.5 -39t-35.5 -27l-110 86zM435 476q45 0 75 -6v-448q0 -40 -13 -80.5t-44 -72t-79.5 -51.5t-113.5 -20q-54 0 -101 14.5t-71 47t-24 74.5q0 39 23.5 68.5t62.5 48.5q-52 19 -77 56.5t-25 96.5v266
q30 6 74 6q45 0 75 -6v-221q0 -49 20 -72.5t69 -23.5q21 0 41.5 4.5t33.5 13.5v299q30 6 74 6zM262 -97q48 0 73.5 27t25.5 72v31q-25 -4 -55 -6q-106 -13 -106 -72q0 -25 17.5 -38.5t44.5 -13.5z" />
    <glyph glyph-name="ydieresis.salt" horiz-adv-x="563" 
d="M169 541q-31 0 -53.5 22.5t-22.5 53.5t22.5 53t53.5 22t53.5 -22t22.5 -53t-22.5 -53.5t-53.5 -22.5zM394 541q-30 0 -53 22.5t-23 53.5t22.5 53t53.5 22t53.5 -22t22.5 -53t-22.5 -53.5t-53.5 -22.5zM435 476q45 0 75 -6v-448q0 -40 -13 -80.5t-44 -72t-79.5 -51.5
t-113.5 -20q-54 0 -101 14.5t-71 47t-24 74.5q0 39 23.5 68.5t62.5 48.5q-52 19 -77 56.5t-25 96.5v266q30 6 74 6q45 0 75 -6v-221q0 -49 20 -72.5t69 -23.5q21 0 41.5 4.5t33.5 13.5v299q30 6 74 6zM262 -97q48 0 73.5 27t25.5 72v31q-25 -4 -55 -6q-106 -13 -106 -72
q0 -25 17.5 -38.5t44.5 -13.5z" />
    <glyph glyph-name="ygrave.salt" horiz-adv-x="563" 
d="M399 575q-5 -18 -16 -34t-26 -26l-214 106q18 82 80 115zM435 476q45 0 75 -6v-448q0 -40 -13 -80.5t-44 -72t-79.5 -51.5t-113.5 -20q-54 0 -101 14.5t-71 47t-24 74.5q0 39 23.5 68.5t62.5 48.5q-52 19 -77 56.5t-25 96.5v266q30 6 74 6q45 0 75 -6v-221
q0 -49 20 -72.5t69 -23.5q21 0 41.5 4.5t33.5 13.5v299q30 6 74 6zM262 -97q48 0 73.5 27t25.5 72v31q-25 -4 -55 -6q-106 -13 -106 -72q0 -25 17.5 -38.5t44.5 -13.5z" />
    <glyph glyph-name="a.ss02" horiz-adv-x="541" 
d="M522 95q3 -73 -34 -112q-65 1 -91 18.5t-39 43.5h-10q-54 -63 -152 -63q-31 0 -63 9t-56.5 28t-38 47.5t-13.5 65.5q0 73 57.5 112t159.5 38h84v17q0 66 -90 66q-37 0 -73.5 -13t-58.5 -29q-24 14 -40.5 38.5t-22.5 56.5q19 17 56 35t79.5 26.5t78.5 8.5q75 0 123 -24.5
t72.5 -70t24.5 -113.5v-136q0 -22 10.5 -32.5t36.5 -16.5zM235 87q40 0 65.5 25t25.5 83h-71q-81 0 -81 -54q0 -25 16.5 -39.5t44.5 -14.5z" />
    <glyph glyph-name="aacute.ss02" horiz-adv-x="541" 
d="M165 515q-31 21 -42 63l176 158q31 -17 52 -47t28 -68zM522 95q3 -73 -34 -112q-65 1 -91 18.5t-39 43.5h-10q-54 -63 -152 -63q-31 0 -63 9t-56.5 28t-38 47.5t-13.5 65.5q0 73 57.5 112t159.5 38h84v17q0 66 -90 66q-37 0 -73.5 -13t-58.5 -29q-24 14 -40.5 38.5
t-22.5 56.5q19 17 56 35t79.5 26.5t78.5 8.5q75 0 123 -24.5t72.5 -70t24.5 -113.5v-136q0 -22 10.5 -32.5t36.5 -16.5zM235 87q40 0 65.5 25t25.5 83h-71q-81 0 -81 -54q0 -25 16.5 -39.5t44.5 -14.5z" />
    <glyph glyph-name="abreve.ss02" horiz-adv-x="541" 
d="M248 528q-54 0 -94.5 21.5t-64.5 60t-24 85.5q43 17 97 11q4 -18 15 -36t31 -28.5t42 -10.5t42 11t30 29t12 35q27 3 51 0t43 -13q0 -45 -24 -83.5t-63.5 -60t-92.5 -21.5zM522 95q3 -73 -34 -112q-65 1 -91 18.5t-39 43.5h-10q-54 -63 -152 -63q-31 0 -63 9t-56.5 28
t-38 47.5t-13.5 65.5q0 73 57.5 112t159.5 38h84v17q0 66 -90 66q-37 0 -73.5 -13t-58.5 -29q-24 14 -40.5 38.5t-22.5 56.5q19 17 56 35t79.5 26.5t78.5 8.5q75 0 123 -24.5t72.5 -70t24.5 -113.5v-136q0 -22 10.5 -32.5t36.5 -16.5zM235 87q40 0 65.5 25t25.5 83h-71
q-81 0 -81 -54q0 -25 16.5 -39.5t44.5 -14.5z" />
    <glyph glyph-name="acircumflex.ss02" horiz-adv-x="541" 
d="M132 522q-19 7 -35 24t-21 36l127 135q42 9 84 0l122 -129q-5 -21 -21.5 -39t-35.5 -27l-110 86zM522 95q3 -73 -34 -112q-65 1 -91 18.5t-39 43.5h-10q-54 -63 -152 -63q-31 0 -63 9t-56.5 28t-38 47.5t-13.5 65.5q0 73 57.5 112t159.5 38h84v17q0 66 -90 66
q-37 0 -73.5 -13t-58.5 -29q-24 14 -40.5 38.5t-22.5 56.5q19 17 56 35t79.5 26.5t78.5 8.5q75 0 123 -24.5t72.5 -70t24.5 -113.5v-136q0 -22 10.5 -32.5t36.5 -16.5zM235 87q40 0 65.5 25t25.5 83h-71q-81 0 -81 -54q0 -25 16.5 -39.5t44.5 -14.5z" />
    <glyph glyph-name="adieresis.ss02" horiz-adv-x="541" 
d="M133 541q-31 0 -53.5 22.5t-22.5 53.5t22.5 53t53.5 22t53.5 -22t22.5 -53t-22.5 -53.5t-53.5 -22.5zM358 541q-30 0 -53 22.5t-23 53.5t22.5 53t53.5 22t53.5 -22t22.5 -53t-22.5 -53.5t-53.5 -22.5zM522 95q3 -73 -34 -112q-65 1 -91 18.5t-39 43.5h-10
q-54 -63 -152 -63q-31 0 -63 9t-56.5 28t-38 47.5t-13.5 65.5q0 73 57.5 112t159.5 38h84v17q0 66 -90 66q-37 0 -73.5 -13t-58.5 -29q-24 14 -40.5 38.5t-22.5 56.5q19 17 56 35t79.5 26.5t78.5 8.5q75 0 123 -24.5t72.5 -70t24.5 -113.5v-136q0 -22 10.5 -32.5t36.5 -16.5
zM235 87q40 0 65.5 25t25.5 83h-71q-81 0 -81 -54q0 -25 16.5 -39.5t44.5 -14.5z" />
    <glyph glyph-name="agrave.ss02" horiz-adv-x="541" 
d="M362 575q-5 -18 -16 -34t-26 -26l-214 106q18 82 80 115zM522 95q3 -73 -34 -112q-65 1 -91 18.5t-39 43.5h-10q-54 -63 -152 -63q-31 0 -63 9t-56.5 28t-38 47.5t-13.5 65.5q0 73 57.5 112t159.5 38h84v17q0 66 -90 66q-37 0 -73.5 -13t-58.5 -29q-24 14 -40.5 38.5
t-22.5 56.5q19 17 56 35t79.5 26.5t78.5 8.5q75 0 123 -24.5t72.5 -70t24.5 -113.5v-136q0 -22 10.5 -32.5t36.5 -16.5zM235 87q40 0 65.5 25t25.5 83h-71q-81 0 -81 -54q0 -25 16.5 -39.5t44.5 -14.5z" />
    <glyph glyph-name="amacron.ss02" horiz-adv-x="541" 
d="M401 569h-311q-9 22 -9 55q0 34 9 57h311q7 -30 7 -56t-7 -56zM522 95q3 -73 -34 -112q-65 1 -91 18.5t-39 43.5h-10q-54 -63 -152 -63q-31 0 -63 9t-56.5 28t-38 47.5t-13.5 65.5q0 73 57.5 112t159.5 38h84v17q0 66 -90 66q-37 0 -73.5 -13t-58.5 -29
q-24 14 -40.5 38.5t-22.5 56.5q19 17 56 35t79.5 26.5t78.5 8.5q75 0 123 -24.5t72.5 -70t24.5 -113.5v-136q0 -22 10.5 -32.5t36.5 -16.5zM235 87q40 0 65.5 25t25.5 83h-71q-81 0 -81 -54q0 -25 16.5 -39.5t44.5 -14.5z" />
    <glyph glyph-name="aogonek.ss02" horiz-adv-x="542" 
d="M478 -93q13 -8 24.5 -21.5t17 -28t6.5 -27.5q-43 -41 -116 -41q-21 0 -46.5 9t-44 32t-18.5 53q0 37 24.5 70t67.5 56q-21 12 -36 37h-6q-55 -64 -146 -64q-58 0 -98.5 19.5t-61.5 52.5t-21 79q0 72 56.5 111t154.5 38h90v18q0 65 -90 65q-28 0 -65.5 -10.5t-65.5 -31.5
q-24 14 -41 38.5t-23 56.5q19 17 56 35t80 26.5t79 8.5q48 0 88 -11.5t69.5 -36.5t45.5 -65.5t16 -94.5v-126q0 -17 8 -31t40 -20q3 -31 -3.5 -62.5t-19.5 -52.5q-23 -4 -45.5 -13.5t-34 -24t-11.5 -27.5t8.5 -21.5t21.5 -8.5q17 0 40 14zM234 87q44 0 67.5 27t23.5 81h-70
q-82 0 -82 -54q0 -25 16.5 -39.5t44.5 -14.5z" />
    <glyph glyph-name="aring.ss02" horiz-adv-x="541" 
d="M246 507q-36 0 -66.5 20.5t-42.5 48.5t-12 51t12 51.5t42.5 49t66.5 20.5q23 0 51 -12t49 -42.5t21 -66.5q0 -49 -36 -84.5t-85 -35.5zM246 670q-17 0 -29 -13t-12 -30t12 -29.5t29 -12.5t29 12.5t12 29.5t-12 30t-29 13zM522 95q3 -73 -34 -112q-65 1 -91 18.5t-39 43.5
h-10q-54 -63 -152 -63q-31 0 -63 9t-56.5 28t-38 47.5t-13.5 65.5q0 73 57.5 112t159.5 38h84v17q0 66 -90 66q-37 0 -73.5 -13t-58.5 -29q-24 14 -40.5 38.5t-22.5 56.5q19 17 56 35t79.5 26.5t78.5 8.5q75 0 123 -24.5t72.5 -70t24.5 -113.5v-136q0 -22 10.5 -32.5
t36.5 -16.5zM235 87q40 0 65.5 25t25.5 83h-71q-81 0 -81 -54q0 -25 16.5 -39.5t44.5 -14.5z" />
    <glyph glyph-name="atilde.ss02" horiz-adv-x="541" 
d="M143 545q-25 0 -55.5 9t-44.5 25q8 43 31.5 74t52 42t52.5 11q17 0 33.5 -5.5t46.5 -19t43 -13.5q12 0 25.5 8.5t20.5 33.5q25 0 53 -9t47 -26q-5 -27 -21 -55.5t-46.5 -47t-64.5 -18.5q-17 0 -35 5t-48 18.5t-42 13.5q-9 0 -18.5 -4t-17.5 -15.5t-12 -26.5zM522 95
q3 -73 -34 -112q-65 1 -91 18.5t-39 43.5h-10q-54 -63 -152 -63q-31 0 -63 9t-56.5 28t-38 47.5t-13.5 65.5q0 73 57.5 112t159.5 38h84v17q0 66 -90 66q-37 0 -73.5 -13t-58.5 -29q-24 14 -40.5 38.5t-22.5 56.5q19 17 56 35t79.5 26.5t78.5 8.5q75 0 123 -24.5t72.5 -70
t24.5 -113.5v-136q0 -22 10.5 -32.5t36.5 -16.5zM235 87q40 0 65.5 25t25.5 83h-71q-81 0 -81 -54q0 -25 16.5 -39.5t44.5 -14.5z" />
    <glyph glyph-name="e.ss02" horiz-adv-x="528" 
d="M440 152q16 -13 32.5 -39t20.5 -62q-47 -37 -102.5 -52.5t-107.5 -15.5q-40 0 -83 11t-85.5 43.5t-64 85.5t-21.5 111q0 54 18.5 101t52.5 81.5t80 53t98 18.5q43 0 84.5 -13.5t75.5 -47t49 -80t15 -87.5l-312 -95q26 -65 112 -65q65 0 138 52zM275 372
q-45 0 -69.5 -30.5t-27.5 -84.5l174 55q-2 16 -12.5 31t-28.5 22t-36 7z" />
    <glyph glyph-name="eacute.ss02" horiz-adv-x="528" 
d="M186 515q-31 21 -42 63l176 158q31 -17 52 -47t28 -68zM440 152q16 -13 32.5 -39t20.5 -62q-47 -37 -102.5 -52.5t-107.5 -15.5q-40 0 -83 11t-85.5 43.5t-64 85.5t-21.5 111q0 54 18.5 101t52.5 81.5t80 53t98 18.5q43 0 84.5 -13.5t75.5 -47t49 -80t15 -87.5l-312 -95
q26 -65 112 -65q65 0 138 52zM275 372q-45 0 -69.5 -30.5t-27.5 -84.5l174 55q-2 16 -12.5 31t-28.5 22t-36 7z" />
    <glyph glyph-name="ecaron.ss02" horiz-adv-x="528" 
d="M303 530q-41 -9 -83 0l-122 129q4 19 19 37.5t38 28.5l109 -86l111 86q19 -7 35 -24t21 -36zM440 152q16 -13 32.5 -39t20.5 -62q-47 -37 -102.5 -52.5t-107.5 -15.5q-40 0 -83 11t-85.5 43.5t-64 85.5t-21.5 111q0 54 18.5 101t52.5 81.5t80 53t98 18.5q43 0 84.5 -13.5
t75.5 -47t49 -80t15 -87.5l-312 -95q26 -65 112 -65q65 0 138 52zM275 372q-45 0 -69.5 -30.5t-27.5 -84.5l174 55q-2 16 -12.5 31t-28.5 22t-36 7z" />
    <glyph glyph-name="ecircumflex.ss02" horiz-adv-x="528" 
d="M153 522q-19 7 -35 24t-21 36l127 135q42 9 84 0l122 -129q-5 -21 -21.5 -39t-35.5 -27l-110 86zM440 152q16 -13 32.5 -39t20.5 -62q-47 -37 -102.5 -52.5t-107.5 -15.5q-40 0 -83 11t-85.5 43.5t-64 85.5t-21.5 111q0 54 18.5 101t52.5 81.5t80 53t98 18.5
q43 0 84.5 -13.5t75.5 -47t49 -80t15 -87.5l-312 -95q26 -65 112 -65q65 0 138 52zM275 372q-45 0 -69.5 -30.5t-27.5 -84.5l174 55q-2 16 -12.5 31t-28.5 22t-36 7z" />
    <glyph glyph-name="edieresis.ss02" horiz-adv-x="528" 
d="M153 541q-31 0 -53.5 22.5t-22.5 53.5t22.5 53t53.5 22t53.5 -22t22.5 -53t-22.5 -53.5t-53.5 -22.5zM378 541q-30 0 -53 22.5t-23 53.5t22.5 53t53.5 22t53.5 -22t22.5 -53t-22.5 -53.5t-53.5 -22.5zM440 152q16 -13 32.5 -39t20.5 -62q-47 -37 -102.5 -52.5
t-107.5 -15.5q-40 0 -83 11t-85.5 43.5t-64 85.5t-21.5 111q0 54 18.5 101t52.5 81.5t80 53t98 18.5q43 0 84.5 -13.5t75.5 -47t49 -80t15 -87.5l-312 -95q26 -65 112 -65q65 0 138 52zM275 372q-45 0 -69.5 -30.5t-27.5 -84.5l174 55q-2 16 -12.5 31t-28.5 22t-36 7z" />
    <glyph glyph-name="edotaccent.ss02" horiz-adv-x="528" 
d="M267 535q-36 0 -63 27t-27 63q0 17 9 38t31.5 36t49.5 15q36 0 63 -26.5t27 -62.5t-27 -63t-63 -27zM440 152q16 -13 32.5 -39t20.5 -62q-47 -37 -102.5 -52.5t-107.5 -15.5q-40 0 -83 11t-85.5 43.5t-64 85.5t-21.5 111q0 54 18.5 101t52.5 81.5t80 53t98 18.5
q43 0 84.5 -13.5t75.5 -47t49 -80t15 -87.5l-312 -95q26 -65 112 -65q65 0 138 52zM275 372q-45 0 -69.5 -30.5t-27.5 -84.5l174 55q-2 16 -12.5 31t-28.5 22t-36 7z" />
    <glyph glyph-name="egrave.ss02" horiz-adv-x="528" 
d="M383 575q-5 -18 -16 -34t-26 -26l-214 106q18 82 80 115zM440 152q16 -13 32.5 -39t20.5 -62q-47 -37 -102.5 -52.5t-107.5 -15.5q-40 0 -83 11t-85.5 43.5t-64 85.5t-21.5 111q0 54 18.5 101t52.5 81.5t80 53t98 18.5q43 0 84.5 -13.5t75.5 -47t49 -80t15 -87.5
l-312 -95q26 -65 112 -65q65 0 138 52zM275 372q-45 0 -69.5 -30.5t-27.5 -84.5l174 55q-2 16 -12.5 31t-28.5 22t-36 7z" />
    <glyph glyph-name="emacron.ss02" horiz-adv-x="528" 
d="M422 569h-311q-9 22 -9 55q0 34 9 57h311q7 -30 7 -56t-7 -56zM440 152q16 -13 32.5 -39t20.5 -62q-47 -37 -102.5 -52.5t-107.5 -15.5q-40 0 -83 11t-85.5 43.5t-64 85.5t-21.5 111q0 54 18.5 101t52.5 81.5t80 53t98 18.5q43 0 84.5 -13.5t75.5 -47t49 -80t15 -87.5
l-312 -95q26 -65 112 -65q65 0 138 52zM275 372q-45 0 -69.5 -30.5t-27.5 -84.5l174 55q-2 16 -12.5 31t-28.5 22t-36 7z" />
    <glyph glyph-name="eogonek.ss02" horiz-adv-x="528" 
d="M438 16q-32 -20 -52 -46t-20 -46q0 -16 9.5 -23.5t21.5 -7.5q19 0 37 14q19 -12 33 -33t14 -44q-41 -41 -110 -41q-24 0 -50.5 8.5t-44 31.5t-17.5 55q0 50 52 100l-28 -1q-40 0 -83 11t-85.5 43.5t-64 85.5t-21.5 111q0 54 18.5 101t52.5 81.5t80 53t98 18.5
q43 0 84.5 -13.5t75.5 -47t49 -80t15 -87.5l-312 -95q26 -65 112 -65q65 0 138 52q16 -13 32.5 -39t20.5 -62q-25 -20 -55 -35zM275 372q-45 0 -69.5 -30.5t-27.5 -84.5l174 55q-2 16 -12.5 31t-28.5 22t-36 7z" />
    <glyph glyph-name="g.ss02" horiz-adv-x="540" 
d="M537 481q-23 -57 -80 -87q29 -43 28 -96q-1 -78 -63.5 -124.5t-162.5 -46.5q-39 0 -81 7q-11 -13 -11 -23q0 -29 42 -29h124q162 0 162 -126q0 -75 -63 -120t-173 -45q-84 0 -144.5 17t-85.5 36q4 31 18 56.5t37 41.5q65 -45 175 -45q95 0 95 41q0 17 -14 24t-49 7h-84
q-158 0 -158 101q0 56 55 93q-69 46 -69 140q0 39 16 73t45.5 58t71.5 37.5t93 13.5h80q41 0 65 11.5t38 40.5q65 -17 93 -56zM348 306q2 38 -12 68h-70q-41 0 -64.5 -19t-23.5 -52q0 -68 81 -68q39 0 63.5 19.5t25.5 51.5z" />
    <glyph glyph-name="gbreve.ss02" horiz-adv-x="540" 
d="M268 528q-54 0 -94.5 21.5t-64.5 60t-24 85.5q43 17 97 11q4 -18 15 -36t31 -28.5t42 -10.5t42 11t30 29t12 35q27 3 51 0t43 -13q0 -45 -24 -83.5t-63.5 -60t-92.5 -21.5zM537 481q-23 -57 -80 -87q29 -43 28 -96q-1 -78 -63.5 -124.5t-162.5 -46.5q-39 0 -81 7
q-11 -13 -11 -23q0 -29 42 -29h124q162 0 162 -126q0 -75 -63 -120t-173 -45q-84 0 -144.5 17t-85.5 36q4 31 18 56.5t37 41.5q65 -45 175 -45q95 0 95 41q0 17 -14 24t-49 7h-84q-158 0 -158 101q0 56 55 93q-69 46 -69 140q0 39 16 73t45.5 58t71.5 37.5t93 13.5h80
q41 0 65 11.5t38 40.5q65 -17 93 -56zM348 306q2 38 -12 68h-70q-41 0 -64.5 -19t-23.5 -52q0 -68 81 -68q39 0 63.5 19.5t25.5 51.5z" />
    <glyph glyph-name="gcommaaccent.ss02" horiz-adv-x="540" 
d="M260 510q-35 0 -57 11q-3 17 -3 33q0 48 22.5 91t60.5 68q14 -1 30 -9.5t25 -22.5q-24 -44 -24 -100q0 -30 10 -59q-25 -12 -64 -12zM537 481q-23 -57 -80 -87q29 -43 28 -96q-1 -78 -63.5 -124.5t-162.5 -46.5q-39 0 -81 7q-11 -13 -11 -23q0 -29 42 -29h124
q162 0 162 -126q0 -75 -63 -120t-173 -45q-84 0 -144.5 17t-85.5 36q4 31 18 56.5t37 41.5q65 -45 175 -45q95 0 95 41q0 17 -14 24t-49 7h-84q-158 0 -158 101q0 56 55 93q-69 46 -69 140q0 39 16 73t45.5 58t71.5 37.5t93 13.5h80q41 0 65 11.5t38 40.5q65 -17 93 -56z
M348 306q2 38 -12 68h-70q-41 0 -64.5 -19t-23.5 -52q0 -68 81 -68q39 0 63.5 19.5t25.5 51.5z" />
    <glyph glyph-name="gdotaccent.ss02" horiz-adv-x="540" 
d="M266 535q-36 0 -63 27t-27 63q0 17 9 38t31.5 36t49.5 15q36 0 63 -26.5t27 -62.5t-27 -63t-63 -27zM537 481q-23 -57 -80 -87q29 -43 28 -96q-1 -78 -63.5 -124.5t-162.5 -46.5q-39 0 -81 7q-11 -13 -11 -23q0 -29 42 -29h124q162 0 162 -126q0 -75 -63 -120t-173 -45
q-84 0 -144.5 17t-85.5 36q4 31 18 56.5t37 41.5q65 -45 175 -45q95 0 95 41q0 17 -14 24t-49 7h-84q-158 0 -158 101q0 56 55 93q-69 46 -69 140q0 39 16 73t45.5 58t71.5 37.5t93 13.5h80q41 0 65 11.5t38 40.5q65 -17 93 -56zM348 306q2 38 -12 68h-70q-41 0 -64.5 -19
t-23.5 -52q0 -68 81 -68q39 0 63.5 19.5t25.5 51.5z" />
    <glyph glyph-name="w.aalt" horiz-adv-x="769" 
d="M661 477q49 0 95 -11q-29 -149 -64.5 -257t-92.5 -209q-34 -7 -71 -7q-38 0 -72 7q-48 91 -73 210q-13 -64 -30.5 -115t-40.5 -95q-34 -7 -72 -7q-37 0 -71 7q-57 104 -92.5 212.5t-62.5 253.5q46 11 94 11q36 0 63 -3q15 -106 35.5 -197.5t38.5 -137.5l6 -20l5 20
q16 49 33 140.5t27 188.5q22 5 67 5q49 0 72 -5q9 -79 26 -174.5t41 -155.5l7 -22l6 22q32 93 66 336q26 3 60 3z" />
    <glyph glyph-name="wacute.aalt" horiz-adv-x="769" 
d="M303 515q-31 21 -42 63l176 158q31 -17 52 -47t28 -68zM661 477q49 0 95 -11q-29 -149 -64.5 -257t-92.5 -209q-34 -7 -71 -7q-38 0 -72 7q-48 91 -73 210q-13 -64 -30.5 -115t-40.5 -95q-34 -7 -72 -7q-37 0 -71 7q-57 104 -92.5 212.5t-62.5 253.5q46 11 94 11
q36 0 63 -3q15 -106 35.5 -197.5t38.5 -137.5l6 -20l5 20q16 49 33 140.5t27 188.5q22 5 67 5q49 0 72 -5q9 -79 26 -174.5t41 -155.5l7 -22l6 22q32 93 66 336q26 3 60 3z" />
    <glyph glyph-name="wcircumflex.aalt" horiz-adv-x="769" 
d="M270 522q-19 7 -35 24t-21 36l127 135q42 9 84 0l122 -129q-5 -21 -21.5 -39t-35.5 -27l-110 86zM661 477q49 0 95 -11q-29 -149 -64.5 -257t-92.5 -209q-34 -7 -71 -7q-38 0 -72 7q-48 91 -73 210q-13 -64 -30.5 -115t-40.5 -95q-34 -7 -72 -7q-37 0 -71 7
q-57 104 -92.5 212.5t-62.5 253.5q46 11 94 11q36 0 63 -3q15 -106 35.5 -197.5t38.5 -137.5l6 -20l5 20q16 49 33 140.5t27 188.5q22 5 67 5q49 0 72 -5q9 -79 26 -174.5t41 -155.5l7 -22l6 22q32 93 66 336q26 3 60 3z" />
    <glyph glyph-name="wdieresis.aalt" horiz-adv-x="769" 
d="M271 541q-31 0 -53.5 22.5t-22.5 53.5t22.5 53t53.5 22t53.5 -22t22.5 -53t-22.5 -53.5t-53.5 -22.5zM496 541q-30 0 -53 22.5t-23 53.5t22.5 53t53.5 22t53.5 -22t22.5 -53t-22.5 -53.5t-53.5 -22.5zM661 477q49 0 95 -11q-29 -149 -64.5 -257t-92.5 -209q-34 -7 -71 -7
q-38 0 -72 7q-48 91 -73 210q-13 -64 -30.5 -115t-40.5 -95q-34 -7 -72 -7q-37 0 -71 7q-57 104 -92.5 212.5t-62.5 253.5q46 11 94 11q36 0 63 -3q15 -106 35.5 -197.5t38.5 -137.5l6 -20l5 20q16 49 33 140.5t27 188.5q22 5 67 5q49 0 72 -5q9 -79 26 -174.5t41 -155.5
l7 -22l6 22q32 93 66 336q26 3 60 3z" />
    <glyph glyph-name="wgrave.aalt" horiz-adv-x="769" 
d="M500 575q-5 -18 -16 -34t-26 -26l-214 106q18 82 80 115zM661 477q49 0 95 -11q-29 -149 -64.5 -257t-92.5 -209q-34 -7 -71 -7q-38 0 -72 7q-48 91 -73 210q-13 -64 -30.5 -115t-40.5 -95q-34 -7 -72 -7q-37 0 -71 7q-57 104 -92.5 212.5t-62.5 253.5q46 11 94 11
q36 0 63 -3q15 -106 35.5 -197.5t38.5 -137.5l6 -20l5 20q16 49 33 140.5t27 188.5q22 5 67 5q49 0 72 -5q9 -79 26 -174.5t41 -155.5l7 -22l6 22q32 93 66 336q26 3 60 3z" />
    <glyph glyph-name="y.ss02" horiz-adv-x="563" 
d="M435 476q45 0 75 -6v-441q0 -57 -18.5 -101t-52.5 -72.5t-79.5 -43t-99.5 -14.5q-59 0 -108 15t-78 35t-44 36q5 30 26.5 56.5t54.5 38.5q56 -62 142 -62q41 0 66.5 13.5t33.5 33.5t8 38v34q-47 -15 -94 -15q-70 0 -117.5 21t-74.5 63t-27 108v257q30 6 74 6q45 0 75 -6
v-224q0 -49 20 -72.5t69 -23.5q20 0 41 5t34 13v302q30 6 74 6z" />
    <glyph glyph-name="yacute.ss02" horiz-adv-x="563" 
d="M201 515q-31 21 -42 63l176 158q31 -17 52 -47t28 -68zM435 476q45 0 75 -6v-441q0 -57 -18.5 -101t-52.5 -72.5t-79.5 -43t-99.5 -14.5q-59 0 -108 15t-78 35t-44 36q5 30 26.5 56.5t54.5 38.5q56 -62 142 -62q41 0 66.5 13.5t33.5 33.5t8 38v34q-47 -15 -94 -15
q-70 0 -117.5 21t-74.5 63t-27 108v257q30 6 74 6q45 0 75 -6v-224q0 -49 20 -72.5t69 -23.5q20 0 41 5t34 13v302q30 6 74 6z" />
    <glyph glyph-name="ycircumflex.ss02" horiz-adv-x="563" 
d="M168 522q-19 7 -35 24t-21 36l127 135q42 9 84 0l122 -129q-5 -21 -21.5 -39t-35.5 -27l-110 86zM435 476q45 0 75 -6v-441q0 -57 -18.5 -101t-52.5 -72.5t-79.5 -43t-99.5 -14.5q-59 0 -108 15t-78 35t-44 36q5 30 26.5 56.5t54.5 38.5q56 -62 142 -62q41 0 66.5 13.5
t33.5 33.5t8 38v34q-47 -15 -94 -15q-70 0 -117.5 21t-74.5 63t-27 108v257q30 6 74 6q45 0 75 -6v-224q0 -49 20 -72.5t69 -23.5q20 0 41 5t34 13v302q30 6 74 6z" />
    <glyph glyph-name="ydieresis.ss02" horiz-adv-x="563" 
d="M168 541q-31 0 -53.5 22.5t-22.5 53.5t22.5 53t53.5 22t53.5 -22t22.5 -53t-22.5 -53.5t-53.5 -22.5zM393 541q-30 0 -53 22.5t-23 53.5t22.5 53t53.5 22t53.5 -22t22.5 -53t-22.5 -53.5t-53.5 -22.5zM435 476q45 0 75 -6v-441q0 -57 -18.5 -101t-52.5 -72.5t-79.5 -43
t-99.5 -14.5q-59 0 -108 15t-78 35t-44 36q5 30 26.5 56.5t54.5 38.5q56 -62 142 -62q41 0 66.5 13.5t33.5 33.5t8 38v34q-47 -15 -94 -15q-70 0 -117.5 21t-74.5 63t-27 108v257q30 6 74 6q45 0 75 -6v-224q0 -49 20 -72.5t69 -23.5q20 0 41 5t34 13v302q30 6 74 6z" />
    <glyph glyph-name="ygrave.ss02" horiz-adv-x="563" 
d="M398 575q-5 -18 -16 -34t-26 -26l-214 106q18 82 80 115zM435 476q45 0 75 -6v-441q0 -57 -18.5 -101t-52.5 -72.5t-79.5 -43t-99.5 -14.5q-59 0 -108 15t-78 35t-44 36q5 30 26.5 56.5t54.5 38.5q56 -62 142 -62q41 0 66.5 13.5t33.5 33.5t8 38v34q-47 -15 -94 -15
q-70 0 -117.5 21t-74.5 63t-27 108v257q30 6 74 6q45 0 75 -6v-224q0 -49 20 -72.5t69 -23.5q20 0 41 5t34 13v302q30 6 74 6z" />
    <glyph glyph-name="a.ss03" horiz-adv-x="521" 
d="M246 488q80 0 130.5 -24.5t76.5 -70t26 -113.5v-249q-112 -47 -237 -47q-101 0 -159.5 38t-58.5 113q0 35 14.5 63t41.5 46.5t64.5 27.5t82.5 9h105v14q0 33 -24 51.5t-74 18.5q-29 0 -65 -10t-65 -32q-24 14 -41 38.5t-23 56.5q18 17 53.5 35t76.5 26.5t76 8.5zM173 141
q0 -53 84 -53q38 0 75 12v90l-91 -1q-68 0 -68 -48z" />
    <glyph glyph-name="aacute.ss03" horiz-adv-x="521" 
d="M173 515q-31 21 -42 63l176 158q31 -17 52 -47t28 -68zM246 488q80 0 130.5 -24.5t76.5 -70t26 -113.5v-249q-112 -47 -237 -47q-101 0 -159.5 38t-58.5 113q0 35 14.5 63t41.5 46.5t64.5 27.5t82.5 9h105v14q0 33 -24 51.5t-74 18.5q-29 0 -65 -10t-65 -32
q-24 14 -41 38.5t-23 56.5q18 17 53.5 35t76.5 26.5t76 8.5zM173 141q0 -53 84 -53q38 0 75 12v90l-91 -1q-68 0 -68 -48z" />
    <glyph glyph-name="abreve.ss03" horiz-adv-x="521" 
d="M255 528q-54 0 -94.5 21.5t-64.5 60t-24 85.5q43 17 97 11q4 -18 15 -36t31 -28.5t42 -10.5t42 11t30 29t12 35q27 3 51 0t43 -13q0 -45 -24 -83.5t-63.5 -60t-92.5 -21.5zM246 488q80 0 130.5 -24.5t76.5 -70t26 -113.5v-249q-112 -47 -237 -47q-101 0 -159.5 38
t-58.5 113q0 35 14.5 63t41.5 46.5t64.5 27.5t82.5 9h105v14q0 33 -24 51.5t-74 18.5q-29 0 -65 -10t-65 -32q-24 14 -41 38.5t-23 56.5q18 17 53.5 35t76.5 26.5t76 8.5zM173 141q0 -53 84 -53q38 0 75 12v90l-91 -1q-68 0 -68 -48z" />
    <glyph glyph-name="acircumflex.ss03" horiz-adv-x="521" 
d="M140 522q-19 7 -35 24t-21 36l127 135q42 9 84 0l122 -129q-5 -21 -21.5 -39t-35.5 -27l-110 86zM246 488q80 0 130.5 -24.5t76.5 -70t26 -113.5v-249q-112 -47 -237 -47q-101 0 -159.5 38t-58.5 113q0 35 14.5 63t41.5 46.5t64.5 27.5t82.5 9h105v14q0 33 -24 51.5
t-74 18.5q-29 0 -65 -10t-65 -32q-24 14 -41 38.5t-23 56.5q18 17 53.5 35t76.5 26.5t76 8.5zM173 141q0 -53 84 -53q38 0 75 12v90l-91 -1q-68 0 -68 -48z" />
    <glyph glyph-name="adieresis.ss03" horiz-adv-x="521" 
d="M141 541q-31 0 -53.5 22.5t-22.5 53.5t22.5 53t53.5 22t53.5 -22t22.5 -53t-22.5 -53.5t-53.5 -22.5zM366 541q-30 0 -53 22.5t-23 53.5t22.5 53t53.5 22t53.5 -22t22.5 -53t-22.5 -53.5t-53.5 -22.5zM246 488q80 0 130.5 -24.5t76.5 -70t26 -113.5v-249
q-112 -47 -237 -47q-101 0 -159.5 38t-58.5 113q0 35 14.5 63t41.5 46.5t64.5 27.5t82.5 9h105v14q0 33 -24 51.5t-74 18.5q-29 0 -65 -10t-65 -32q-24 14 -41 38.5t-23 56.5q18 17 53.5 35t76.5 26.5t76 8.5zM173 141q0 -53 84 -53q38 0 75 12v90l-91 -1q-68 0 -68 -48z
" />
    <glyph glyph-name="agrave.ss03" horiz-adv-x="521" 
d="M370 575q-5 -18 -16 -34t-26 -26l-214 106q18 82 80 115zM246 488q80 0 130.5 -24.5t76.5 -70t26 -113.5v-249q-112 -47 -237 -47q-101 0 -159.5 38t-58.5 113q0 35 14.5 63t41.5 46.5t64.5 27.5t82.5 9h105v14q0 33 -24 51.5t-74 18.5q-29 0 -65 -10t-65 -32
q-24 14 -41 38.5t-23 56.5q18 17 53.5 35t76.5 26.5t76 8.5zM173 141q0 -53 84 -53q38 0 75 12v90l-91 -1q-68 0 -68 -48z" />
    <glyph glyph-name="amacron.ss03" horiz-adv-x="521" 
d="M409 569h-311q-9 22 -9 55q0 34 9 57h311q7 -30 7 -56t-7 -56zM246 488q80 0 130.5 -24.5t76.5 -70t26 -113.5v-249q-112 -47 -237 -47q-101 0 -159.5 38t-58.5 113q0 35 14.5 63t41.5 46.5t64.5 27.5t82.5 9h105v14q0 33 -24 51.5t-74 18.5q-29 0 -65 -10t-65 -32
q-24 14 -41 38.5t-23 56.5q18 17 53.5 35t76.5 26.5t76 8.5zM173 141q0 -53 84 -53q38 0 75 12v90l-91 -1q-68 0 -68 -48z" />
    <glyph glyph-name="aogonek.ss03" horiz-adv-x="521" 
d="M449 -93q19 -12 33 -33t14 -44q-41 -41 -110 -41q-24 0 -50.5 8.5t-44 31.5t-17.5 55q0 54 60 107q-42 -7 -92 -7q-101 0 -159.5 38t-58.5 113q0 35 14.5 63t41.5 46.5t64.5 27.5t82.5 9h105v14q0 33 -24 51.5t-74 18.5q-29 0 -65 -10t-65 -32q-24 14 -41 38.5t-23 56.5
q18 17 53.5 35t76.5 26.5t76 8.5q80 0 130.5 -24.5t76.5 -70t26 -113.5v-249q-42 -20 -70 -51.5t-28 -55.5q0 -16 9.5 -23.5t21.5 -7.5q19 0 37 14zM173 141q0 -53 84 -53q38 0 75 12v90l-91 -1q-68 0 -68 -48z" />
    <glyph glyph-name="aring.ss03" horiz-adv-x="521" 
d="M254 507q-36 0 -66.5 20.5t-42.5 48.5t-12 51t12 51.5t42.5 49t66.5 20.5q23 0 51 -12t49 -42.5t21 -66.5q0 -49 -36 -84.5t-85 -35.5zM254 670q-17 0 -29 -13t-12 -30t12 -29.5t29 -12.5t29 12.5t12 29.5t-12 30t-29 13zM246 488q80 0 130.5 -24.5t76.5 -70t26 -113.5
v-249q-112 -47 -237 -47q-101 0 -159.5 38t-58.5 113q0 35 14.5 63t41.5 46.5t64.5 27.5t82.5 9h105v14q0 33 -24 51.5t-74 18.5q-29 0 -65 -10t-65 -32q-24 14 -41 38.5t-23 56.5q18 17 53.5 35t76.5 26.5t76 8.5zM173 141q0 -53 84 -53q38 0 75 12v90l-91 -1
q-68 0 -68 -48z" />
    <glyph glyph-name="atilde.ss03" horiz-adv-x="521" 
d="M151 545q-25 0 -55.5 9t-44.5 25q8 43 31.5 74t52 42t52.5 11q17 0 33.5 -5.5t46.5 -19t43 -13.5q12 0 25.5 8.5t20.5 33.5q25 0 53 -9t47 -26q-5 -27 -21 -55.5t-46.5 -47t-64.5 -18.5q-17 0 -35 5t-48 18.5t-42 13.5q-9 0 -18.5 -4t-17.5 -15.5t-12 -26.5zM246 488
q80 0 130.5 -24.5t76.5 -70t26 -113.5v-249q-112 -47 -237 -47q-101 0 -159.5 38t-58.5 113q0 35 14.5 63t41.5 46.5t64.5 27.5t82.5 9h105v14q0 33 -24 51.5t-74 18.5q-29 0 -65 -10t-65 -32q-24 14 -41 38.5t-23 56.5q18 17 53.5 35t76.5 26.5t76 8.5zM173 141
q0 -53 84 -53q38 0 75 12v90l-91 -1q-68 0 -68 -48z" />
    <glyph glyph-name="e.ss03" horiz-adv-x="525" 
d="M494 324q-1 -66 -43 -97.5t-127 -31.5l-142 -1q13 -89 120 -89q70 0 135 41q22 -17 37 -44.5t18 -55.5q-88 -63 -211 -63q-54 0 -101 16.5t-80.5 48.5t-52 79t-18.5 106q0 54 19.5 101.5t54.5 82t82.5 53t101.5 18.5q34 0 70 -8.5t66.5 -28.5t50.5 -52t20 -75zM181 285
h113q25 0 37 11t12 30q0 21 -17.5 33.5t-44.5 12.5q-42 0 -68 -24t-32 -63z" />
    <glyph glyph-name="eacute.ss03" horiz-adv-x="525" 
d="M189 515q-31 21 -42 63l176 158q31 -17 52 -47t28 -68zM494 324q-1 -66 -43 -97.5t-127 -31.5l-142 -1q13 -89 120 -89q70 0 135 41q22 -17 37 -44.5t18 -55.5q-88 -63 -211 -63q-54 0 -101 16.5t-80.5 48.5t-52 79t-18.5 106q0 54 19.5 101.5t54.5 82t82.5 53
t101.5 18.5q34 0 70 -8.5t66.5 -28.5t50.5 -52t20 -75zM181 285h113q25 0 37 11t12 30q0 21 -17.5 33.5t-44.5 12.5q-42 0 -68 -24t-32 -63z" />
    <glyph glyph-name="ecaron.ss03" horiz-adv-x="525" 
d="M307 530q-41 -9 -83 0l-122 129q4 19 19 37.5t38 28.5l109 -86l111 86q19 -7 35 -24t21 -36zM494 324q-1 -66 -43 -97.5t-127 -31.5l-142 -1q13 -89 120 -89q70 0 135 41q22 -17 37 -44.5t18 -55.5q-88 -63 -211 -63q-54 0 -101 16.5t-80.5 48.5t-52 79t-18.5 106
q0 54 19.5 101.5t54.5 82t82.5 53t101.5 18.5q34 0 70 -8.5t66.5 -28.5t50.5 -52t20 -75zM181 285h113q25 0 37 11t12 30q0 21 -17.5 33.5t-44.5 12.5q-42 0 -68 -24t-32 -63z" />
    <glyph glyph-name="ecircumflex.ss03" horiz-adv-x="525" 
d="M156 522q-19 7 -35 24t-21 36l127 135q42 9 84 0l122 -129q-5 -21 -21.5 -39t-35.5 -27l-110 86zM494 324q-1 -66 -43 -97.5t-127 -31.5l-142 -1q13 -89 120 -89q70 0 135 41q22 -17 37 -44.5t18 -55.5q-88 -63 -211 -63q-54 0 -101 16.5t-80.5 48.5t-52 79t-18.5 106
q0 54 19.5 101.5t54.5 82t82.5 53t101.5 18.5q34 0 70 -8.5t66.5 -28.5t50.5 -52t20 -75zM181 285h113q25 0 37 11t12 30q0 21 -17.5 33.5t-44.5 12.5q-42 0 -68 -24t-32 -63z" />
    <glyph glyph-name="edieresis.ss03" horiz-adv-x="525" 
d="M157 541q-31 0 -53.5 22.5t-22.5 53.5t22.5 53t53.5 22t53.5 -22t22.5 -53t-22.5 -53.5t-53.5 -22.5zM382 541q-30 0 -53 22.5t-23 53.5t22.5 53t53.5 22t53.5 -22t22.5 -53t-22.5 -53.5t-53.5 -22.5zM494 324q-1 -66 -43 -97.5t-127 -31.5l-142 -1q13 -89 120 -89
q70 0 135 41q22 -17 37 -44.5t18 -55.5q-88 -63 -211 -63q-54 0 -101 16.5t-80.5 48.5t-52 79t-18.5 106q0 54 19.5 101.5t54.5 82t82.5 53t101.5 18.5q34 0 70 -8.5t66.5 -28.5t50.5 -52t20 -75zM181 285h113q25 0 37 11t12 30q0 21 -17.5 33.5t-44.5 12.5q-42 0 -68 -24
t-32 -63z" />
    <glyph glyph-name="edotaccent.ss03" horiz-adv-x="525" 
d="M270 535q-36 0 -63 27t-27 63q0 17 9 38t31.5 36t49.5 15q36 0 63 -26.5t27 -62.5t-27 -63t-63 -27zM494 324q-1 -66 -43 -97.5t-127 -31.5l-142 -1q13 -89 120 -89q70 0 135 41q22 -17 37 -44.5t18 -55.5q-88 -63 -211 -63q-54 0 -101 16.5t-80.5 48.5t-52 79t-18.5 106
q0 54 19.5 101.5t54.5 82t82.5 53t101.5 18.5q34 0 70 -8.5t66.5 -28.5t50.5 -52t20 -75zM181 285h113q25 0 37 11t12 30q0 21 -17.5 33.5t-44.5 12.5q-42 0 -68 -24t-32 -63z" />
    <glyph glyph-name="egrave.ss03" horiz-adv-x="525" 
d="M386 575q-5 -18 -16 -34t-26 -26l-214 106q18 82 80 115zM494 324q-1 -66 -43 -97.5t-127 -31.5l-142 -1q13 -89 120 -89q70 0 135 41q22 -17 37 -44.5t18 -55.5q-88 -63 -211 -63q-54 0 -101 16.5t-80.5 48.5t-52 79t-18.5 106q0 54 19.5 101.5t54.5 82t82.5 53
t101.5 18.5q34 0 70 -8.5t66.5 -28.5t50.5 -52t20 -75zM181 285h113q25 0 37 11t12 30q0 21 -17.5 33.5t-44.5 12.5q-42 0 -68 -24t-32 -63z" />
    <glyph glyph-name="emacron.ss03" horiz-adv-x="525" 
d="M425 569h-311q-9 22 -9 55q0 34 9 57h311q7 -30 7 -56t-7 -56zM494 324q-1 -66 -43 -97.5t-127 -31.5l-142 -1q13 -89 120 -89q70 0 135 41q22 -17 37 -44.5t18 -55.5q-88 -63 -211 -63q-54 0 -101 16.5t-80.5 48.5t-52 79t-18.5 106q0 54 19.5 101.5t54.5 82t82.5 53
t101.5 18.5q34 0 70 -8.5t66.5 -28.5t50.5 -52t20 -75zM181 285h113q25 0 37 11t12 30q0 21 -17.5 33.5t-44.5 12.5q-42 0 -68 -24t-32 -63z" />
    <glyph glyph-name="eogonek.ss03" horiz-adv-x="525" 
d="M494 324q-1 -66 -43 -97.5t-127 -31.5l-142 -1q13 -89 120 -89q70 0 135 41q22 -17 37 -44.5t18 -55.5q-27 -19 -51 -30q-32 -21 -51.5 -46.5t-19.5 -45.5q0 -16 9.5 -23.5t21.5 -7.5q19 0 37 14q19 -12 33 -33t14 -44q-41 -41 -110 -41q-24 0 -50.5 8.5t-44 31.5
t-17.5 55q0 52 53 100l-35 -1q-54 0 -101 16.5t-80.5 48.5t-52 79t-18.5 106q0 54 19.5 101.5t54.5 82t82.5 53t101.5 18.5q34 0 70 -8.5t66.5 -28.5t50.5 -52t20 -75zM181 285h113q25 0 37 11t12 30q0 21 -17.5 33.5t-44.5 12.5q-42 0 -68 -24t-32 -63z" />
    <glyph glyph-name="g.ss03" horiz-adv-x="548" 
d="M445 154q58 -58 58 -141q0 -37 -12 -75.5t-45.5 -73.5t-84 -51.5t-101.5 -16.5q-43 0 -87 10.5t-82.5 34.5t-62.5 55q6 31 29.5 57.5t58.5 38.5q57 -74 143 -74q23 0 48 9t40 32.5t15 53.5q0 19 -8.5 37t-22.5 31q-31 -10 -71 -10q-114 0 -174.5 56t-60.5 152
q0 46 18.5 85.5t51.5 67t77 42.5t93 15h72q37 0 60.5 12.5t41.5 47.5q66 -15 101 -64q-24 -62 -82 -95q35 -50 32 -113q-2 -70 -45 -123zM257 189q41 0 66.5 25.5t26.5 63.5q0 47 -20 91h-70q-42 0 -68 -23t-27 -66q0 -42 25 -66.5t67 -24.5z" />
    <glyph glyph-name="gbreve.ss03" horiz-adv-x="548" 
d="M267 528q-54 0 -94.5 21.5t-64.5 60t-24 85.5q43 17 97 11q4 -18 15 -36t31 -28.5t42 -10.5t42 11t30 29t12 35q27 3 51 0t43 -13q0 -45 -24 -83.5t-63.5 -60t-92.5 -21.5zM445 154q58 -58 58 -141q0 -37 -12 -75.5t-45.5 -73.5t-84 -51.5t-101.5 -16.5q-43 0 -87 10.5
t-82.5 34.5t-62.5 55q6 31 29.5 57.5t58.5 38.5q57 -74 143 -74q23 0 48 9t40 32.5t15 53.5q0 19 -8.5 37t-22.5 31q-31 -10 -71 -10q-114 0 -174.5 56t-60.5 152q0 46 18.5 85.5t51.5 67t77 42.5t93 15h72q37 0 60.5 12.5t41.5 47.5q66 -15 101 -64q-24 -62 -82 -95
q35 -50 32 -113q-2 -70 -45 -123zM257 189q41 0 66.5 25.5t26.5 63.5q0 47 -20 91h-70q-42 0 -68 -23t-27 -66q0 -42 25 -66.5t67 -24.5z" />
    <glyph glyph-name="gcommaaccent.ss03" horiz-adv-x="548" 
d="M259 510q-35 0 -57 11q-3 17 -3 33q0 48 22.5 91t60.5 68q14 -1 30 -9.5t25 -22.5q-24 -44 -24 -100q0 -30 10 -59q-25 -12 -64 -12zM445 154q58 -58 58 -141q0 -37 -12 -75.5t-45.5 -73.5t-84 -51.5t-101.5 -16.5q-43 0 -87 10.5t-82.5 34.5t-62.5 55q6 31 29.5 57.5
t58.5 38.5q57 -74 143 -74q23 0 48 9t40 32.5t15 53.5q0 19 -8.5 37t-22.5 31q-31 -10 -71 -10q-114 0 -174.5 56t-60.5 152q0 46 18.5 85.5t51.5 67t77 42.5t93 15h72q37 0 60.5 12.5t41.5 47.5q66 -15 101 -64q-24 -62 -82 -95q35 -50 32 -113q-2 -70 -45 -123zM257 189
q41 0 66.5 25.5t26.5 63.5q0 47 -20 91h-70q-42 0 -68 -23t-27 -66q0 -42 25 -66.5t67 -24.5z" />
    <glyph glyph-name="gdotaccent.ss03" horiz-adv-x="548" 
d="M265 535q-36 0 -63 27t-27 63q0 17 9 38t31.5 36t49.5 15q36 0 63 -26.5t27 -62.5t-27 -63t-63 -27zM445 154q58 -58 58 -141q0 -37 -12 -75.5t-45.5 -73.5t-84 -51.5t-101.5 -16.5q-43 0 -87 10.5t-82.5 34.5t-62.5 55q6 31 29.5 57.5t58.5 38.5q57 -74 143 -74
q23 0 48 9t40 32.5t15 53.5q0 19 -8.5 37t-22.5 31q-31 -10 -71 -10q-114 0 -174.5 56t-60.5 152q0 46 18.5 85.5t51.5 67t77 42.5t93 15h72q37 0 60.5 12.5t41.5 47.5q66 -15 101 -64q-24 -62 -82 -95q35 -50 32 -113q-2 -70 -45 -123zM257 189q41 0 66.5 25.5t26.5 63.5
q0 47 -20 91h-70q-42 0 -68 -23t-27 -66q0 -42 25 -66.5t67 -24.5z" />
    <glyph glyph-name="g.ss04" horiz-adv-x="546" 
d="M548 461q-26 -57 -87 -84q25 -44 22 -101q-1 -46 -29 -89.5t-81 -67.5t-113 -24h-50q-20 0 -32 -12t-12 -27q0 -16 12 -27.5t32 -11.5h268q7 -28 7 -61t-7 -61h-267q-174 0 -174 135q0 38 19 67t51 46q-31 23 -48 58.5t-17 79.5q0 43 17 79.5t48 63.5t73 41t90 14h70
q42 -1 66 10.5t39 40.5q69 -17 103 -69zM260 213q18 0 38.5 6.5t34 23.5t14.5 41q0 44 -10 74l-69 1q-41 0 -64.5 -19t-23.5 -56q0 -35 20.5 -53t59.5 -18z" />
    <glyph glyph-name="gbreve.ss04" horiz-adv-x="546" 
d="M270 528q-54 0 -94.5 21.5t-64.5 60t-24 85.5q43 17 97 11q4 -18 15 -36t31 -28.5t42 -10.5t42 11t30 29t12 35q27 3 51 0t43 -13q0 -45 -24 -83.5t-63.5 -60t-92.5 -21.5zM548 461q-26 -57 -87 -84q25 -44 22 -101q-1 -46 -29 -89.5t-81 -67.5t-113 -24h-50
q-20 0 -32 -12t-12 -27q0 -16 12 -27.5t32 -11.5h268q7 -28 7 -61t-7 -61h-267q-174 0 -174 135q0 38 19 67t51 46q-31 23 -48 58.5t-17 79.5q0 43 17 79.5t48 63.5t73 41t90 14h70q42 -1 66 10.5t39 40.5q69 -17 103 -69zM260 213q18 0 38.5 6.5t34 23.5t14.5 41
q0 44 -10 74l-69 1q-41 0 -64.5 -19t-23.5 -56q0 -35 20.5 -53t59.5 -18z" />
    <glyph glyph-name="gcommaaccent.ss04" horiz-adv-x="546" 
d="M262 510q-35 0 -57 11q-3 17 -3 33q0 48 22.5 91t60.5 68q14 -1 30 -9.5t25 -22.5q-24 -44 -24 -100q0 -30 10 -59q-25 -12 -64 -12zM548 461q-26 -57 -87 -84q25 -44 22 -101q-1 -46 -29 -89.5t-81 -67.5t-113 -24h-50q-20 0 -32 -12t-12 -27q0 -16 12 -27.5t32 -11.5
h268q7 -28 7 -61t-7 -61h-267q-174 0 -174 135q0 38 19 67t51 46q-31 23 -48 58.5t-17 79.5q0 43 17 79.5t48 63.5t73 41t90 14h70q42 -1 66 10.5t39 40.5q69 -17 103 -69zM260 213q18 0 38.5 6.5t34 23.5t14.5 41q0 44 -10 74l-69 1q-41 0 -64.5 -19t-23.5 -56
q0 -35 20.5 -53t59.5 -18z" />
    <glyph glyph-name="gdotaccent.ss04" horiz-adv-x="546" 
d="M268 535q-36 0 -63 27t-27 63q0 17 9 38t31.5 36t49.5 15q36 0 63 -26.5t27 -62.5t-27 -63t-63 -27zM548 461q-26 -57 -87 -84q25 -44 22 -101q-1 -46 -29 -89.5t-81 -67.5t-113 -24h-50q-20 0 -32 -12t-12 -27q0 -16 12 -27.5t32 -11.5h268q7 -28 7 -61t-7 -61h-267
q-174 0 -174 135q0 38 19 67t51 46q-31 23 -48 58.5t-17 79.5q0 43 17 79.5t48 63.5t73 41t90 14h70q42 -1 66 10.5t39 40.5q69 -17 103 -69zM260 213q18 0 38.5 6.5t34 23.5t14.5 41q0 44 -10 74l-69 1q-41 0 -64.5 -19t-23.5 -56q0 -35 20.5 -53t59.5 -18z" />
    <glyph glyph-name="zero.oldstyle" horiz-adv-x="621" 
d="M311 -16q-32 0 -70 7t-74 26t-66 52.5t-48 86t-18 112.5q0 61 18 114t53 91.5t87.5 59.5t117.5 21t117.5 -22t87 -61t52.5 -91.5t18 -111.5q0 -60 -18 -112.5t-53 -90.5t-87 -59.5t-117 -21.5zM311 114q61 0 90 41.5t29 112.5q0 69 -29 109t-90 40q-62 0 -91 -40
t-29 -109q0 -32 9 -69t36.5 -61t74.5 -24z" />
    <glyph glyph-name="one.oldstyle" horiz-adv-x="374" 
d="M247 550q34 0 59 -6v-544q-37 -6 -75 -6q-36 0 -74 6v375l-96 -41q-21 21 -36.5 55.5t-16.5 70.5l179 84q26 6 60 6z" />
    <glyph glyph-name="two.oldstyle" horiz-adv-x="526" 
d="M488 127q11 -25 11 -62q0 -39 -11 -65h-442q-7 25 -7 48q0 35 22.5 65.5t84.5 75.5q70 54 103.5 82.5t47 48t13.5 42.5t-17 38t-47 15q-58 0 -127 -64q-27 8 -51.5 27.5t-42.5 65.5q38 48 95.5 79t126.5 31q97 0 156 -49t59 -134q0 -68 -36 -117.5t-127 -107.5l-48 -26
l52 7h185z" />
    <glyph glyph-name="three.oldstyle" horiz-adv-x="509" 
d="M376 239q33 -14 57.5 -39.5t34 -58.5t9.5 -63q0 -37 -14.5 -73t-46.5 -63t-79 -43t-102 -16q-76 0 -131 21.5t-87 54.5q5 34 27.5 65t52.5 46q32 -31 62 -44.5t69 -13.5q41 0 65.5 21t24.5 58q0 38 -27 58.5t-96 20.5q-10 26 -10 57q0 36 11 57q56 0 81.5 18t25.5 54
q0 29 -21 47t-54 18q-65 0 -115 -47q-59 23 -80 88q31 42 85 66.5t124 24.5q93 0 150.5 -48t57.5 -126q0 -45 -20 -81t-54 -59z" />
    <glyph glyph-name="four.oldstyle" horiz-adv-x="578" 
d="M558 81q0 -36 -7 -65h-88v-125q-34 -6 -67 -6q-36 0 -72 6v125h-299q-11 22 -11 49q0 19 8 43.5t22 44.5l266 385q35 6 82 6q43 0 71 -6v-399h89q6 -28 6 -58zM177 139h147v188l2 35l-21 -34z" />
    <glyph glyph-name="five.oldstyle" horiz-adv-x="521" 
d="M237 -117q-53 0 -97.5 13t-69.5 28t-36 25q18 78 71 115q20 -17 55 -31.5t79 -14.5q55 0 80 22t25 59q0 31 -13.5 46t-44.5 24.5t-106 10.5l-123 1v358h397q7 -34 7 -70q0 -31 -6 -63h-263v-96h21q55 0 106.5 -8.5t89.5 -30.5t60 -60.5t22 -99.5q0 -106 -68 -167
t-186 -61z" />
    <glyph glyph-name="six.oldstyle" horiz-adv-x="550" 
d="M326 411q91 0 145 -53t54 -149q0 -104 -67 -165.5t-174 -61.5q-121 0 -186.5 69.5t-65.5 193.5q0 81 31 154.5t85.5 130t126 94t149.5 51.5q22 -17 34 -55t12 -80q-202 -30 -264 -162q56 33 120 33zM285 108q33 0 56.5 13t32.5 35.5t9 43.5q0 24 -10.5 44.5t-34 31.5
t-53.5 11q-55 0 -106 -34v-12q0 -33 10.5 -63.5t36.5 -50t59 -19.5z" />
    <glyph glyph-name="seven.oldstyle" horiz-adv-x="498" 
d="M477 538q6 -16 6 -41q0 -23 -6.5 -51.5t-16.5 -48.5l-259 -522q-38 5 -74 20.5t-53 37.5l241 473h-290q-6 30 -6 66q0 33 6 66h452z" />
    <glyph glyph-name="eight.oldstyle" horiz-adv-x="544" 
d="M397 343q110 -66 110 -163q0 -38 -13.5 -74.5t-44 -64t-77 -43.5t-106.5 -16q-72 0 -123 20.5t-79 58t-28 92.5q0 26 11 58t37.5 61.5t59.5 51.5q-95 64 -96 155q-1 40 14.5 75t45 60t71.5 39t93 14q101 0 161.5 -45.5t60.5 -123.5q0 -40 -16.5 -72.5t-39 -52
t-41.5 -30.5zM271 554q-38 0 -60 -17.5t-22 -44.5q0 -22 17 -42.5t76 -50.5l2 -1q35 21 52.5 41.5t17.5 47.5q0 31 -23 49t-60 18zM271 94q40 0 65.5 17.5t25.5 48.5q0 26 -17 47t-85 55l-12 6q-29 -20 -47 -46.5t-18 -54.5q0 -17 9 -34.5t30.5 -28t48.5 -10.5z" />
    <glyph glyph-name="nine.oldstyle" horiz-adv-x="547" 
d="M260 554q60 0 107.5 -21t79.5 -60.5t48.5 -96t16.5 -125.5q0 -94 -28 -164.5t-80 -115t-126.5 -66.5t-166.5 -22q-7 13 -13.5 34t-6.5 51q0 25 4 44q87 2 136.5 16.5t80 45.5t42.5 85q-26 -21 -57.5 -31t-77.5 -10q-41 0 -77 13.5t-63.5 40.5t-43 66.5t-15.5 88.5
t18.5 91.5t51.5 72.5t77 46.5t93 16.5zM164 332q0 -20 9 -41t31 -34t50 -13q65 0 108 27q-4 68 -33.5 109t-75.5 42q-39 1 -64 -24t-25 -66z" />
    <glyph glyph-name="zero.tnum" horiz-adv-x="570" 
d="M285 -16q-63 0 -112 23.5t-80.5 68t-47.5 107.5t-16 140q0 78 16 141.5t48.5 107.5t81 67.5t110.5 23.5q30 0 66.5 -8t70 -30t61 -61t43.5 -102t16 -139q0 -77 -16 -140t-48.5 -107.5t-81 -68t-111.5 -23.5zM285 113q26 0 47 16t35.5 61t14.5 133q0 73 -11 117t-32 65.5
t-54 21.5q-45 0 -70.5 -46t-25.5 -158q0 -75 11 -120t32 -67.5t53 -22.5z" />
    <glyph glyph-name="one.tnum" horiz-adv-x="570" 
d="M525 130q8 -32 8 -64q0 -28 -8 -66h-435q-8 35 -8 65q0 31 8 65h153v355l-140 -57q-20 12 -36 48.5t-17 75.5l223 99q27 6 60 6q14 0 34 -2t25 -4v-521h133z" />
    <glyph glyph-name="two.tnum" horiz-adv-x="570" 
d="M518 137q10 -32 10 -72q0 -30 -10 -65h-459q-6 21 -6 49q0 26 11 52t34 47q142 138 178 177.5t50.5 64.5t14.5 51q0 37 -21 59.5t-62 22.5q-31 0 -60.5 -12t-64.5 -50q-71 26 -98 99q27 32 69.5 57.5t87 35.5t79.5 10q49 0 91 -13t72.5 -38.5t47 -64t16.5 -87.5
q0 -42 -15.5 -81t-50.5 -84.5t-146 -144.5l-24 -18l40 4z" />
    <glyph glyph-name="three.tnum" horiz-adv-x="570" 
d="M255 -18q-36 0 -77.5 8t-76.5 26t-55 37q17 75 72 116q66 -55 138 -55q49 0 78 27t29 77q0 101 -126 101h-72q-3 11 -3 22q0 33 34 73l89 101h-225q-9 35 -9 68q0 34 9 65h435l1 -20q0 -23 -8.5 -48.5t-23.5 -43.5l-103 -121q41 -7 77 -31t57 -64t21 -95
q0 -77 -31.5 -130t-90 -83t-139.5 -30z" />
    <glyph glyph-name="four.tnum" horiz-adv-x="570" 
d="M543 199q0 -28 -7 -68h-72v-131q-33 -6 -67 -6q-36 0 -74 6v131h-272q-17 27 -20.5 64.5t21.5 112.5l134 361q78 -4 142 -36l-121 -329q-10 -28 -10 -40h126v136q38 6 74 6q34 0 67 -6v-136h73q6 -33 6 -65z" />
    <glyph glyph-name="five.tnum" horiz-adv-x="570" 
d="M267 -17q-56 0 -114 15t-95 45q17 81 69 121q63 -44 139 -44q55 0 82.5 24t27.5 64q0 41 -27.5 63.5t-82.5 22.5q-34 0 -85.5 -11.5t-67.5 -11.5q-23 0 -39 6v371h403q7 -32 7 -68q0 -32 -6 -65h-269v-98q11 4 34 7t44 3q114 0 174 -56.5t60 -158.5q0 -106 -68 -167.5
t-186 -61.5z" />
    <glyph glyph-name="six.tnum" horiz-adv-x="570" 
d="M339 416q93 0 146 -53t53 -150q0 -53 -18 -96.5t-51.5 -73.5t-78.5 -45.5t-97 -15.5q-60 0 -107.5 18.5t-79 53t-48 83t-16.5 105.5q0 68 18 130t51 111.5t77 87t105 67t138 41.5q38 -44 40 -136q-108 -18 -169 -58.5t-88 -109.5q59 41 125 41zM296 108q42 0 67 24.5
t25 72.5q0 22 -9 43t-31.5 32.5t-52.5 11.5q-49 0 -102 -33v-16q0 -30 9.5 -62.5t34.5 -52.5t59 -20z" />
    <glyph glyph-name="seven.tnum" horiz-adv-x="570" 
d="M531 642q7 -18 7 -46q0 -22 -6.5 -49t-16.5 -47l-276 -529q-37 2 -74 20.5t-54 46.5l248 465h-301q-7 39 -7 73q0 28 7 66h473z" />
    <glyph glyph-name="eight.tnum" horiz-adv-x="570" 
d="M414 334q63 -44 81.5 -83.5t18.5 -80.5q0 -90 -63 -138.5t-169 -48.5q-74 0 -124.5 21.5t-76.5 59.5t-26 94q0 26 10 58.5t34 63t54 53.5q-39 28 -60 62t-22 81q-1 84 58 136.5t160 52.5q97 0 153 -47.5t56 -126.5q0 -37 -18.5 -78.5t-65.5 -78.5zM284 552
q-31 0 -49.5 -16.5t-18.5 -43.5q0 -21 15.5 -41t83.5 -56q20 20 30.5 42t10.5 50q0 31 -20.5 48t-51.5 17zM289 95q35 0 57.5 18t22.5 54q0 24 -14 40.5t-33.5 28.5t-45.5 26l-22 12q-21 -20 -34 -46t-13 -54q0 -19 8 -38t28 -30t46 -11z" />
    <glyph glyph-name="nine.tnum" horiz-adv-x="570" 
d="M273 665q59 0 106 -21t79.5 -61t49 -98t16.5 -129q0 -95 -27 -166.5t-78.5 -117.5t-128 -68.5t-173.5 -22.5q-9 16 -14.5 39.5t-5.5 46.5q0 24 4 43q60 2 101.5 7.5t74 19.5t54.5 41t33 70q-51 -30 -111 -30q-98 0 -157 57.5t-59 156.5q0 51 18 94.5t50.5 74.5t76 47.5
t91.5 16.5zM182 439q0 -45 30 -70t67 -25q51 0 96 20q-1 83 -28.5 126t-75.5 44q-27 0 -49.5 -14.5t-31 -37t-8.5 -43.5z" />
    <glyph glyph-name="currency.aalt" horiz-adv-x="613" 
d="M558 265q0 -34 -10 -69t-27 -62l53 -54q-13 -28 -37.5 -52.5t-52.5 -37.5l-55 55q-25 -14 -58 -22.5t-64 -8.5t-63.5 9t-59.5 23l-55 -56q-26 13 -51 37t-39 53l53 54q-16 27 -26 62.5t-10 68.5q0 34 10 69t27 62l-54 55q14 26 39.5 52t50.5 38l56 -56q25 14 58 22.5
t64 8.5t63 -8.5t58 -22.5l56 56q28 -13 52.5 -37.5t37.5 -52.5l-53 -54q17 -29 27 -63t10 -69zM306 155q31 0 58.5 18.5t38.5 44.5t11 47t-10.5 47t-38 44.5t-59.5 18.5q-20 0 -45 -10.5t-43 -38.5t-18 -61q0 -21 10.5 -47t37 -44.5t58.5 -18.5z" />
    <glyph glyph-name="dollar.aalt" horiz-adv-x="505" 
d="M475 173q0 -77 -41.5 -123.5t-116.5 -59.5v-106q-25 -6 -60 -6t-61 6v105q-56 7 -100 25.5t-69 39.5q4 34 22.5 63t45.5 43q27 -22 70.5 -37.5t89.5 -15.5t67 12t21 35q0 26 -25 36t-87 13q-37 3 -72.5 14t-62 31t-41 49t-14.5 67q0 23 7 48.5t27.5 51.5t54 42.5
t66.5 23.5v110q27 6 61 6q36 0 60 -6v-107q88 -11 144 -52q-1 -30 -15 -59.5t-38 -49.5q-28 18 -68.5 30t-85.5 12q-40 0 -60.5 -11t-20.5 -30q0 -14 9.5 -22t35 -13.5t75.5 -9.5q85 -9 133.5 -47.5t48.5 -107.5z" />
    <glyph glyph-name="sterling.aalt" horiz-adv-x="523" 
d="M238 125h239q8 -27 8 -56q0 -38 -8 -69h-411q0 43 16 95.5t19 76.5t3 41h-64q-8 22 -8 45q0 8 2.5 22t5.5 22h55q-3 23 -3 52q0 31 10 65.5t39 68t74 50.5t93 17q113 0 180 -67q-20 -75 -89 -107q-14 15 -34.5 26t-45.5 11q-36 0 -57 -18.5t-21 -53.5q0 -14 4 -44h131
q8 -24 8 -45q0 -8 -2.5 -22t-5.5 -22h-123q0 -18 -4.5 -44.5t-10.5 -43.5z" />
    <glyph glyph-name="yen.aalt" horiz-adv-x="604" 
d="M494 200h-117v-45h117q4 -22 4 -35q0 -11 -4 -35h-117v-85q-36 -6 -74 -6q-37 0 -76 6v85h-118q-4 16 -4 35q0 20 4 35h118v45h-118q-4 15 -4 35q0 19 4 35h82l-170 266q60 12 105 12q40 0 73 -6l99 -180l11 -23l10 23l104 180q32 6 66 6q40 0 95 -12l-166 -266h76
q4 -24 4 -35q0 -13 -4 -35z" />
    <glyph glyph-name="ampersand.aalt" horiz-adv-x="672" 
d="M517 152l142 -143q-21 -12 -70 -17q-40 -5 -68 -4l-62 60q-68 -65 -190 -65q-111 0 -175.5 52.5t-64.5 142.5q0 30 10.5 65t37.5 66t65 52q-49 54 -49 123q0 76 56.5 125t145.5 49q99 0 172 -58q-5 -23 -16.5 -44.5t-26 -34.5t-27.5 -20q-46 35 -97 35q-33 0 -54 -15
t-21 -41q0 -14 9 -32t53 -62l120 -122v128h224q8 -23 8 -55.5t-7 -56.5h-106v-57q0 -38 -9 -71zM288 108q24 0 47.5 6.5t38.5 16.5l-147 144q-23 -13 -36 -34.5t-13 -47.5q0 -38 29 -61.5t81 -23.5z" />
    <glyph glyph-name="glyph464" 
d="M-105 492q-14 1 -30.5 9.5t-23.5 20.5q23 50 23 121q0 47 -14 79q27 14 63 14q39 0 58 -13q6 -24 6 -51q0 -52 -23.5 -102.5t-58.5 -77.5z" />
    <glyph glyph-name="gravecomb.aalt" 
d="M-51 679l-237 77q0 39 16 71t45 53l207 -140q-5 -38 -31 -61z" />
    <glyph glyph-name="acutecomb.aalt" 
d="M-258 679q-26 23 -31 61l208 140q59 -43 61 -124z" />
    <glyph glyph-name="tildecomb.aalt" 
d="M-331 691q-18 0 -40.5 5t-38 13.5t-22.5 16.5q11 57 48.5 90t88.5 33q32 0 77.5 -18.5t59.5 -18.5q16 0 28 12t17 32q25 0 53.5 -9t46.5 -26q-6 -35 -23.5 -62t-45.5 -44t-63 -17q-19 0 -39 5t-53 18t-46 13q-14 0 -28 -9t-20 -34z" />
    <glyph glyph-name="acute.aalt" horiz-adv-x="312" 
d="M54 679q-26 23 -31 61l208 140q59 -43 61 -124z" />
    <glyph glyph-name="breve.aalt" horiz-adv-x="409" 
d="M207 689q-31 0 -63 8.5t-57.5 29t-42 50.5t-16.5 68q35 16 88 11q10 -33 36 -47.5t57 -14.5q22 0 42.5 8t31 23t13.5 31q49 6 85 -11q0 -21 -8 -46.5t-27.5 -49.5t-54.5 -42t-84 -18z" />
    <glyph glyph-name="caron.aalt" horiz-adv-x="397" 
d="M159 697l-131 105q4 19 16.5 37.5t29.5 28.5l130 -74l121 74q16 -8 28.5 -25.5t16.5 -36.5l-129 -109q-41 -11 -82 0z" />
    <glyph glyph-name="circumflex.aalt" horiz-adv-x="396" 
d="M73 691q-17 9 -29.5 26.5t-16.5 38.5l130 106q41 11 82 0l131 -102q-3 -20 -16 -39t-30 -30l-130 74z" />
    <glyph glyph-name="dieresis.aalt" horiz-adv-x="426" 
d="M96 705q-31 0 -53.5 22t-22.5 53q0 30 22.5 52.5t53.5 22.5q30 0 52.5 -22.5t22.5 -52.5q0 -31 -22.5 -53t-52.5 -22zM330 705q-30 0 -52.5 22t-22.5 53q0 30 22.5 52.5t52.5 22.5q31 0 53.5 -22.5t22.5 -52.5q0 -31 -22.5 -53t-53.5 -22z" />
    <glyph glyph-name="dotaccent.aalt" horiz-adv-x="260" 
d="M130 690q-27 0 -49 15t-31 36t-9 38t9 37.5t31.5 35.5t48.5 15q17 0 38 -9t36 -31t15 -48q0 -17 -9 -38t-31 -36t-49 -15z" />
    <glyph glyph-name="grave.aalt" horiz-adv-x="314" 
d="M261 679l-237 77q0 39 16 71t45 53l207 -140q-5 -38 -31 -61z" />
    <glyph glyph-name="hungarumlaut.aalt" horiz-adv-x="418" 
d="M65 660q-35 14 -52 45l110 160q32 -5 56 -25t34 -51zM257 660q-35 14 -52 45l110 160q32 -5 55.5 -25.5t33.5 -50.5z" />
    <glyph glyph-name="macron.aalt" horiz-adv-x="368" 
d="M28 723q-9 23 -9 49q0 28 9 52h314q7 -28 7 -51q0 -24 -7 -50h-314z" />
    <glyph glyph-name="ring.aalt" horiz-adv-x="279" 
d="M140 659q-23 0 -51 12t-48.5 42.5t-20.5 66.5q0 49 35.5 84.5t84.5 35.5q35 0 65 -20.5t42 -48.5t12 -51t-12 -51.5t-42 -49t-65 -20.5zM140 738q17 0 28.5 12t11.5 29t-11.5 30t-28.5 13t-29 -13t-12 -30t12 -29t29 -12z" />
    <glyph glyph-name="tilde.aalt" horiz-adv-x="443" 
d="M112 691q-18 0 -40.5 5t-38 13.5t-22.5 16.5q11 57 48.5 90t88.5 33q32 0 77.5 -18.5t59.5 -18.5q16 0 28 12t17 32q25 0 53.5 -9t46.5 -26q-6 -35 -23.5 -62t-45.5 -44t-63 -17q-19 0 -39 5t-53 18t-46 13q-14 0 -28 -9t-20 -34z" />
    <glyph glyph-name="glyph494" horiz-adv-x="568" 
d="M65 662q-27 20 -35 58l194 154q30 -18 48 -49t21 -70zM352 662q-27 20 -35 58l193 154q31 -18 49 -49t21 -70zM136 176q-36 0 -77 6v459q29 6 74 6t76 -6v-459q-34 -6 -73 -6zM297 -36q-48 0 -89 15.5t-62 36.5q3 38 23 71.5t49 48.5q11 -11 30 -22t42 -11q31 0 48 17.5
t17 50.5v470q35 6 74 6q37 0 77 -6v-467q0 -95 -56.5 -152.5t-152.5 -57.5z" />
    <glyph glyph-name="glyph495" horiz-adv-x="529" 
d="M58 515q-29 19 -40 56l174 165q31 -17 52 -47t28 -68zM324 515q-29 19 -40 56l174 165q31 -17 52 -47t28 -68zM128 -6q-36 0 -74 6v475q36 6 74 6q36 0 75 -6v-475q-36 -6 -75 -6zM278 -199q-83 0 -132 42q2 28 19.5 57t41.5 43q27 -21 58 -21q62 0 62 80v472q28 6 73 6
t76 -6v-467q0 -36 -10 -73t-33.5 -66.5t-62.5 -48t-92 -18.5z" />
    <glyph glyph-name="glyph496" horiz-adv-x="590" 
d="M93 -34q-17 6 -31 20t-20 31l439 485q16 -6 30.5 -19t20.5 -28z" />
    <glyph glyph-name="glyph497" horiz-adv-x="361" 
d="M59 250q-16 12 -28.5 36.5t-13.5 45.5l287 151q15 -16 26 -39t14 -45z" />
    <glyph glyph-name="glyph498" horiz-adv-x="377" 
d="M35 449q-7 17 -7 42t7 46h308q6 -21 6 -45q0 -23 -6 -43h-308z" />
    <glyph glyph-name="glyph499" horiz-adv-x="179" 
d="M74 492q-14 1 -30.5 9.5t-23.5 20.5q23 50 23 121q0 47 -14 79q27 14 63 14q39 0 58 -13q6 -24 6 -51q0 -52 -23.5 -102.5t-58.5 -77.5z" />
    <glyph glyph-name="glyph500" horiz-adv-x="723" 
d="M101 -45q-29 10 -50.5 31t-31.5 49l602 661q27 -10 48.5 -30t32.5 -46z" />
    <glyph glyph-name="glyph501" horiz-adv-x="380" 
d="M64 246q-16 12 -28.5 37t-13.5 47l298 159q14 -15 25.5 -40t14.5 -45z" />
    <glyph glyph-name="i.aalt" horiz-adv-x="256" 
d="M129 536q-36 0 -63 27t-27 63q0 17 9 38t31.5 36t49.5 15q36 0 63 -26.5t27 -62.5t-27 -63t-63 -27zM128 -6q-36 0 -74 6v475q36 6 74 6q36 0 75 -6v-475q-36 -6 -75 -6z" />
    <glyph glyph-name="uni1EF9.salt" horiz-adv-x="563" 
d="M179 545q-25 0 -55.5 9t-44.5 25q8 43 31.5 74t52 42t52.5 11q17 0 33.5 -5.5t46.5 -19t43 -13.5q12 0 25.5 8.5t20.5 33.5q25 0 53 -9t47 -26q-5 -27 -21 -55.5t-46.5 -47t-64.5 -18.5q-17 0 -35 5t-48 18.5t-42 13.5q-9 0 -18.5 -4t-17.5 -15.5t-12 -26.5zM435 476
q45 0 75 -6v-448q0 -40 -13 -80.5t-44 -72t-79.5 -51.5t-113.5 -20q-54 0 -101 14.5t-71 47t-24 74.5q0 39 23.5 68.5t62.5 48.5q-52 19 -77 56.5t-25 96.5v266q30 6 74 6q45 0 75 -6v-221q0 -49 20 -72.5t69 -23.5q21 0 41.5 4.5t33.5 13.5v299q30 6 74 6zM262 -97
q48 0 73.5 27t25.5 72v31q-25 -4 -55 -6q-106 -13 -106 -72q0 -25 17.5 -38.5t44.5 -13.5z" />
    <glyph glyph-name="uni1EF9.ss02" horiz-adv-x="563" 
d="M179 545q-25 0 -55.5 9t-44.5 25q8 43 31.5 74t52 42t52.5 11q17 0 33.5 -5.5t46.5 -19t43 -13.5q12 0 25.5 8.5t20.5 33.5q25 0 53 -9t47 -26q-5 -27 -21 -55.5t-46.5 -47t-64.5 -18.5q-17 0 -35 5t-48 18.5t-42 13.5q-9 0 -18.5 -4t-17.5 -15.5t-12 -26.5zM435 476
q45 0 75 -6v-441q0 -57 -18.5 -101t-52.5 -72.5t-79.5 -43t-99.5 -14.5q-59 0 -108 15t-78 35t-44 36q5 30 26.5 56.5t54.5 38.5q56 -62 142 -62q41 0 66.5 13.5t33.5 33.5t8 38v34q-47 -15 -94 -15q-70 0 -117.5 21t-74.5 63t-27 108v257q30 6 74 6q45 0 75 -6v-224
q0 -49 20 -72.5t69 -23.5q20 0 41 5t34 13v302q30 6 74 6z" />
    <glyph glyph-name="cent.aalt" horiz-adv-x="508" 
d="M388 178q62 -30 81 -95q-50 -56 -133 -69v-97q-31 -7 -60 -7t-62 7v102q-84 19 -133 81t-49 157q0 91 49.5 154t132.5 83v102q29 6 62 6t60 -6v-97q34 -6 71 -23.5t64 -49.5q-10 -27 -35 -50.5t-58 -37.5q-32 41 -85 41q-54 0 -82.5 -34t-28.5 -88q0 -52 28.5 -86.5
t82.5 -34.5q57 0 95 42z" />
    <glyph glyph-name="Euro.aalt" horiz-adv-x="560" 
d="M459 146q25 -17 42 -46.5t25 -69.5q-26 -20 -68.5 -33.5t-96.5 -13.5q-107 0 -173 50.5t-86 145.5h-72q-4 15 -4 35q0 19 4 35h63v19l1 22h-46q-4 16 -4 35q0 20 4 35h56q22 90 89.5 140.5t165.5 50.5q55 0 98 -14.5t66 -33.5q-7 -32 -27 -62t-46 -48q-36 24 -88 24
q-72 0 -100 -57h104q3 -16 3 -35q0 -17 -3 -35h-120l-1 -22l1 -19h102q4 -24 4 -35q0 -13 -4 -35h-87q27 -61 101 -61q25 0 48.5 5t48.5 23z" />
    </font>
</defs>
</svg>
